{
.appVersion = "1172";
DisplayStrings = (
a,
"falgafel\012jesus",
SO,
Q,
C,
"g/g.004/g.001/g.003/g.002 \012\012\012"
);
classes = (
{
code = "Euro bar cent colon comma degree divide dollar eight equal five four greater less minus multiply nine numbersign one paragraph percent period periodcentered plus plusminus quotedbl quotesingle section semicolon seven six slash sterling three two underscore yen zero";
name = tnum1;
},
{
code = "Euro.tnum bar.tnum cent.tnum colon.tnum comma.tnum degree.tnum divide.tnum dollar.tnum eight.tnum equal.tnum five.tnum four.tnum greater.tnum less.tnum minus.tnum multiply.tnum nine.tnum numbersign.tnum one.tnum paragraph.tnum percent.tnum period.tnum periodcentered.tnum plus.tnum plusminus.tnum quotedbl.tnum quotesingle.tnum section.tnum semicolon.tnum seven.tnum six.tnum slash.tnum sterling.tnum three.tnum two.tnum underscore.tnum yen.tnum zero.tnum";
name = tnum2;
}
);
copyright = "Copyright (c) 2012, Impallari Type (www.impallari.com)";
customParameters = (
{
name = glyphOrder;
value = (
.notdef,
A,
AE,
AEacute,
Aacute,
Abreve,
Acircumflex,
Adieresis,
Agrave,
Amacron,
Aogonek,
Aring,
Aringacute,
Atilde,
B,
C,
CR,
Cacute,
Ccaron,
Ccedilla,
Ccircumflex,
Cdotaccent,
D,
Dcaron,
Dcroat,
Ddotbelow,
E,
Eacute,
Ebreve,
Ecaron,
Ecircumflex,
Edieresis,
Edotaccent,
Edotbelow,
Egrave,
Emacron,
Eng,
Eogonek,
Eth,
Etilde,
Euro,
Euro.tnum,
F,
G,
Gbreve,
Gcircumflex,
Gcommaaccent,
Gdotaccent,
H,
Hbar,
Hcircumflex,
Hdotbelow,
I,
IJ,
Iacute,
Ibreve,
Icircumflex,
Idieresis,
Idotaccent,
Idotbelow,
Igrave,
Imacron,
Iogonek,
Itilde,
J,
Jcircumflex,
K,
Kcommaaccent,
L,
Lacute,
Lcaron,
Lcommaaccent,
Ldot,
Lslash,
M,
N,
NULL,
Nacute,
Ncaron,
Ncommaaccent,
Ndotaccent,
Ntilde,
O,
OE,
Oacute,
Obreve,
Ocircumflex,
Odieresis,
Odotbelow,
Ograve,
Ohungarumlaut,
Omacron,
Oogonek,
Oslash,
Oslashacute,
Otilde,
P,
Q,
R,
Racute,
Rcaron,
Rcommaaccent,
Rdotbelow,
S,
Sacute,
Scaron,
Schwa,
Scircumflex,
Sdotbelow,
T,
Tbar,
Tcaron,
Tdotbelow,
Thorn,
U,
Uacute,
Ubreve,

glyphs = (
{
glyphname = A;
lastChange = "2018-10-18 18:01:35 +0000";
layers = (
{
anchors = (
{
name = bottom;
position = "{447, 0}";
},
{
name = topcap;
position = "{605, 830}";
}
);
layerId = master01;
paths = (
{
closed = 1;
nodes = (
"549 92 LINE SMOOTH",
"548 86 OFFCURVE",
"548 80 OFFCURVE",
"548 75 CURVE SMOOTH",
"549 40 OFFCURVE",
"571 32 OFFCURVE",
"633 28 CURVE",
"619 0 LINE",
"311 0 LINE",
"325 28 LINE",
"401 29 OFFCURVE",
"433 43 OFFCURVE",
"442 105 CURVE SMOOTH",
"467 286 LINE",
"230 286 LINE",
"101 137 LINE SMOOTH",
"70 101 OFFCURVE",
"61 87 OFFCURVE",
"61 69 CURVE SMOOTH",
"62 48 OFFCURVE",
"87 36 OFFCURVE",
"146 28 CURVE",
"133 0 LINE",
"-145 0 LINE",
"-131 28 LINE",
"-36 42 OFFCURVE",
"-6 65 OFFCURVE",
"58 139 CURVE SMOOTH",
"521 677 LINE",
"532 770 LINE",
"640 793 LINE"
);
},
{
closed = 1;
nodes = (
"262 323 LINE",
"472 323 LINE",
"514 614 LINE"
);
}
);
width = 748;
},
{
anchors = (
{
name = bottom;
position = "{447, 0}";
},
{
name = topcap;
position = "{605, 830}";
}
);
layerId = "5CF0B95A-6341-4D13-90DE-0CF1719C21EC";
paths = (
{
closed = 1;
nodes = (
"549 92 LINE SMOOTH",
"548 86 OFFCURVE",
"548 80 OFFCURVE",
"548 75 CURVE SMOOTH",
"549 40 OFFCURVE",
"571 32 OFFCURVE",
"633 28 CURVE",
"619 0 LINE",
"311 0 LINE",
"325 28 LINE",
"401 29 OFFCURVE",
"433 43 OFFCURVE",
"442 105 CURVE SMOOTH",
"467 286 LINE",
"230 286 LINE",
"101 137 LINE SMOOTH",
"70 101 OFFCURVE",
"61 87 OFFCURVE",
"61 69 CURVE SMOOTH",
"62 48 OFFCURVE",
"87 36 OFFCURVE",
"146 28 CURVE",
"133 0 LINE",
"-145 0 LINE",
"-131 28 LINE",
"-36 42 OFFCURVE",
"-6 65 OFFCURVE",
"58 139 CURVE SMOOTH",
"521 677 LINE",
"532 770 LINE",
"640 793 LINE"
);
},
{
closed = 1;
nodes = (
"262 323 LINE",
"472 323 LINE",
"514 614 LINE"
);
}
);
width = 748;
}
);
leftKerningGroup = A;
rightKerningGroup = A;
unicode = 0041;
},
{
glyphname = AE;
lastChange = "2018-10-18 18:01:35 +0000";
layers = (
{
layerId = master01;
paths = (
{
closed = 1;
nodes = (
"271 28 LINE",
"363 47 LINE",
"462 286 LINE",
"253 286 LINE",
"118 137 LINE SMOOTH",
"86 102 OFFCURVE",
"75 86 OFFCURVE",
"75 69 CURVE SMOOTH",
"75 48 OFFCURVE",
"100 36 OFFCURVE",
"158 28 CURVE",
"145 0 LINE",
"-136 0 LINE",
"-122 28 LINE",
"-26 42 OFFCURVE",
"4 65 OFFCURVE",
"71 139 CURVE SMOOTH",
"602 728 LINE",
"525 747 LINE",
"535 770 LINE",
"1057 770 LINE",
"1065 550 LINE",
"1038 550 LINE",
"1026 621 OFFCURVE",
"1009 680 OFFCURVE",
"980 730 CURVE",
"754 730 LINE",
"630 426 LINE",
"798 426 LINE",
"831 464 OFFCURVE",
"859 502 OFFCURVE",
"882 540 CURVE",
"911 540 LINE",
"798 266 LINE",
"769 266 LINE",
"780 306 OFFCURVE",
"784 346 OFFCURVE",
"786 386 CURVE",
"612 386 LINE",
"470 40 LINE",
"793 40 LINE",
"847 103 OFFCURVE",
"892 167 OFFCURVE",
"930 230 CURVE",
"959 230 LINE",
"868 0 LINE",
"259 0 LINE"
);
},
{
closed = 1;
nodes = (
"630 702 LINE",
"286 323 LINE",
"477 323 LINE",
"634 702 LINE"
);
}
);
width = 1040;
},
{
layerId = "5CF0B95A-6341-4D13-90DE-0CF1719C21EC";
paths = (
{
closed = 1;
nodes = (
"271 28 LINE",
"363 47 LINE",
"462 286 LINE",
"253 286 LINE",
"118 137 LINE SMOOTH",
"86 102 OFFCURVE",
"75 86 OFFCURVE",
"75 69 CURVE SMOOTH",
"75 48 OFFCURVE",
"100 36 OFFCURVE",
"158 28 CURVE",
"145 0 LINE",
"-136 0 LINE",
"-122 28 LINE",
"-26 42 OFFCURVE",
"4 65 OFFCURVE",
"71 139 CURVE SMOOTH",
"602 728 LINE",
"525 747 LINE",
"535 770 LINE",
"1057 770 LINE",
"1065 550 LINE",
"1038 550 LINE",
"1026 621 OFFCURVE",
"1009 680 OFFCURVE",
"980 730 CURVE",
"754 730 LINE",
"630 426 LINE",
"798 426 LINE",
"831 464 OFFCURVE",
"859 502 OFFCURVE",
"882 540 CURVE",
"911 540 LINE",
"798 266 LINE",
"769 266 LINE",
"780 306 OFFCURVE",
"784 346 OFFCURVE",
"786 386 CURVE",
"612 386 LINE",
"470 40 LINE",
"793 40 LINE",
"847 103 OFFCURVE",
"892 167 OFFCURVE",
"930 230 CURVE",
"959 230 LINE",
"868 0 LINE",
"259 0 LINE"
);
},
{
closed = 1;
nodes = (
"630 702 LINE",
"286 323 LINE",
"477 323 LINE",
"634 702 LINE"
);
}
);
width = 1040;
}
);
leftKerningGroup = AE;
rightKerningGroup = E;
unicode = 00C6;
},
{
glyphname = Aringacute;
lastChange = "2018-10-18 18:01:35 +0000";
layers = (
{
components = (
{
name = A;
},
{
name = ring.cap;
transform = "{1, 0, 0, 1, 519, 0}";
}
);
layerId = master01;
paths = (
{
closed = 1;
nodes = (
"670 944 OFFCURVE",
"678 946 OFFCURVE",
"687 946 CURVE SMOOTH",
"717 946 OFFCURVE",
"731 934 OFFCURVE",
"731 912 CURVE SMOOTH",
"731 890 OFFCURVE",
"714 876 OFFCURVE",
"662 876 CURVE SMOOTH",
"660 941 LINE"
);
},
{
closed = 1;
nodes = (
"494 870 LINE",
"490 894 LINE",
"553 915 LINE",
"550 868 LINE"
);
}
);
width = 748;
},
{
components = (
{
name = A;
},
{
name = ring.cap;
transform = "{1, 0, 0, 1, 519, 0}";
}
);
layerId = "5CF0B95A-6341-4D13-90DE-0CF1719C21EC";
paths = (
{
closed = 1;
nodes = (
"670 944 OFFCURVE",
"678 946 OFFCURVE",
"687 946 CURVE SMOOTH",
"717 946 OFFCURVE",
"731 934 OFFCURVE",
"731 912 CURVE SMOOTH",
"731 890 OFFCURVE",
"714 876 OFFCURVE",
"662 876 CURVE SMOOTH",
"660 941 LINE"
);
},
{
closed = 1;
nodes = (
"494 870 LINE",
"490 894 LINE",
"553 915 LINE",
"550 868 LINE"
);
}
);
width = 748;
}
);
leftKerningGroup = A;
rightKerningGroup = A;
unicode = 01FA;
},
{
glyphname = B;
lastChange = "2018-10-18 18:01:35 +0000";
layers = (
{
layerId = master01;
paths = (
{
closed = 1;
nodes = (
"418 38 OFFCURVE",
"511 114 OFFCURVE",
"511 251 CURVE SMOOTH",
"511 346 OFFCURVE",
"461 389 OFFCURVE",
"359 389 CURVE SMOOTH",
"287 389 LINE",
"183 135 LINE SMOOTH",
"171 106 OFFCURVE",
"166 87 OFFCURVE",
"166 74 CURVE SMOOTH",
"166 48 OFFCURVE",
"187 38 OFFCURVE",
"243 38 CURVE SMOOTH"
);
},
{
closed = 1;
nodes = (
"538 429 OFFCURVE",
"620 498 OFFCURVE",
"620 612 CURVE SMOOTH",
"620 692 OFFCURVE",
"576 729 OFFCURVE",
"491 729 CURVE SMOOTH",
"430 729 LINE",
"304 429 LINE",
"397 429 LINE SMOOTH"
);
},
{
closed = 1;
nodes = (
"36 47 LINE",
"318 723 LINE",
"240 742 LINE",
"251 770 LINE",
"491 770 LINE SMOOTH",
"633 770 OFFCURVE",
"724 710 OFFCURVE",
"724 613 CURVE SMOOTH",
"724 512 OFFCURVE",
"626 421 OFFCURVE",
"494 401 CURVE",
"494 397 LINE",
"574 377 OFFCURVE",
"619 318 OFFCURVE",
"619 234 CURVE SMOOTH",
"619 93 OFFCURVE",
"490 0 OFFCURVE",
"296 0 CURVE SMOOTH",
"-63 0 LINE",
"-52 28 LINE"
);
}
);
width = 715;
},
{
layerId = "5CF0B95A-6341-4D13-90DE-0CF1719C21EC";
paths = (
{
closed = 1;
nodes = (
"418 38 OFFCURVE",
"511 114 OFFCURVE",
"511 251 CURVE SMOOTH",
"511 346 OFFCURVE",
"461 389 OFFCURVE",
"359 389 CURVE SMOOTH",
"287 389 LINE",
"183 135 LINE SMOOTH",
"171 106 OFFCURVE",
"166 87 OFFCURVE",
"166 74 CURVE SMOOTH",
"166 48 OFFCURVE",
"187 38 OFFCURVE",
"243 38 CURVE SMOOTH"
);
},
{
closed = 1;
nodes = (
"538 429 OFFCURVE",
"620 498 OFFCURVE",
"620 612 CURVE SMOOTH",
"620 692 OFFCURVE",
"576 729 OFFCURVE",
"491 729 CURVE SMOOTH",
"430 729 LINE",
"304 429 LINE",
"397 429 LINE SMOOTH"
);
},
{
closed = 1;
nodes = (
"36 47 LINE",
"318 723 LINE",
"240 742 LINE",
"251 770 LINE",
"491 770 LINE SMOOTH",
"633 770 OFFCURVE",
"724 710 OFFCURVE",
"724 613 CURVE SMOOTH",
"724 512 OFFCURVE",
"626 421 OFFCURVE",
"494 401 CURVE",
"494 397 LINE",
"574 377 OFFCURVE",
"619 318 OFFCURVE",
"619 234 CURVE SMOOTH",
"619 93 OFFCURVE",
"490 0 OFFCURVE",
"296 0 CURVE SMOOTH",
"-63 0 LINE",
"-52 28 LINE"
);
}
);
width = 715;
}
);
leftKerningGroup = I;
unicode = 0042;
},
{
glyphname = C;
lastChange = "2018-10-18 18:01:35 +0000";
layers = (
{
anchors = (
{
name = bottom;
position = "{304, 0}";
},
{
name = topcap;
position = "{660, 830}";
}
);
layerId = master01;
paths = (
{
closed = 1;
nodes = (
"559 0 LINE",
"670 293 LINE",
"641 293 LINE",
"573 134 OFFCURVE",
"454 37 OFFCURVE",
"325 37 CURVE SMOOTH",
"224 37 OFFCURVE",
"173 98 OFFCURVE",
"173 219 CURVE SMOOTH",
"173 477 OFFCURVE",
"397 736 OFFCURVE",
"622 736 CURVE SMOOTH",
"700 736 OFFCURVE",
"736 705 OFFCURVE",
"736 634 CURVE SMOOTH",
"736 608 OFFCURVE",
"731 577 OFFCURVE",
"721 540 CURVE",
"750 540 LINE",
"847 770 LINE",
"825 770 LINE",
"789 737 LINE",
"753 764 OFFCURVE",
"696 780 OFFCURVE",
"632 780 CURVE SMOOTH",
"348 780 OFFCURVE",
"63 496 OFFCURVE",
"63 213 CURVE SMOOTH",
"63 65 OFFCURVE",
"141 -10 OFFCURVE",
"298 -10 CURVE SMOOTH",
"388 -10 OFFCURVE",
"457 15 OFFCURVE",
"536 77 CURVE",
"540 77 LINE",
"532 0 LINE"
);
}
);
width = 742;
},
{
anchors = (
{
name = bottom;
position = "{304, 0}";
},
{
name = topcap;
position = "{660, 830}";
}
);
layerId = "5CF0B95A-6341-4D13-90DE-0CF1719C21EC";
paths = (
{
closed = 1;
nodes = (
"559 0 LINE",
"670 293 LINE",
"641 293 LINE",
"573 134 OFFCURVE",
"454 37 OFFCURVE",
"325 37 CURVE SMOOTH",
"224 37 OFFCURVE",
"173 98 OFFCURVE",
"173 219 CURVE SMOOTH",
"173 477 OFFCURVE",
"397 736 OFFCURVE",
"622 736 CURVE SMOOTH",
"700 736 OFFCURVE",
"736 705 OFFCURVE",
"736 634 CURVE SMOOTH",
"736 608 OFFCURVE",
"731 577 OFFCURVE",
"721 540 CURVE",
"750 540 LINE",
"847 770 LINE",
"825 770 LINE",
"789 737 LINE",
"753 764 OFFCURVE",
"696 780 OFFCURVE",
"632 780 CURVE SMOOTH",
"348 780 OFFCURVE",
"63 496 OFFCURVE",
"63 213 CURVE SMOOTH",
"63 65 OFFCURVE",
"141 -10 OFFCURVE",
"298 -10 CURVE SMOOTH",
"388 -10 OFFCURVE",
"457 15 OFFCURVE",
"536 77 CURVE",
"540 77 LINE",
"532 0 LINE"
);
}
);
width = 742;
}
);
leftKerningGroup = C;
rightKerningGroup = C;
unicode = 0043;
},
{
glyphname = D;
lastChange = "2018-10-18 18:01:35 +0000";
layers = (
{
anchors = (
{
name = bottom;
position = "{232, 0}";
},
{
name = topcap;
position = "{575, 830}";
}
);
layerId = master01;
paths = (
{
closed = 1;
nodes = (
"34 42 LINE",
"318 728 LINE",
"240 747 LINE",
"250 770 LINE",
"456 770 LINE SMOOTH",
"654 770 OFFCURVE",
"781 653 OFFCURVE",
"781 470 CURVE SMOOTH",
"781 291 OFFCURVE",
"671 121 OFFCURVE",
"505 47 CURVE SMOOTH",
"434 15 OFFCURVE",
"349 0 OFFCURVE",
"242 0 CURVE SMOOTH",
"-68 0 LINE",
"-58 23 LINE"
);
},
{
closed = 1;
nodes = (
"469 42 OFFCURVE",
"671 209 OFFCURVE",
"671 495 CURVE SMOOTH",
"671 644 OFFCURVE",
"592 730 OFFCURVE",
"455 730 CURVE SMOOTH",
"428 730 LINE",
"179 129 LINE SMOOTH",
"170 108 OFFCURVE",
"166 92 OFFCURVE",
"166 80 CURVE SMOOTH",
"166 52 OFFCURVE",
"185 42 OFFCURVE",
"236 42 CURVE SMOOTH"
);
}
);
width = 805;
},
{
anchors = (
{
name = bottom;
position = "{232, 0}";
},
{
name = topcap;
position = "{575, 830}";
}
);
layerId = "5CF0B95A-6341-4D13-90DE-0CF1719C21EC";
paths = (
{
closed = 1;
nodes = (
"34 42 LINE",
"318 728 LINE",
"240 747 LINE",
"250 770 LINE",
"456 770 LINE SMOOTH",
"654 770 OFFCURVE",
"781 653 OFFCURVE",
"781 470 CURVE SMOOTH",
"781 291 OFFCURVE",
"671 121 OFFCURVE",
"505 47 CURVE SMOOTH",
"434 15 OFFCURVE",
"349 0 OFFCURVE",
"242 0 CURVE SMOOTH",
"-68 0 LINE",
"-58 23 LINE"
);
},
{
closed = 1;
nodes = (
"469 42 OFFCURVE",
"671 209 OFFCURVE",
"671 495 CURVE SMOOTH",
"671 644 OFFCURVE",
"592 730 OFFCURVE",
"455 730 CURVE SMOOTH",
"428 730 LINE",
"179 129 LINE SMOOTH",
"170 108 OFFCURVE",
"166 92 OFFCURVE",
"166 80 CURVE SMOOTH",
"166 52 OFFCURVE",
"185 42 OFFCURVE",
"236 42 CURVE SMOOTH"
);
}
);
width = 805;
}
);
leftKerningGroup = I;
rightKerningGroup = D;
unicode = 0044;
},
{
glyphname = Dcroat;
lastChange = "2018-10-18 18:01:35 +0000";
layers = (
{
components = (
{
name = D;
transform = "{1, 0, 0, 1, 3, 0}";
}
);
layerId = master01;
paths = (
{
closed = 1;
nodes = (
"96 420 LINE",
"453 420 LINE",
"434 376 LINE",
"78 376 LINE"
);
}
);
width = 808;
},
{
components = (
{
name = D;
transform = "{1, 0, 0, 1, 3, 0}";
}
);
layerId = "5CF0B95A-6341-4D13-90DE-0CF1719C21EC";
paths = (
{
closed = 1;
nodes = (
"96 420 LINE",
"453 420 LINE",
"434 376 LINE",
"78 376 LINE"
);
}
);
width = 808;
}
);
leftKerningGroup = I;
rightKerningGroup = D;
unicode = 0110;
},
{
glyphname = E;
lastChange = "2018-10-18 18:01:35 +0000";
layers = (
{
anchors = (
{
name = bottom;
position = "{241, 0}";
},
{
name = topcap;
position = "{558, 830}";
}
);
layerId = master01;
paths = (
{
closed = 1;
nodes = (
"-58 23 LINE",
"34 42 LINE",
"318 728 LINE",
"240 747 LINE",
"250 770 LINE",
"730 770 LINE",
"738 550 LINE",
"711 550 LINE",
"699 621 OFFCURVE",
"682 680 OFFCURVE",
"653 730 CURVE",
"427 730 LINE",
"303 426 LINE",
"471 426 LINE",
"504 464 OFFCURVE",
"532 502 OFFCURVE",
"555 540 CURVE",
"584 540 LINE",
"471 266 LINE",
"442 266 LINE",
"453 306 OFFCURVE",
"457 346 OFFCURVE",
"459 386 CURVE",
"285 386 LINE",
"143 40 LINE",
"466 40 LINE",
"520 103 OFFCURVE",
"565 167 OFFCURVE",
"603 230 CURVE",
"632 230 LINE",
"541 0 LINE",
"-68 0 LINE"
);
}
);
width = 713;
},
{
anchors = (
{
name = bottom;
position = "{241, 0}";
},
{
name = topcap;
position = "{558, 830}";
}
);
layerId = "5CF0B95A-6341-4D13-90DE-0CF1719C21EC";
paths = (
{
closed = 1;
nodes = (
"-58 23 LINE",
"34 42 LINE",
"318 728 LINE",
"240 747 LINE",
"250 770 LINE",
"730 770 LINE",
"738 550 LINE",
"711 550 LINE",
"699 621 OFFCURVE",
"682 680 OFFCURVE",
"653 730 CURVE",
"427 730 LINE",
"303 426 LINE",
"471 426 LINE",
"504 464 OFFCURVE",
"532 502 OFFCURVE",
"555 540 CURVE",
"584 540 LINE",
"471 266 LINE",
"442 266 LINE",
"453 306 OFFCURVE",
"457 346 OFFCURVE",
"459 386 CURVE",
"285 386 LINE",
"143 40 LINE",
"466 40 LINE",
"520 103 OFFCURVE",
"565 167 OFFCURVE",
"603 230 CURVE",
"632 230 LINE",
"541 0 LINE",
"-68 0 LINE"
);
}
);
width = 713;
}
);
leftKerningGroup = I;
rightKerningGroup = E;
unicode = 0045;
},
{
glyphname = Eng;
lastChange = "2018-10-18 18:01:35 +0000";
layers = (
{
components = (
{
name = N;
}
);
layerId = master01;
paths = (
{
closed = 1;
nodes = (
"512 128 LINE",
"447 -27 LINE SMOOTH",
"385 -175 OFFCURVE",
"352 -216 OFFCURVE",
"306 -216 CURVE SMOOTH",
"246 -216 OFFCURVE",
"274 -127 OFFCURVE",
"209 -127 CURVE SMOOTH",
"183 -127 OFFCURVE",
"158 -145 OFFCURVE",
"158 -177 CURVE SMOOTH",
"158 -220 OFFCURVE",
"204 -256 OFFCURVE",
"277 -256 CURVE SMOOTH",
"386 -256 OFFCURVE",
"490 -169 OFFCURVE",
"549 -27 CURVE SMOOTH",
"613 128 LINE"
);
}
);
width = 815;
},
{
components = (
{
name = N;
}
);
layerId = "5CF0B95A-6341-4D13-90DE-0CF1719C21EC";
paths = (
{
closed = 1;
nodes = (
"512 128 LINE",
"447 -27 LINE SMOOTH",
"385 -175 OFFCURVE",
"352 -216 OFFCURVE",
"306 -216 CURVE SMOOTH",
"246 -216 OFFCURVE",
"274 -127 OFFCURVE",
"209 -127 CURVE SMOOTH",
"183 -127 OFFCURVE",
"158 -145 OFFCURVE",
"158 -177 CURVE SMOOTH",
"158 -220 OFFCURVE",
"204 -256 OFFCURVE",
"277 -256 CURVE SMOOTH",
"386 -256 OFFCURVE",
"490 -169 OFFCURVE",
"549 -27 CURVE SMOOTH",
"613 128 LINE"
);
}
);
width = 815;
}
);
leftKerningGroup = N;
rightKerningGroup = N;
unicode = 014A;
},
{
glyphname = Eth;
lastChange = "2018-10-18 18:01:35 +0000";
layers = (
{
components = (
{
name = D;
transform = "{1, 0, 0, 1, 3, 0}";
}
);
layerId = master01;
paths = (
{
closed = 1;
nodes = (
"96 420 LINE",
"453 420 LINE",
"434 376 LINE",
"78 376 LINE"
);
}
);
width = 808;
},
{
components = (
{
name = D;
transform = "{1, 0, 0, 1, 3, 0}";
}
);
layerId = "5CF0B95A-6341-4D13-90DE-0CF1719C21EC";
paths = (
{
closed = 1;
nodes = (
"96 420 LINE",
"453 420 LINE",
"434 376 LINE",
"78 376 LINE"
);
}
);
width = 808;
}
);
leftKerningGroup = I;
rightKerningGroup = D;
unicode = 00D0;
},
{
glyphname = Euro;
lastChange = "2018-10-18 18:01:35 +0000";
layers = (
{
layerId = master01;
paths = (
{
closed = 1;
nodes = (
"178 441 LINE",
"168 416 OFFCURVE",
"159 390 OFFCURVE",
"152 364 CURVE",
"79 364 LINE",
"57 320 LINE",
"142 320 LINE",
"133 275 OFFCURVE",
"128 229 OFFCURVE",
"128 183 CURVE SMOOTH",
"128 50 OFFCURVE",
"199 -10 OFFCURVE",
"293 -10 CURVE SMOOTH",
"402 -10 OFFCURVE",
"522 65 OFFCURVE",
"522 143 CURVE SMOOTH",
"522 177 OFFCURVE",
"508 189 OFFCURVE",
"482 189 CURVE SMOOTH",
"450 189 OFFCURVE",
"425 166 OFFCURVE",
"401 121 CURVE SMOOTH",
"370 63 OFFCURVE",
"332 31 OFFCURVE",
"288 31 CURVE SMOOTH",
"248 31 OFFCURVE",
"230 65 OFFCURVE",
"230 139 CURVE SMOOTH",
"230 195 OFFCURVE",
"239 257 OFFCURVE",
"256 320 CURVE",
"486 320 LINE",
"508 364 LINE",
"269 364 LINE",
"277 390 OFFCURVE",
"286 416 OFFCURVE",
"296 441 CURVE",
"544 441 LINE",
"566 485 LINE",
"315 485 LINE",
"379 626 OFFCURVE",
"468 738 OFFCURVE",
"539 738 CURVE SMOOTH",
"577 738 OFFCURVE",
"590 721 OFFCURVE",
"590 663 CURVE SMOOTH",
"590 620 OFFCURVE",
"617 596 OFFCURVE",
"650 596 CURVE SMOOTH",
"684 596 OFFCURVE",
"707 621 OFFCURVE",
"707 652 CURVE SMOOTH",
"707 723 OFFCURVE",
"640 780 OFFCURVE",
"552 780 CURVE SMOOTH",
"414 780 OFFCURVE",
"277 654 OFFCURVE",
"197 485 CURVE",
"137 485 LINE",
"115 441 LINE"
);
}
);
width = 637;
},
{
layerId = "5CF0B95A-6341-4D13-90DE-0CF1719C21EC";
paths = (
{
closed = 1;
nodes = (
"178 441 LINE",
"168 416 OFFCURVE",
"159 390 OFFCURVE",
"152 364 CURVE",
"79 364 LINE",
"57 320 LINE",
"142 320 LINE",
"133 275 OFFCURVE",
"128 229 OFFCURVE",
"128 183 CURVE SMOOTH",
"128 50 OFFCURVE",
"199 -10 OFFCURVE",
"293 -10 CURVE SMOOTH",
"402 -10 OFFCURVE",
"522 65 OFFCURVE",
"522 143 CURVE SMOOTH",
"522 177 OFFCURVE",
"508 189 OFFCURVE",
"482 189 CURVE SMOOTH",
"450 189 OFFCURVE",
"425 166 OFFCURVE",
"401 121 CURVE SMOOTH",
"370 63 OFFCURVE",
"332 31 OFFCURVE",
"288 31 CURVE SMOOTH",
"248 31 OFFCURVE",
"230 65 OFFCURVE",
"230 139 CURVE SMOOTH",
"230 195 OFFCURVE",
"239 257 OFFCURVE",
"256 320 CURVE",
"486 320 LINE",
"508 364 LINE",
"269 364 LINE",
"277 390 OFFCURVE",
"286 416 OFFCURVE",
"296 441 CURVE",
"544 441 LINE",
"566 485 LINE",
"315 485 LINE",
"379 626 OFFCURVE",
"468 738 OFFCURVE",
"539 738 CURVE SMOOTH",
"577 738 OFFCURVE",
"590 721 OFFCURVE",
"590 663 CURVE SMOOTH",
"590 620 OFFCURVE",
"617 596 OFFCURVE",
"650 596 CURVE SMOOTH",
"684 596 OFFCURVE",
"707 621 OFFCURVE",
"707 652 CURVE SMOOTH",
"707 723 OFFCURVE",
"640 780 OFFCURVE",
"552 780 CURVE SMOOTH",
"414 780 OFFCURVE",
"277 654 OFFCURVE",
"197 485 CURVE",
"137 485 LINE",
"115 441 LINE"
);
}
);
width = 637;
}
);
unicode = 20AC;
},
{
glyphname = Euro.tnum;
lastChange = "2018-10-18 18:01:35 +0000";
layers = (
{
layerId = master01;
paths = (
{
closed = 1;
nodes = (
"64 441 LINE",
"54 416 OFFCURVE",
"45 390 OFFCURVE",
"38 364 CURVE",
"-35 364 LINE",
"-57 320 LINE",
"28 320 LINE",
"19 275 OFFCURVE",
"14 229 OFFCURVE",
"14 183 CURVE SMOOTH",
"14 50 OFFCURVE",
"85 -10 OFFCURVE",
"179 -10 CURVE SMOOTH",
"288 -10 OFFCURVE",
"408 65 OFFCURVE",
"408 143 CURVE SMOOTH",
"408 177 OFFCURVE",
"394 189 OFFCURVE",
"368 189 CURVE SMOOTH",
"336 189 OFFCURVE",
"311 166 OFFCURVE",
"287 121 CURVE SMOOTH",
"256 63 OFFCURVE",
"218 31 OFFCURVE",
"174 31 CURVE SMOOTH",
"134 31 OFFCURVE",
"116 65 OFFCURVE",
"116 139 CURVE SMOOTH",
"116 195 OFFCURVE",
"125 257 OFFCURVE",
"142 320 CURVE",
"372 320 LINE",
"394 364 LINE",
"155 364 LINE",
"163 390 OFFCURVE",
"172 416 OFFCURVE",
"182 441 CURVE",
"430 441 LINE",
"452 485 LINE",
"201 485 LINE",
"265 626 OFFCURVE",
"354 738 OFFCURVE",
"425 738 CURVE SMOOTH",
"463 738 OFFCURVE",
"476 721 OFFCURVE",
"476 663 CURVE SMOOTH",
"476 620 OFFCURVE",
"503 596 OFFCURVE",
"536 596 CURVE SMOOTH",
"570 596 OFFCURVE",
"593 621 OFFCURVE",
"593 652 CURVE SMOOTH",
"593 723 OFFCURVE",
"526 780 OFFCURVE",
"438 780 CURVE SMOOTH",
"300 780 OFFCURVE",
"163 654 OFFCURVE",
"83 485 CURVE",
"23 485 LINE",
"1 441 LINE"
);
}
);
width = 600;
},
{
layerId = "5CF0B95A-6341-4D13-90DE-0CF1719C21EC";
paths = (
{
closed = 1;
nodes = (
"64 441 LINE",
"54 416 OFFCURVE",
"45 390 OFFCURVE",
"38 364 CURVE",
"-35 364 LINE",
"-57 320 LINE",
"28 320 LINE",
"19 275 OFFCURVE",
"14 229 OFFCURVE",
"14 183 CURVE SMOOTH",
"14 50 OFFCURVE",
"85 -10 OFFCURVE",
"179 -10 CURVE SMOOTH",
"288 -10 OFFCURVE",
"408 65 OFFCURVE",
"408 143 CURVE SMOOTH",
"408 177 OFFCURVE",
"394 189 OFFCURVE",
"368 189 CURVE SMOOTH",
"336 189 OFFCURVE",
"311 166 OFFCURVE",
"287 121 CURVE SMOOTH",
"256 63 OFFCURVE",
"218 31 OFFCURVE",
"174 31 CURVE SMOOTH",
"134 31 OFFCURVE",
"116 65 OFFCURVE",
"116 139 CURVE SMOOTH",
"116 195 OFFCURVE",
"125 257 OFFCURVE",
"142 320 CURVE",
"372 320 LINE",
"394 364 LINE",
"155 364 LINE",
"163 390 OFFCURVE",
"172 416 OFFCURVE",
"182 441 CURVE",
"430 441 LINE",
"452 485 LINE",
"201 485 LINE",
"265 626 OFFCURVE",
"354 738 OFFCURVE",
"425 738 CURVE SMOOTH",
"463 738 OFFCURVE",
"476 721 OFFCURVE",
"476 663 CURVE SMOOTH",
"476 620 OFFCURVE",
"503 596 OFFCURVE",
"536 596 CURVE SMOOTH",
"570 596 OFFCURVE",
"593 621 OFFCURVE",
"593 652 CURVE SMOOTH",
"593 723 OFFCURVE",
"526 780 OFFCURVE",
"438 780 CURVE SMOOTH",
"300 780 OFFCURVE",
"163 654 OFFCURVE",
"83 485 CURVE",
"23 485 LINE",
"1 441 LINE"
);
}
);
width = 600;
}
);
},
{
glyphname = F;
lastChange = "2018-10-18 18:01:35 +0000";
layers = (
{
layerId = master01;
paths = (
{
closed = 1;
nodes = (
"-58 23 LINE",
"34 42 LINE",
"318 728 LINE",
"240 747 LINE",
"250 770 LINE",
"738 770 LINE",
"738 550 LINE",
"711 550 LINE",
"701 621 OFFCURVE",
"684 680 OFFCURVE",
"661 730 CURVE",
"427 730 LINE",
"298 414 LINE",
"466 414 LINE",
"499 452 OFFCURVE",
"527 490 OFFCURVE",
"550 528 CURVE",
"579 528 LINE",
"466 254 LINE",
"437 254 LINE",
"448 294 OFFCURVE",
"452 334 OFFCURVE",
"454 374 CURVE",
"280 374 LINE",
"143 40 LINE",
"260 23 LINE",
"250 0 LINE",
"-68 0 LINE"
);
}
);
width = 644;
},
{
layerId = "5CF0B95A-6341-4D13-90DE-0CF1719C21EC";
paths = (
{
closed = 1;
nodes = (
"-58 23 LINE",
"34 42 LINE",
"318 728 LINE",
"240 747 LINE",
"250 770 LINE",
"738 770 LINE",
"738 550 LINE",
"711 550 LINE",
"701 621 OFFCURVE",
"684 680 OFFCURVE",
"661 730 CURVE",
"427 730 LINE",
"298 414 LINE",
"466 414 LINE",
"499 452 OFFCURVE",
"527 490 OFFCURVE",
"550 528 CURVE",
"579 528 LINE",
"466 254 LINE",
"437 254 LINE",
"448 294 OFFCURVE",
"452 334 OFFCURVE",
"454 374 CURVE",
"280 374 LINE",
"143 40 LINE",
"260 23 LINE",
"250 0 LINE",
"-68 0 LINE"
);
}
);
width = 644;
}
);
leftKerningGroup = I;
unicode = 0046;
},
{
glyphname = G;
lastChange = "2018-10-18 18:01:35 +0000";
layers = (
{
anchors = (
{
name = bottom;
position = "{310, 0}";
},
{
name = topcap;
position = "{660, 830}";
}
);
layerId = master01;
paths = (
{
closed = 1;
nodes = (
"515 363 LINE",
"525 386 LINE",
"809 386 LINE",
"799 363 LINE",
"703 344 LINE",
"585 59 LINE",
"504 14 OFFCURVE",
"409 -10 OFFCURVE",
"326 -10 CURVE SMOOTH",
"164 -10 OFFCURVE",
"71 80 OFFCURVE",
"71 237 CURVE SMOOTH",
"71 509 OFFCURVE",
"343 780 OFFCURVE",
"616 780 CURVE SMOOTH",
"686 780 OFFCURVE",
"736 763 OFFCURVE",
"780 725 CURVE",
"831 770 LINE",
"855 770 LINE",
"757 530 LINE",
"727 530 LINE",
"736 566 OFFCURVE",
"741 595 OFFCURVE",
"741 621 CURVE SMOOTH",
"741 699 OFFCURVE",
"699 736 OFFCURVE",
"612 736 CURVE SMOOTH",
"391 736 OFFCURVE",
"184 493 OFFCURVE",
"184 233 CURVE SMOOTH",
"184 100 OFFCURVE",
"238 34 OFFCURVE",
"348 34 CURVE SMOOTH",
"433 34 OFFCURVE",
"485 72 OFFCURVE",
"521 159 CURVE SMOOTH",
"598 344 LINE"
);
}
);
width = 798;
},
{
anchors = (
{
name = bottom;
position = "{310, 0}";
},
{
name = topcap;
position = "{660, 830}";
}
);
layerId = "5CF0B95A-6341-4D13-90DE-0CF1719C21EC";
paths = (
{
closed = 1;
nodes = (
"515 363 LINE",
"525 386 LINE",
"809 386 LINE",
"799 363 LINE",
"703 344 LINE",
"585 59 LINE",
"504 14 OFFCURVE",
"409 -10 OFFCURVE",
"326 -10 CURVE SMOOTH",
"164 -10 OFFCURVE",
"71 80 OFFCURVE",
"71 237 CURVE SMOOTH",
"71 509 OFFCURVE",
"343 780 OFFCURVE",
"616 780 CURVE SMOOTH",
"686 780 OFFCURVE",
"736 763 OFFCURVE",
"780 725 CURVE",
"831 770 LINE",
"855 770 LINE",
"757 530 LINE",
"727 530 LINE",
"736 566 OFFCURVE",
"741 595 OFFCURVE",
"741 621 CURVE SMOOTH",
"741 699 OFFCURVE",
"699 736 OFFCURVE",
"612 736 CURVE SMOOTH",
"391 736 OFFCURVE",
"184 493 OFFCURVE",
"184 233 CURVE SMOOTH",
"184 100 OFFCURVE",
"238 34 OFFCURVE",
"348 34 CURVE SMOOTH",
"433 34 OFFCURVE",
"485 72 OFFCURVE",
"521 159 CURVE SMOOTH",
"598 344 LINE"
);
}
);
width = 798;
}
);
leftKerningGroup = G;
rightKerningGroup = G;
unicode = 0047;
},
{
glyphname = H;
lastChange = "2018-10-18 18:01:35 +0000";
layers = (
{
anchors = (
{
name = bottom;
position = "{302, 0}";
},
{
name = topcap;
position = "{645, 830}";
}
);
layerId = master01;
paths = (
{
closed = 1;
nodes = (
"404 23 LINE",
"394 0 LINE",
"684 0 LINE",
"693 21 LINE",
"612 42 LINE",
"897 728 LINE",
"993 745 LINE",
"1003 770 LINE",
"713 770 LINE",
"703 747 LINE",
"786 728 LINE",
"660 425 LINE",
"304 425 LINE",
"430 728 LINE",
"526 747 LINE",
"536 770 LINE",
"246 770 LINE",
"236 747 LINE",
"319 728 LINE",
"35 42 LINE",
"-62 23 LINE",
"-72 0 LINE",
"217 0 LINE",
"227 23 LINE",
"145 42 LINE",
"287 385 LINE",
"643 385 LINE",
"501 42 LINE"
);
}
);
width = 859;
},
{
anchors = (
{
name = bottom;
position = "{302, 0}";
},
{
name = topcap;
position = "{645, 830}";
}
);
layerId = "5CF0B95A-6341-4D13-90DE-0CF1719C21EC";
paths = (
{
closed = 1;
nodes = (
"404 23 LINE",
"394 0 LINE",
"684 0 LINE",
"693 21 LINE",
"612 42 LINE",
"897 728 LINE",
"993 745 LINE",
"1003 770 LINE",
"713 770 LINE",
"703 747 LINE",
"786 728 LINE",
"660 425 LINE",
"304 425 LINE",
"430 728 LINE",
"526 747 LINE",
"536 770 LINE",
"246 770 LINE",
"236 747 LINE",
"319 728 LINE",
"35 42 LINE",
"-62 23 LINE",
"-72 0 LINE",
"217 0 LINE",
"227 23 LINE",
"145 42 LINE",
"287 385 LINE",
"643 385 LINE",
"501 42 LINE"
);
}
);
width = 859;
}
);
leftKerningGroup = I;
rightKerningGroup = I;
unicode = 0048;
},
{
glyphname = Hbar;
lastChange = "2018-10-18 18:01:35 +0000";
layers = (
{
components = (
{
name = H;
transform = "{1, 0, 0, 1, 1, 0}";
}
);
layerId = master01;
paths = (
{
closed = 1;
nodes = (
"942 594 LINE",
"185 594 LINE",
"167 550 LINE",
"923 550 LINE"
);
}
);
width = 860;
},
{
components = (
{
name = H;
transform = "{1, 0, 0, 1, 1, 0}";
}
);
layerId = "5CF0B95A-6341-4D13-90DE-0CF1719C21EC";
paths = (
{
closed = 1;
nodes = (
"942 594 LINE",
"185 594 LINE",
"167 550 LINE",
"923 550 LINE"
);
}
);
width = 860;
}
);
leftKerningGroup = I;
rightKerningGroup = I;
unicode = 0126;
},
{
glyphname = I;
lastChange = "2018-10-18 18:01:35 +0000";
layers = (
{
anchors = (
{
name = bottom;
position = "{75, 0}";
},
{
name = topcap;
position = "{420, 830}";
}
);
layerId = master01;
paths = (
{
closed = 1;
nodes = (
"236 747 LINE",
"246 770 LINE",
"536 770 LINE",
"526 747 LINE",
"430 728 LINE",
"145 42 LINE",
"227 23 LINE",
"217 0 LINE",
"-72 0 LINE",
"-62 23 LINE",
"35 42 LINE",
"319 728 LINE"
);
}
);
width = 392;
},
{
anchors = (
{
name = bottom;
position = "{75, 0}";
},
{
name = topcap;
position = "{420, 830}";
}
);
layerId = "5CF0B95A-6341-4D13-90DE-0CF1719C21EC";
paths = (
{
closed = 1;
nodes = (
"236 747 LINE",
"246 770 LINE",
"536 770 LINE",
"526 747 LINE",
"430 728 LINE",
"145 42 LINE",
"227 23 LINE",
"217 0 LINE",
"-72 0 LINE",
"-62 23 LINE",
"35 42 LINE",
"319 728 LINE"
);
}
);
width = 392;
}
);
leftKerningGroup = I;
rightKerningGroup = I;
unicode = 0049;
},
{
glyphname = J;
lastChange = "2018-10-18 18:01:35 +0000";
layers = (
{
anchors = (
{
name = topcap;
position = "{420, 830}";
}
);
layerId = master01;
paths = (
{
closed = 1;
nodes = (
"525 747 LINE",
"535 770 LINE",
"245 770 LINE",
"235 747 LINE",
"318 728 LINE",
"3 -27 LINE SMOOTH",
"-58 -172 OFFCURVE",
"-85 -216 OFFCURVE",
"-128 -216 CURVE SMOOTH",
"-188 -216 OFFCURVE",
"-160 -127 OFFCURVE",
"-225 -127 CURVE SMOOTH",
"-251 -127 OFFCURVE",
"-276 -145 OFFCURVE",
"-276 -177 CURVE SMOOTH",
"-276 -220 OFFCURVE",
"-230 -256 OFFCURVE",
"-157 -256 CURVE SMOOTH",
"-48 -256 OFFCURVE",
"56 -169 OFFCURVE",
"115 -27 CURVE SMOOTH",
"429 728 LINE"
);
}
);
width = 380;
},
{
anchors = (
{
name = topcap;
position = "{420, 830}";
}
);
layerId = "5CF0B95A-6341-4D13-90DE-0CF1719C21EC";
paths = (
{
closed = 1;
nodes = (
"525 747 LINE",
"535 770 LINE",
"245 770 LINE",
"235 747 LINE",
"318 728 LINE",
"3 -27 LINE SMOOTH",
"-58 -172 OFFCURVE",
"-85 -216 OFFCURVE",
"-128 -216 CURVE SMOOTH",
"-188 -216 OFFCURVE",
"-160 -127 OFFCURVE",
"-225 -127 CURVE SMOOTH",
"-251 -127 OFFCURVE",
"-276 -145 OFFCURVE",
"-276 -177 CURVE SMOOTH",
"-276 -220 OFFCURVE",
"-230 -256 OFFCURVE",
"-157 -256 CURVE SMOOTH",
"-48 -256 OFFCURVE",
"56 -169 OFFCURVE",
"115 -27 CURVE SMOOTH",
"429 728 LINE"
);
}
);
width = 380;
}
);
leftKerningGroup = J;
rightKerningGroup = J;
unicode = 004A;
},
{
glyphname = K;
lastChange = "2018-10-18 18:01:35 +0000";
layers = (
{
anchors = (
{
name = bottom;
position = "{281, 0}";
}
);
layerId = master01;
paths = (
{
closed = 1;
nodes = (
"295 407 LINE",
"610 655 LINE SMOOTH",
"640 679 OFFCURVE",
"655 696 OFFCURVE",
"655 710 CURVE SMOOTH",
"655 730 OFFCURVE",
"634 745 OFFCURVE",
"586 747 CURVE",
"595 770 LINE",
"854 770 LINE",
"840 742 LINE",
"781 738 OFFCURVE",
"751 724 OFFCURVE",
"707 689 CURVE SMOOTH",
"417 458 LINE",
"574 42 LINE",
"662 23 LINE",
"655 0 LINE",
"474 0 LINE",
"335 392 LINE",
"266 338 LINE",
"143 42 LINE",
"262 23 LINE",
"252 0 LINE",
"-64 0 LINE",
"-55 23 LINE",
"33 42 LINE",
"319 728 LINE",
"241 747 LINE",
"250 770 LINE",
"520 770 LINE",
"510 747 LINE",
"429 729 LINE"
);
}
);
width = 743;
},
{
anchors = (
{
name = bottom;
position = "{281, 0}";
}
);
layerId = "5CF0B95A-6341-4D13-90DE-0CF1719C21EC";
paths = (
{
closed = 1;
nodes = (
"295 407 LINE",
"610 655 LINE SMOOTH",
"640 679 OFFCURVE",
"655 696 OFFCURVE",
"655 710 CURVE SMOOTH",
"655 730 OFFCURVE",
"634 745 OFFCURVE",
"586 747 CURVE",
"595 770 LINE",
"854 770 LINE",
"840 742 LINE",
"781 738 OFFCURVE",
"751 724 OFFCURVE",
"707 689 CURVE SMOOTH",
"417 458 LINE",
"574 42 LINE",
"662 23 LINE",
"655 0 LINE",
"474 0 LINE",
"335 392 LINE",
"266 338 LINE",
"143 42 LINE",
"262 23 LINE",
"252 0 LINE",
"-64 0 LINE",
"-55 23 LINE",
"33 42 LINE",
"319 728 LINE",
"241 747 LINE",
"250 770 LINE",
"520 770 LINE",
"510 747 LINE",
"429 729 LINE"
);
}
);
width = 743;
}
);
leftKerningGroup = I;
rightKerningGroup = K;
unicode = 004B;
},
{
glyphname = L;
lastChange = "2018-10-18 18:01:35 +0000";
layers = (
{
anchors = (
{
name = bottom;
position = "{265, 0}";
}
);
layerId = master01;
paths = (
{
closed = 1;
nodes = (
"-58 23 LINE",
"34 42 LINE",
"318 728 LINE",
"240 747 LINE",
"250 770 LINE",
"536 770 LINE",
"526 747 LINE",
"425 725 LINE",
"143 40 LINE",
"461 40 LINE",
"515 103 OFFCURVE",
"565 179 OFFCURVE",
"603 242 CURVE",
"637 242 LINE",
"541 0 LINE",
"-68 0 LINE"
);
}
);
width = 695;
},
{
anchors = (
{
name = bottom;
position = "{265, 0}";
}
);
layerId = "5CF0B95A-6341-4D13-90DE-0CF1719C21EC";
paths = (
{
closed = 1;
nodes = (
"-58 23 LINE",
"34 42 LINE",
"318 728 LINE",
"240 747 LINE",
"250 770 LINE",
"536 770 LINE",
"526 747 LINE",
"425 725 LINE",
"143 40 LINE",
"461 40 LINE",
"515 103 OFFCURVE",
"565 179 OFFCURVE",
"603 242 CURVE",
"637 242 LINE",
"541 0 LINE",
"-68 0 LINE"
);
}
);
width = 695;
}
);
leftKerningGroup = I;
rightKerningGroup = L;
unicode = 004C;
},
{
glyphname = Lslash;
lastChange = "2018-10-18 18:01:35 +0000";
layers = (
{
components = (
{
name = L;
transform = "{1, 0, 0, 1, 2, 0}";
}
);
layerId = master01;
paths = (
{
closed = 1;
nodes = (
"43 322 LINE",
"439 510 LINE",
"437 461 LINE",
"43 274 LINE"
);
}
);
width = 697;
},
{
components = (
{
name = L;
transform = "{1, 0, 0, 1, 2, 0}";
}
);
layerId = "5CF0B95A-6341-4D13-90DE-0CF1719C21EC";
paths = (
{
closed = 1;
nodes = (
"43 322 LINE",
"439 510 LINE",
"437 461 LINE",
"43 274 LINE"
);
}
);
width = 697;
}
);
leftKerningGroup = I;
rightKerningGroup = L;
unicode = 0141;
},
{
glyphname = M;
lastChange = "2018-10-18 18:01:35 +0000";
layers = (
{
layerId = master01;
paths = (
{
closed = 1;
nodes = (
"7 42 LINE",
"358 728 LINE",
"268 747 LINE",
"277 770 LINE",
"511 770 LINE",
"439 169 LINE",
"443 169 LINE",
"904 770 LINE",
"1138 770 LINE",
"1129 747 LINE",
"1032 728 LINE",
"747 42 LINE",
"829 23 LINE",
"819 0 LINE",
"535 0 LINE",
"545 23 LINE",
"642 42 LINE",
"921 710 LINE",
"917 710 LINE",
"359 -10 LINE",
"306 -10 LINE",
"393 690 LINE",
"389 690 LINE",
"55 42 LINE",
"137 23 LINE",
"127 0 LINE",
"-100 0 LINE",
"-90 23 LINE"
);
}
);
width = 994;
},
{
layerId = "5CF0B95A-6341-4D13-90DE-0CF1719C21EC";
paths = (
{
closed = 1;
nodes = (
"7 42 LINE",
"358 728 LINE",
"268 747 LINE",
"277 770 LINE",
"511 770 LINE",
"439 169 LINE",
"443 169 LINE",
"904 770 LINE",
"1138 770 LINE",
"1129 747 LINE",
"1032 728 LINE",
"747 42 LINE",
"829 23 LINE",
"819 0 LINE",
"535 0 LINE",
"545 23 LINE",
"642 42 LINE",
"921 710 LINE",
"917 710 LINE",
"359 -10 LINE",
"306 -10 LINE",
"393 690 LINE",
"389 690 LINE",
"55 42 LINE",
"137 23 LINE",
"127 0 LINE",
"-100 0 LINE",
"-90 23 LINE"
);
}
);
width = 994;
}
);
rightKerningGroup = I;
unicode = 004D;
userData = {
com.typemytype.robofont.guides = (
{
angle = 0;
isGlobal = 0;
magnetic = 5;
x = 0;
y = 23;
},
{
angle = 0;
isGlobal = 0;
magnetic = 5;
x = 0;
y = 728;
}
);
};
},
{
glyphname = N;
lastChange = "2018-10-18 18:01:35 +0000";
layers = (
{
anchors = (
{
name = bottom;
position = "{291, -10}";
},
{
name = topcap;
position = "{648, 830}";
}
);
layerId = master01;
paths = (
{
closed = 1;
nodes = (
"556 -10 LINE",
"863 728 LINE",
"959 747 LINE",
"969 770 LINE",
"741 770 LINE",
"731 747 LINE",
"814 728 LINE",
"583 171 LINE",
"579 171 LINE",
"455 770 LINE",
"243 770 LINE",
"233 747 LINE",
"316 728 LINE",
"32 42 LINE",
"-65 23 LINE",
"-75 0 LINE",
"152 0 LINE",
"162 23 LINE",
"80 42 LINE",
"349 690 LINE",
"353 690 LINE",
"498 -10 LINE"
);
}
);
width = 815;
},
{
anchors = (
{
name = bottom;
position = "{291, -10}";
},
{
name = topcap;
position = "{648, 830}";
}
);
layerId = "5CF0B95A-6341-4D13-90DE-0CF1719C21EC";
paths = (
{
closed = 1;
nodes = (
"556 -10 LINE",
"863 728 LINE",
"959 747 LINE",
"969 770 LINE",
"741 770 LINE",
"731 747 LINE",
"814 728 LINE",
"583 171 LINE",
"579 171 LINE",
"455 770 LINE",
"243 770 LINE",
"233 747 LINE",
"316 728 LINE",
"32 42 LINE",
"-65 23 LINE",
"-75 0 LINE",
"152 0 LINE",
"162 23 LINE",
"80 42 LINE",
"349 690 LINE",
"353 690 LINE",
"498 -10 LINE"
);
}
);
width = 815;
}
);
leftKerningGroup = N;
rightKerningGroup = N;
unicode = 004E;
},
{
glyphname = O;
lastChange = "2018-10-18 18:01:35 +0000";
layers = (
{
anchors = (
{
name = bottom;
position = "{286, 0}";
},
{
name = topcap;
position = "{629, 830}";
}
);
layerId = master01;
paths = (
{
closed = 1;
nodes = (
"159 -10 OFFCURVE",
"75 80 OFFCURVE",
"75 236 CURVE SMOOTH",
"75 508 OFFCURVE",
"323 780 OFFCURVE",
"571 780 CURVE SMOOTH",
"717 780 OFFCURVE",
"801 689 OFFCURVE",
"801 531 CURVE SMOOTH",
"801 259 OFFCURVE",
"554 -10 OFFCURVE",
"304 -10 CURVE SMOOTH"
);
},
{
closed = 1;
nodes = (
"502 37 OFFCURVE",
"690 305 OFFCURVE",
"690 565 CURVE SMOOTH",
"690 680 OFFCURVE",
"649 736 OFFCURVE",
"565 736 CURVE SMOOTH",
"382 736 OFFCURVE",
"191 467 OFFCURVE",
"191 210 CURVE SMOOTH",
"191 93 OFFCURVE",
"232 37 OFFCURVE",
"319 37 CURVE SMOOTH"
);
}
);
width = 804;
},
{
anchors = (
{
name = bottom;
position = "{286, 0}";
},
{
name = topcap;
position = "{629, 830}";
}
);
layerId = "5CF0B95A-6341-4D13-90DE-0CF1719C21EC";
paths = (
{
closed = 1;
nodes = (
"159 -10 OFFCURVE",
"75 80 OFFCURVE",
"75 236 CURVE SMOOTH",
"75 508 OFFCURVE",
"323 780 OFFCURVE",
"571 780 CURVE SMOOTH",
"717 780 OFFCURVE",
"801 689 OFFCURVE",
"801 531 CURVE SMOOTH",
"801 259 OFFCURVE",
"554 -10 OFFCURVE",
"304 -10 CURVE SMOOTH"
);
},
{
closed = 1;
nodes = (
"502 37 OFFCURVE",
"690 305 OFFCURVE",
"690 565 CURVE SMOOTH",
"690 680 OFFCURVE",
"649 736 OFFCURVE",
"565 736 CURVE SMOOTH",
"382 736 OFFCURVE",
"191 467 OFFCURVE",
"191 210 CURVE SMOOTH",
"191 93 OFFCURVE",
"232 37 OFFCURVE",
"319 37 CURVE SMOOTH"
);
}
);
width = 804;
}
);
leftKerningGroup = O;
rightKerningGroup = O;
unicode = 004F;
},
{
glyphname = OE;
lastChange = "2018-10-18 18:01:35 +0000";
layers = (
{
layerId = master01;
paths = (
{
closed = 1;
nodes = (
"1147 550 LINE",
"1120 550 LINE",
"1106 627 OFFCURVE",
"1088 683 OFFCURVE",
"1062 730 CURVE",
"836 730 LINE",
"712 426 LINE",
"880 426 LINE",
"913 464 OFFCURVE",
"941 502 OFFCURVE",
"964 540 CURVE",
"993 540 LINE",
"880 266 LINE",
"851 266 LINE",
"861 299 OFFCURVE",
"866 336 OFFCURVE",
"868 386 CURVE",
"694 386 LINE",
"552 40 LINE",
"875 40 LINE",
"925 99 OFFCURVE",
"971 162 OFFCURVE",
"1012 230 CURVE",
"1041 230 LINE",
"950 0 LINE",
"417 0 LINE",
"384 -7 OFFCURVE",
"352 -10 OFFCURVE",
"321 -10 CURVE SMOOTH",
"164 -10 OFFCURVE",
"73 81 OFFCURVE",
"73 238 CURVE SMOOTH",
"73 516 OFFCURVE",
"337 780 OFFCURVE",
"615 780 CURVE SMOOTH",
"649 780 OFFCURVE",
"677 776 OFFCURVE",
"703 770 CURVE",
"1139 770 LINE"
);
},
{
closed = 1;
nodes = (
"391 736 OFFCURVE",
"189 467 OFFCURVE",
"189 212 CURVE SMOOTH",
"189 94 OFFCURVE",
"236 37 OFFCURVE",
"334 37 CURVE SMOOTH",
"372 37 OFFCURVE",
"405 46 OFFCURVE",
"434 65 CURVE",
"704 678 LINE",
"679 717 OFFCURVE",
"640 736 OFFCURVE",
"583 736 CURVE SMOOTH"
);
}
);
width = 1122;
},
{
layerId = "5CF0B95A-6341-4D13-90DE-0CF1719C21EC";
paths = (
{
closed = 1;
nodes = (
"1147 550 LINE",
"1120 550 LINE",
"1106 627 OFFCURVE",
"1088 683 OFFCURVE",
"1062 730 CURVE",
"836 730 LINE",
"712 426 LINE",
"880 426 LINE",
"913 464 OFFCURVE",
"941 502 OFFCURVE",
"964 540 CURVE",
"993 540 LINE",
"880 266 LINE",
"851 266 LINE",
"861 299 OFFCURVE",
"866 336 OFFCURVE",
"868 386 CURVE",
"694 386 LINE",
"552 40 LINE",
"875 40 LINE",
"925 99 OFFCURVE",
"971 162 OFFCURVE",
"1012 230 CURVE",
"1041 230 LINE",
"950 0 LINE",
"417 0 LINE",
"384 -7 OFFCURVE",
"352 -10 OFFCURVE",
"321 -10 CURVE SMOOTH",
"164 -10 OFFCURVE",
"73 81 OFFCURVE",
"73 238 CURVE SMOOTH",
"73 516 OFFCURVE",
"337 780 OFFCURVE",
"615 780 CURVE SMOOTH",
"649 780 OFFCURVE",
"677 776 OFFCURVE",
"703 770 CURVE",
"1139 770 LINE"
);
},
{
closed = 1;
nodes = (
"391 736 OFFCURVE",
"189 467 OFFCURVE",
"189 212 CURVE SMOOTH",
"189 94 OFFCURVE",
"236 37 OFFCURVE",
"334 37 CURVE SMOOTH",
"372 37 OFFCURVE",
"405 46 OFFCURVE",
"434 65 CURVE",
"704 678 LINE",
"679 717 OFFCURVE",
"640 736 OFFCURVE",
"583 736 CURVE SMOOTH"
);
}
);
width = 1122;
}
);
leftKerningGroup = O;
rightKerningGroup = E;
unicode = 0152;
},
{
glyphname = Oslash;
lastChange = "2018-10-18 18:01:35 +0000";
layers = (
{
components = (
{
name = O;
}
);
layerId = master01;
paths = (
{
closed = 1;
nodes = (
"788 889 LINE",
"843 889 LINE",
"105 -149 LINE",
"52 -149 LINE"
);
}
);
width = 804;
},
{
components = (
{
name = O;
}
);
layerId = "5CF0B95A-6341-4D13-90DE-0CF1719C21EC";
paths = (
{
closed = 1;
nodes = (
"788 889 LINE",
"843 889 LINE",
"105 -149 LINE",
"52 -149 LINE"
);
}
);
width = 804;
}
);
leftKerningGroup = O;
rightKerningGroup = O;
unicode = 00D8;
},
{
glyphname = Oslashacute;
lastChange = "2018-10-18 18:01:35 +0000";
layers = (
{
components = (
{
name = O;
}
);
layerId = master01;
paths = (
{
closed = 1;
nodes = (
"788 889 LINE",
"843 889 LINE",
"105 -149 LINE",
"52 -149 LINE"
);
},
{
closed = 1;
nodes = (
"659 944 LINE SMOOTH",
"674 955 OFFCURVE",
"687 960 OFFCURVE",
"703 960 CURVE SMOOTH",
"725 960 OFFCURVE",
"746 942 OFFCURVE",
"746 917 CURVE SMOOTH",
"746 894 OFFCURVE",
"730 875 OFFCURVE",
"678 860 CURVE SMOOTH",
"526 816 LINE",
"515 837 LINE"
);
}
);
width = 804;
},
{
components = (
{
name = O;
}
);
layerId = "5CF0B95A-6341-4D13-90DE-0CF1719C21EC";
paths = (
{
closed = 1;
nodes = (
"788 889 LINE",
"843 889 LINE",
"105 -149 LINE",
"52 -149 LINE"
);
},
{
closed = 1;
nodes = (
"659 944 LINE SMOOTH",
"674 955 OFFCURVE",
"687 960 OFFCURVE",
"703 960 CURVE SMOOTH",
"725 960 OFFCURVE",
"746 942 OFFCURVE",
"746 917 CURVE SMOOTH",
"746 894 OFFCURVE",
"730 875 OFFCURVE",
"678 860 CURVE SMOOTH",
"526 816 LINE",
"515 837 LINE"
);
}
);
width = 804;
}
);
leftKerningGroup = O;
rightKerningGroup = O;
unicode = 01FE;
},
{
glyphname = P;
lastChange = "2018-10-18 18:01:35 +0000";
layers = (
{
layerId = master01;
paths = (
{
closed = 1;
nodes = (
"143 42 LINE",
"262 23 LINE",
"252 0 LINE",
"-64 0 LINE",
"-55 23 LINE",
"33 42 LINE",
"319 728 LINE",
"241 747 LINE",
"250 770 LINE",
"490 770 LINE SMOOTH",
"635 770 OFFCURVE",
"720 705 OFFCURVE",
"720 594 CURVE SMOOTH",
"720 442 OFFCURVE",
"577 341 OFFCURVE",
"363 341 CURVE SMOOTH",
"265 341 LINE"
);
},
{
closed = 1;
nodes = (
"509 385 OFFCURVE",
"616 485 OFFCURVE",
"616 608 CURVE SMOOTH",
"616 686 OFFCURVE",
"572 729 OFFCURVE",
"490 729 CURVE SMOOTH",
"429 729 LINE",
"284 385 LINE",
"377 385 LINE SMOOTH"
);
}
);
width = 653;
},
{
layerId = "5CF0B95A-6341-4D13-90DE-0CF1719C21EC";
paths = (
{
closed = 1;
nodes = (
"143 42 LINE",
"262 23 LINE",
"252 0 LINE",
"-64 0 LINE",
"-55 23 LINE",
"33 42 LINE",
"319 728 LINE",
"241 747 LINE",
"250 770 LINE",
"490 770 LINE SMOOTH",
"635 770 OFFCURVE",
"720 705 OFFCURVE",
"720 594 CURVE SMOOTH",
"720 442 OFFCURVE",
"577 341 OFFCURVE",
"363 341 CURVE SMOOTH",
"265 341 LINE"
);
},
{
closed = 1;
nodes = (
"509 385 OFFCURVE",
"616 485 OFFCURVE",
"616 608 CURVE SMOOTH",
"616 686 OFFCURVE",
"572 729 OFFCURVE",
"490 729 CURVE SMOOTH",
"429 729 LINE",
"284 385 LINE",
"377 385 LINE SMOOTH"
);
}
);
width = 653;
}
);
leftKerningGroup = I;
unicode = 0050;
},
{
glyphname = Q;
lastChange = "2018-10-18 18:01:35 +0000";
layers = (
{
layerId = master01;
paths = (
{
closed = 1;
nodes = (
"148 6 OFFCURVE",
"76 91 OFFCURVE",
"76 237 CURVE SMOOTH",
"76 508 OFFCURVE",
"324 780 OFFCURVE",
"574 780 CURVE SMOOTH",
"718 780 OFFCURVE",
"802 689 OFFCURVE",
"802 530 CURVE SMOOTH",
"802 299 OFFCURVE",
"624 88 OFFCURVE",
"425 8 CURVE SMOOTH",
"190 -87 LINE",
"227 -115 OFFCURVE",
"266 -127 OFFCURVE",
"325 -127 CURVE SMOOTH",
"413 -127 OFFCURVE",
"481 -100 OFFCURVE",
"508 -63 CURVE",
"542 -63 LINE",
"530 -109 OFFCURVE",
"457 -227 OFFCURVE",
"325 -227 CURVE SMOOTH",
"202 -227 OFFCURVE",
"191 -126 OFFCURVE",
"108 -126 CURVE SMOOTH",
"90 -126 OFFCURVE",
"86 -131 OFFCURVE",
"86 -140 CURVE SMOOTH",
"86 -148 OFFCURVE",
"90 -157 OFFCURVE",
"90 -166 CURVE SMOOTH",
"90 -185 OFFCURVE",
"73 -201 OFFCURVE",
"50 -201 CURVE SMOOTH",
"23 -201 OFFCURVE",
"12 -180 OFFCURVE",
"12 -159 CURVE SMOOTH",
"12 -129 OFFCURVE",
"34 -108 OFFCURVE",
"79 -90 CURVE SMOOTH",
"270 -12 LINE",
"270 -8 LINE"
);
},
{
closed = 1;
nodes = (
"503 37 OFFCURVE",
"691 305 OFFCURVE",
"691 562 CURVE SMOOTH",
"691 680 OFFCURVE",
"651 736 OFFCURVE",
"567 736 CURVE SMOOTH",
"383 736 OFFCURVE",
"192 467 OFFCURVE",
"192 212 CURVE SMOOTH",
"192 94 OFFCURVE",
"233 37 OFFCURVE",
"318 37 CURVE SMOOTH"
);
}
);
width = 804;
},
{
layerId = "5CF0B95A-6341-4D13-90DE-0CF1719C21EC";
paths = (
{
closed = 1;
nodes = (
"148 6 OFFCURVE",
"76 91 OFFCURVE",
"76 237 CURVE SMOOTH",
"76 508 OFFCURVE",
"324 780 OFFCURVE",
"574 780 CURVE SMOOTH",
"718 780 OFFCURVE",
"802 689 OFFCURVE",
"802 530 CURVE SMOOTH",
"802 299 OFFCURVE",
"624 88 OFFCURVE",
"425 8 CURVE SMOOTH",
"190 -87 LINE",
"227 -115 OFFCURVE",
"266 -127 OFFCURVE",
"325 -127 CURVE SMOOTH",
"413 -127 OFFCURVE",
"481 -100 OFFCURVE",
"508 -63 CURVE",
"542 -63 LINE",
"530 -109 OFFCURVE",
"457 -227 OFFCURVE",
"325 -227 CURVE SMOOTH",
"202 -227 OFFCURVE",
"191 -126 OFFCURVE",
"108 -126 CURVE SMOOTH",
"90 -126 OFFCURVE",
"86 -131 OFFCURVE",
"86 -140 CURVE SMOOTH",
"86 -148 OFFCURVE",
"90 -157 OFFCURVE",
"90 -166 CURVE SMOOTH",
"90 -185 OFFCURVE",
"73 -201 OFFCURVE",
"50 -201 CURVE SMOOTH",
"23 -201 OFFCURVE",
"12 -180 OFFCURVE",
"12 -159 CURVE SMOOTH",
"12 -129 OFFCURVE",
"34 -108 OFFCURVE",
"79 -90 CURVE SMOOTH",
"270 -12 LINE",
"270 -8 LINE"
);
},
{
closed = 1;
nodes = (
"503 37 OFFCURVE",
"691 305 OFFCURVE",
"691 562 CURVE SMOOTH",
"691 680 OFFCURVE",
"651 736 OFFCURVE",
"567 736 CURVE SMOOTH",
"383 736 OFFCURVE",
"192 467 OFFCURVE",
"192 212 CURVE SMOOTH",
"192 94 OFFCURVE",
"233 37 OFFCURVE",
"318 37 CURVE SMOOTH"
);
}
);
width = 804;
}
);
rightKerningGroup = O;
unicode = 0051;
},
{
glyphname = R;
lastChange = "2018-10-18 18:01:35 +0000";
layers = (
{
anchors = (
{
name = bottom;
position = "{271, -10}";
},
{
name = topcap;
position = "{513, 830}";
}
);
layerId = master01;
paths = (
{
closed = 1;
nodes = (
"143 42 LINE",
"262 23 LINE",
"252 0 LINE",
"-64 0 LINE",
"-55 23 LINE",
"33 42 LINE",
"319 728 LINE",
"241 747 LINE",
"250 770 LINE",
"490 770 LINE SMOOTH",
"645 770 OFFCURVE",
"717 712 OFFCURVE",
"717 607 CURVE SMOOTH",
"717 476 OFFCURVE",
"613 383 OFFCURVE",
"450 359 CURVE",
"564 42 LINE",
"672 23 LINE",
"665 0 LINE",
"464 0 LINE",
"347 354 LINE",
"270 354 LINE"
);
},
{
closed = 1;
nodes = (
"509 398 OFFCURVE",
"616 494 OFFCURVE",
"616 608 CURVE SMOOTH",
"616 686 OFFCURVE",
"572 729 OFFCURVE",
"490 729 CURVE SMOOTH",
"429 729 LINE",
"289 398 LINE",
"382 398 LINE SMOOTH"
);
}
);
width = 740;
},
{
anchors = (
{
name = bottom;
position = "{271, -10}";
},
{
name = topcap;
position = "{513, 830}";
}
);
layerId = "5CF0B95A-6341-4D13-90DE-0CF1719C21EC";
paths = (
{
closed = 1;
nodes = (
"143 42 LINE",
"262 23 LINE",
"252 0 LINE",
"-64 0 LINE",
"-55 23 LINE",
"33 42 LINE",
"319 728 LINE",
"241 747 LINE",
"250 770 LINE",
"490 770 LINE SMOOTH",
"645 770 OFFCURVE",
"717 712 OFFCURVE",
"717 607 CURVE SMOOTH",
"717 476 OFFCURVE",
"613 383 OFFCURVE",
"450 359 CURVE",
"564 42 LINE",
"672 23 LINE",
"665 0 LINE",
"464 0 LINE",
"347 354 LINE",
"270 354 LINE"
);
},
{
closed = 1;
nodes = (
"509 398 OFFCURVE",
"616 494 OFFCURVE",
"616 608 CURVE SMOOTH",
"616 686 OFFCURVE",
"572 729 OFFCURVE",
"490 729 CURVE SMOOTH",
"429 729 LINE",
"289 398 LINE",
"382 398 LINE SMOOTH"
);
}
);
width = 740;
}
);
leftKerningGroup = I;
rightKerningGroup = R;
unicode = 0052;
},
{
glyphname = S;
lastChange = "2018-10-18 18:01:35 +0000";
layers = (
{
anchors = (
{
name = bottom;
position = "{192, 0}";
},
{
name = topcap;
position = "{487, 830}";
}
);
layerId = master01;
paths = (
{
closed = 1;
nodes = (
"-6 0 LINE",
"45 72 LINE",
"73 18 OFFCURVE",
"131 -10 OFFCURVE",
"216 -10 CURVE SMOOTH",
"375 -10 OFFCURVE",
"494 88 OFFCURVE",
"494 219 CURVE SMOOTH",
"494 286 OFFCURVE",
"469 333 OFFCURVE",
"379 438 CURVE SMOOTH",
"314 512 OFFCURVE",
"302 536 OFFCURVE",
"302 591 CURVE SMOOTH",
"302 687 OFFCURVE",
"354 740 OFFCURVE",
"450 740 CURVE SMOOTH",
"529 740 OFFCURVE",
"572 703 OFFCURVE",
"572 637 CURVE SMOOTH",
"572 613 OFFCURVE",
"566 575 OFFCURVE",
"559 550 CURVE",
"589 550 LINE",
"675 770 LINE",
"643 770 LINE",
"597 718 LINE",
"558 761 OFFCURVE",
"511 780 OFFCURVE",
"446 780 CURVE SMOOTH",
"300 780 OFFCURVE",
"197 685 OFFCURVE",
"197 552 CURVE SMOOTH",
"197 372 OFFCURVE",
"386 338 OFFCURVE",
"386 177 CURVE SMOOTH",
"386 86 OFFCURVE",
"324 30 OFFCURVE",
"222 30 CURVE SMOOTH",
"130 30 OFFCURVE",
"85 75 OFFCURVE",
"85 165 CURVE SMOOTH",
"85 193 OFFCURVE",
"89 225 OFFCURVE",
"98 261 CURVE",
"69 261 LINE",
"-37 0 LINE"
);
}
);
width = 589;
},
{
anchors = (
{
name = bottom;
position = "{192, 0}";
},
{
name = topcap;
position = "{487, 830}";
}
);
layerId = "5CF0B95A-6341-4D13-90DE-0CF1719C21EC";
paths = (
{
closed = 1;
nodes = (
"-6 0 LINE",
"45 72 LINE",
"73 18 OFFCURVE",
"131 -10 OFFCURVE",
"216 -10 CURVE SMOOTH",
"375 -10 OFFCURVE",
"494 88 OFFCURVE",
"494 219 CURVE SMOOTH",
"494 286 OFFCURVE",
"469 333 OFFCURVE",
"379 438 CURVE SMOOTH",
"314 512 OFFCURVE",
"302 536 OFFCURVE",
"302 591 CURVE SMOOTH",
"302 687 OFFCURVE",
"354 740 OFFCURVE",
"450 740 CURVE SMOOTH",
"529 740 OFFCURVE",
"572 703 OFFCURVE",
"572 637 CURVE SMOOTH",
"572 613 OFFCURVE",
"566 575 OFFCURVE",
"559 550 CURVE",
"589 550 LINE",
"675 770 LINE",
"643 770 LINE",
"597 718 LINE",
"558 761 OFFCURVE",
"511 780 OFFCURVE",
"446 780 CURVE SMOOTH",
"300 780 OFFCURVE",
"197 685 OFFCURVE",
"197 552 CURVE SMOOTH",
"197 372 OFFCURVE",
"386 338 OFFCURVE",
"386 177 CURVE SMOOTH",
"386 86 OFFCURVE",
"324 30 OFFCURVE",
"222 30 CURVE SMOOTH",
"130 30 OFFCURVE",
"85 75 OFFCURVE",
"85 165 CURVE SMOOTH",
"85 193 OFFCURVE",
"89 225 OFFCURVE",
"98 261 CURVE",
"69 261 LINE",
"-37 0 LINE"
);
}
);
width = 589;
}
);
leftKerningGroup = S;
rightKerningGroup = S;
unicode = 0053;
},
{
glyphname = Schwa;
lastChange = "2018-10-18 18:01:35 +0000";
layers = (
{
layerId = master01;
paths = (
{
closed = 1;
nodes = (
"45 -10 OFFCURVE",
"-8 27 OFFCURVE",
"-8 88 CURVE SMOOTH",
"-8 210 OFFCURVE",
"215 329 OFFCURVE",
"540 379 CURVE",
"578 473 OFFCURVE",
"602 567 OFFCURVE",
"602 626 CURVE SMOOTH",
"602 695 OFFCURVE",
"566 730 OFFCURVE",
"492 730 CURVE SMOOTH",
"388 730 OFFCURVE",
"282 660 OFFCURVE",
"188 535 CURVE",
"151 557 LINE",
"268 704 OFFCURVE",
"391 779 OFFCURVE",
"514 779 CURVE SMOOTH",
"633 779 OFFCURVE",
"701 708 OFFCURVE",
"701 586 CURVE SMOOTH",
"701 321 OFFCURVE",
"383 -10 OFFCURVE",
"130 -10 CURVE SMOOTH"
);
},
{
closed = 1;
nodes = (
"304 295 OFFCURVE",
"122 180 OFFCURVE",
"122 83 CURVE SMOOTH",
"122 54 OFFCURVE",
"137 41 OFFCURVE",
"173 41 CURVE SMOOTH",
"272 41 OFFCURVE",
"401 136 OFFCURVE",
"462 247 CURVE SMOOTH",
"508 332 LINE"
);
}
);
width = 674;
},
{
layerId = "5CF0B95A-6341-4D13-90DE-0CF1719C21EC";
paths = (
{
closed = 1;
nodes = (
"45 -10 OFFCURVE",
"-8 27 OFFCURVE",
"-8 88 CURVE SMOOTH",
"-8 210 OFFCURVE",
"215 329 OFFCURVE",
"540 379 CURVE",
"578 473 OFFCURVE",
"602 567 OFFCURVE",
"602 626 CURVE SMOOTH",
"602 695 OFFCURVE",
"566 730 OFFCURVE",
"492 730 CURVE SMOOTH",
"388 730 OFFCURVE",
"282 660 OFFCURVE",
"188 535 CURVE",
"151 557 LINE",
"268 704 OFFCURVE",
"391 779 OFFCURVE",
"514 779 CURVE SMOOTH",
"633 779 OFFCURVE",
"701 708 OFFCURVE",
"701 586 CURVE SMOOTH",
"701 321 OFFCURVE",
"383 -10 OFFCURVE",
"130 -10 CURVE SMOOTH"
);
},
{
closed = 1;
nodes = (
"304 295 OFFCURVE",
"122 180 OFFCURVE",
"122 83 CURVE SMOOTH",
"122 54 OFFCURVE",
"137 41 OFFCURVE",
"173 41 CURVE SMOOTH",
"272 41 OFFCURVE",
"401 136 OFFCURVE",
"462 247 CURVE SMOOTH",
"508 332 LINE"
);
}
);
width = 674;
}
);
unicode = 018F;
},
{
glyphname = T;
lastChange = "2018-10-18 18:01:35 +0000";
layers = (
{
anchors = (
{
name = bottom;
position = "{239, 0}";
},
{
name = topcap;
position = "{589, 830}";
}
);
layerId = master01;
paths = (
{
closed = 1;
nodes = (
"98 23 LINE",
"88 0 LINE",
"406 0 LINE",
"416 23 LINE",
"314 42 LINE",
"599 730 LINE",
"777 730 LINE",
"792 687 OFFCURVE",
"796 640 OFFCURVE",
"796 595 CURVE SMOOTH",
"796 580 OFFCURVE",
"796 564 OFFCURVE",
"795 550 CURVE",
"819 550 LINE",
"873 770 LINE",
"247 770 LINE",
"119 550 LINE",
"143 550 LINE",
"186 607 OFFCURVE",
"246 673 OFFCURVE",
"312 730 CURVE",
"490 730 LINE",
"205 42 LINE"
);
}
);
width = 735;
},
{
anchors = (
{
name = bottom;
position = "{239, 0}";
},
{
name = topcap;
position = "{589, 830}";
}
);
layerId = "5CF0B95A-6341-4D13-90DE-0CF1719C21EC";
paths = (
{
closed = 1;
nodes = (
"98 23 LINE",
"88 0 LINE",
"406 0 LINE",
"416 23 LINE",
"314 42 LINE",
"599 730 LINE",
"777 730 LINE",
"792 687 OFFCURVE",
"796 640 OFFCURVE",
"796 595 CURVE SMOOTH",
"796 580 OFFCURVE",
"796 564 OFFCURVE",
"795 550 CURVE",
"819 550 LINE",
"873 770 LINE",
"247 770 LINE",
"119 550 LINE",
"143 550 LINE",
"186 607 OFFCURVE",
"246 673 OFFCURVE",
"312 730 CURVE",
"490 730 LINE",
"205 42 LINE"
);
}
);
width = 735;
}
);
leftKerningGroup = T;
rightKerningGroup = T;
unicode = 0054;
},
{
glyphname = Tbar;
lastChange = "2018-10-18 18:01:35 +0000";
layers = (
{
components = (
{
name = T;
}
);
layerId = master01;
paths = (
{
closed = 1;
nodes = (
"718 464 LINE",
"191 464 LINE",
"173 420 LINE",
"699 420 LINE"
);
}
);
width = 743;
},
{
components = (
{
name = T;
}
);
layerId = "5CF0B95A-6341-4D13-90DE-0CF1719C21EC";
paths = (
{
closed = 1;
nodes = (
"718 464 LINE",
"191 464 LINE",
"173 420 LINE",
"699 420 LINE"
);
}
);
width = 743;
}
);
leftKerningGroup = T;
rightKerningGroup = T;
unicode = 0166;
},
{
glyphname = Thorn;
lastChange = "2018-10-18 18:01:35 +0000";
layers = (
{
layerId = master01;
paths = (
{
closed = 1;
nodes = (
"207 747 LINE",
"217 770 LINE",
"533 770 LINE",
"524 747 LINE",
"436 728 LINE",
"380 596 LINE",
"424 596 LINE SMOOTH",
"569 596 OFFCURVE",
"654 531 OFFCURVE",
"654 420 CURVE SMOOTH",
"654 268 OFFCURVE",
"511 167 OFFCURVE",
"297 167 CURVE SMOOTH",
"199 167 LINE",
"146 42 LINE",
"265 23 LINE",
"255 0 LINE",
"-61 0 LINE",
"-52 23 LINE",
"36 42 LINE",
"326 728 LINE"
);
},
{
closed = 1;
nodes = (
"443 211 OFFCURVE",
"550 311 OFFCURVE",
"550 434 CURVE SMOOTH",
"550 512 OFFCURVE",
"506 555 OFFCURVE",
"424 555 CURVE SMOOTH",
"363 555 LINE",
"218 211 LINE",
"311 211 LINE SMOOTH"
);
}
);
width = 658;
},
{
layerId = "5CF0B95A-6341-4D13-90DE-0CF1719C21EC";
paths = (
{
closed = 1;
nodes = (
"207 747 LINE",
"217 770 LINE",
"533 770 LINE",
"524 747 LINE",
"436 728 LINE",
"380 596 LINE",
"424 596 LINE SMOOTH",
"569 596 OFFCURVE",
"654 531 OFFCURVE",
"654 420 CURVE SMOOTH",
"654 268 OFFCURVE",
"511 167 OFFCURVE",
"297 167 CURVE SMOOTH",
"199 167 LINE",
"146 42 LINE",
"265 23 LINE",
"255 0 LINE",
"-61 0 LINE",
"-52 23 LINE",
"36 42 LINE",
"326 728 LINE"
);
},
{
closed = 1;
nodes = (
"443 211 OFFCURVE",
"550 311 OFFCURVE",
"550 434 CURVE SMOOTH",
"550 512 OFFCURVE",
"506 555 OFFCURVE",
"424 555 CURVE SMOOTH",
"363 555 LINE",
"218 211 LINE",
"311 211 LINE SMOOTH"
);
}
);
width = 658;
}
);
leftKerningGroup = I;
unicode = 00DE;
},
{
glyphname = U;
lastChange = "2018-10-18 18:01:35 +0000";
layers = (
{
anchors = (
{
name = bottom;
position = "{309, 0}";
},
{
name = topcap;
position = "{652, 830}";
}
);
layerId = master01;
paths = (
{
closed = 1;
nodes = (
"228 747 LINE",
"237 770 LINE",
"522 770 LINE",
"512 747 LINE",
"416 727 LINE",
"225 269 LINE SMOOTH",
"207 227 OFFCURVE",
"196 179 OFFCURVE",
"196 144 CURVE SMOOTH",
"196 72 OFFCURVE",
"243 37 OFFCURVE",
"340 37 CURVE SMOOTH",
"447 37 OFFCURVE",
"514 90 OFFCURVE",
"587 259 CURVE SMOOTH",
"790 728 LINE",
"706 747 LINE",
"717 770 LINE",
"938 770 LINE",
"929 747 LINE",
"834 728 LINE",
"623 230 LINE SMOOTH",
"541 36 OFFCURVE",
"432 -10 OFFCURVE",
"310 -10 CURVE SMOOTH",
"169 -10 OFFCURVE",
"94 46 OFFCURVE",
"94 150 CURVE SMOOTH",
"94 195 OFFCURVE",
"108 252 OFFCURVE",
"137 320 CURVE SMOOTH",
"310 728 LINE"
);
}
);
width = 778;
},
{
anchors = (
{
name = bottom;
position = "{309, 0}";
},
{
name = topcap;
position = "{652, 830}";
}
);
layerId = "5CF0B95A-6341-4D13-90DE-0CF1719C21EC";
paths = (
{
closed = 1;
nodes = (
"228 747 LINE",
"237 770 LINE",
"522 770 LINE",
"512 747 LINE",
"416 727 LINE",
"225 269 LINE SMOOTH",
"207 227 OFFCURVE",
"196 179 OFFCURVE",
"196 144 CURVE SMOOTH",
"196 72 OFFCURVE",
"243 37 OFFCURVE",
"340 37 CURVE SMOOTH",
"447 37 OFFCURVE",
"514 90 OFFCURVE",
"587 259 CURVE SMOOTH",
"790 728 LINE",
"706 747 LINE",
"717 770 LINE",
"938 770 LINE",
"929 747 LINE",
"834 728 LINE",
"623 230 LINE SMOOTH",
"541 36 OFFCURVE",
"432 -10 OFFCURVE",
"310 -10 CURVE SMOOTH",
"169 -10 OFFCURVE",
"94 46 OFFCURVE",
"94 150 CURVE SMOOTH",
"94 195 OFFCURVE",
"108 252 OFFCURVE",
"137 320 CURVE SMOOTH",
"310 728 LINE"
);
}
);
width = 778;
}
);
leftKerningGroup = U;
rightKerningGroup = U;
unicode = 0055;
},
{
glyphname = V;
lastChange = "2018-10-18 18:01:35 +0000";
layers = (
{
layerId = master01;
paths = (
{
closed = 1;
nodes = (
"745 631 LINE SMOOTH",
"805 708 OFFCURVE",
"839 728 OFFCURVE",
"934 742 CURVE",
"948 770 LINE",
"659 770 LINE",
"646 742 LINE",
"705 734 OFFCURVE",
"730 722 OFFCURVE",
"731 701 CURVE SMOOTH",
"731 683 OFFCURVE",
"726 670 OFFCURVE",
"697 633 CURVE SMOOTH",
"307 133 LINE",
"303 133 LINE",
"376 665 LINE SMOOTH",
"385 727 OFFCURVE",
"417 741 OFFCURVE",
"493 742 CURVE",
"507 770 LINE",
"199 770 LINE",
"185 742 LINE",
"247 738 OFFCURVE",
"269 730 OFFCURVE",
"270 695 CURVE SMOOTH",
"270 690 OFFCURVE",
"270 684 OFFCURVE",
"269 678 CURVE SMOOTH",
"180 -10 LINE",
"239 -10 LINE"
);
}
);
width = 734;
},
{
layerId = "5CF0B95A-6341-4D13-90DE-0CF1719C21EC";
paths = (
{
closed = 1;
nodes = (
"745 631 LINE SMOOTH",
"805 708 OFFCURVE",
"839 728 OFFCURVE",
"934 742 CURVE",
"948 770 LINE",
"659 770 LINE",
"646 742 LINE",
"705 734 OFFCURVE",
"730 722 OFFCURVE",
"731 701 CURVE SMOOTH",
"731 683 OFFCURVE",
"726 670 OFFCURVE",
"697 633 CURVE SMOOTH",
"307 133 LINE",
"303 133 LINE",
"376 665 LINE SMOOTH",
"385 727 OFFCURVE",
"417 741 OFFCURVE",
"493 742 CURVE",
"507 770 LINE",
"199 770 LINE",
"185 742 LINE",
"247 738 OFFCURVE",
"269 730 OFFCURVE",
"270 695 CURVE SMOOTH",
"270 690 OFFCURVE",
"270 684 OFFCURVE",
"269 678 CURVE SMOOTH",
"180 -10 LINE",
"239 -10 LINE"
);
}
);
width = 734;
}
);
unicode = 0056;
},
{
glyphname = W;
lastChange = "2018-10-18 18:01:35 +0000";
layers = (
{
anchors = (
{
name = topcap;
position = "{743, 830}";
}
);
layerId = master01;
paths = (
{
closed = 1;
nodes = (
"574 447 LINE",
"515 -10 LINE",
"574 -10 LINE",
"1050 631 LINE SMOOTH",
"1106 706 OFFCURVE",
"1134 728 OFFCURVE",
"1219 742 CURVE",
"1233 770 LINE",
"964 770 LINE",
"951 742 LINE",
"1010 734 OFFCURVE",
"1035 722 OFFCURVE",
"1036 701 CURVE SMOOTH",
"1036 683 OFFCURVE",
"1029 670 OFFCURVE",
"1002 633 CURVE SMOOTH",
"638 134 LINE",
"711 665 LINE SMOOTH",
"720 727 OFFCURVE",
"753 741 OFFCURVE",
"828 742 CURVE",
"842 770 LINE",
"564 770 LINE",
"550 742 LINE",
"591 738 OFFCURVE",
"604 730 OFFCURVE",
"605 695 CURVE SMOOTH",
"605 690 OFFCURVE",
"605 684 OFFCURVE",
"604 678 CURVE SMOOTH",
"584 526 LINE",
"298 134 LINE",
"371 665 LINE SMOOTH",
"379 727 OFFCURVE",
"405 741 OFFCURVE",
"468 742 CURVE",
"482 770 LINE",
"194 770 LINE",
"180 742 LINE",
"242 738 OFFCURVE",
"264 730 OFFCURVE",
"265 695 CURVE SMOOTH",
"265 690 OFFCURVE",
"265 684 OFFCURVE",
"264 678 CURVE SMOOTH",
"175 -10 LINE",
"234 -10 LINE"
);
}
);
width = 1029;
},
{
anchors = (
{
name = topcap;
position = "{743, 830}";
}
);
layerId = "5CF0B95A-6341-4D13-90DE-0CF1719C21EC";
paths = (
{
closed = 1;
nodes = (
"574 447 LINE",
"515 -10 LINE",
"574 -10 LINE",
"1050 631 LINE SMOOTH",
"1106 706 OFFCURVE",
"1134 728 OFFCURVE",
"1219 742 CURVE",
"1233 770 LINE",
"964 770 LINE",
"951 742 LINE",
"1010 734 OFFCURVE",
"1035 722 OFFCURVE",
"1036 701 CURVE SMOOTH",
"1036 683 OFFCURVE",
"1029 670 OFFCURVE",
"1002 633 CURVE SMOOTH",
"638 134 LINE",
"711 665 LINE SMOOTH",
"720 727 OFFCURVE",
"753 741 OFFCURVE",
"828 742 CURVE",
"842 770 LINE",
"564 770 LINE",
"550 742 LINE",
"591 738 OFFCURVE",
"604 730 OFFCURVE",
"605 695 CURVE SMOOTH",
"605 690 OFFCURVE",
"605 684 OFFCURVE",
"604 678 CURVE SMOOTH",
"584 526 LINE",
"298 134 LINE",
"371 665 LINE SMOOTH",
"379 727 OFFCURVE",
"405 741 OFFCURVE",
"468 742 CURVE",
"482 770 LINE",
"194 770 LINE",
"180 742 LINE",
"242 738 OFFCURVE",
"264 730 OFFCURVE",
"265 695 CURVE SMOOTH",
"265 690 OFFCURVE",
"265 684 OFFCURVE",
"264 678 CURVE SMOOTH",
"175 -10 LINE",
"234 -10 LINE"
);
}
);
width = 1029;
}
);
leftKerningGroup = W;
rightKerningGroup = W;
unicode = 0057;
},
{
glyphname = X;
lastChange = "2018-10-18 18:01:35 +0000";
layers = (
{
layerId = master01;
paths = (
{
closed = 1;
nodes = (
"-98 23 LINE",
"-25 26 OFFCURVE",
"17 43 OFFCURVE",
"147 167 CURVE SMOOTH",
"362 373 LINE",
"292 663 LINE SMOOTH",
"279 718 OFFCURVE",
"261 737 OFFCURVE",
"182 746 CURVE",
"193 770 LINE",
"487 770 LINE",
"478 747 LINE",
"422 742 OFFCURVE",
"402 727 OFFCURVE",
"402 693 CURVE SMOOTH",
"402 682 OFFCURVE",
"404 670 OFFCURVE",
"408 655 CURVE SMOOTH",
"457 448 LINE",
"670 651 LINE SMOOTH",
"706 685 OFFCURVE",
"722 709 OFFCURVE",
"722 724 CURVE SMOOTH",
"722 740 OFFCURVE",
"703 747 OFFCURVE",
"669 747 CURVE",
"678 770 LINE",
"916 770 LINE",
"906 747 LINE",
"831 737 OFFCURVE",
"790 718 OFFCURVE",
"726 656 CURVE SMOOTH",
"467 407 LINE",
"538 116 LINE SMOOTH",
"554 51 OFFCURVE",
"575 34 OFFCURVE",
"639 23 CURVE",
"629 0 LINE",
"330 0 LINE",
"339 23 LINE",
"404 32 OFFCURVE",
"428 45 OFFCURVE",
"428 80 CURVE SMOOTH",
"428 90 OFFCURVE",
"426 101 OFFCURVE",
"423 115 CURVE SMOOTH",
"374 330 LINE",
"184 146 LINE SMOOTH",
"152 115 OFFCURVE",
"134 90 OFFCURVE",
"134 70 CURVE SMOOTH",
"134 47 OFFCURVE",
"159 31 OFFCURVE",
"212 23 CURVE",
"201 0 LINE",
"-108 0 LINE"
);
}
);
width = 744;
},
{
layerId = "5CF0B95A-6341-4D13-90DE-0CF1719C21EC";
paths = (
{
closed = 1;
nodes = (
"-98 23 LINE",
"-25 26 OFFCURVE",
"17 43 OFFCURVE",
"147 167 CURVE SMOOTH",
"362 373 LINE",
"292 663 LINE SMOOTH",
"279 718 OFFCURVE",
"261 737 OFFCURVE",
"182 746 CURVE",
"193 770 LINE",
"487 770 LINE",
"478 747 LINE",
"422 742 OFFCURVE",
"402 727 OFFCURVE",
"402 693 CURVE SMOOTH",
"402 682 OFFCURVE",
"404 670 OFFCURVE",
"408 655 CURVE SMOOTH",
"457 448 LINE",
"670 651 LINE SMOOTH",
"706 685 OFFCURVE",
"722 709 OFFCURVE",
"722 724 CURVE SMOOTH",
"722 740 OFFCURVE",
"703 747 OFFCURVE",
"669 747 CURVE",
"678 770 LINE",
"916 770 LINE",
"906 747 LINE",
"831 737 OFFCURVE",
"790 718 OFFCURVE",
"726 656 CURVE SMOOTH",
"467 407 LINE",
"538 116 LINE SMOOTH",
"554 51 OFFCURVE",
"575 34 OFFCURVE",
"639 23 CURVE",
"629 0 LINE",
"330 0 LINE",
"339 23 LINE",
"404 32 OFFCURVE",
"428 45 OFFCURVE",
"428 80 CURVE SMOOTH",
"428 90 OFFCURVE",
"426 101 OFFCURVE",
"423 115 CURVE SMOOTH",
"374 330 LINE",
"184 146 LINE SMOOTH",
"152 115 OFFCURVE",
"134 90 OFFCURVE",
"134 70 CURVE SMOOTH",
"134 47 OFFCURVE",
"159 31 OFFCURVE",
"212 23 CURVE",
"201 0 LINE",
"-108 0 LINE"
);
}
);
width = 744;
}
);
unicode = 0058;
},
{
glyphname = Y;
lastChange = "2018-10-18 18:01:35 +0000";
layers = (
{
anchors = (
{
name = topcap;
position = "{596, 830}";
}
);
layerId = master01;
paths = (
{
closed = 1;
nodes = (
"98 23 LINE",
"195 42 LINE",
"319 340 LINE",
"270 664 LINE SMOOTH",
"260 731 OFFCURVE",
"250 747 OFFCURVE",
"180 747 CURVE",
"190 770 LINE",
"472 770 LINE",
"462 747 LINE",
"406 745 OFFCURVE",
"384 731 OFFCURVE",
"384 677 CURVE SMOOTH",
"384 667 OFFCURVE",
"385 654 OFFCURVE",
"387 640 CURVE SMOOTH",
"417 394 LINE",
"686 664 LINE SMOOTH",
"708 686 OFFCURVE",
"719 703 OFFCURVE",
"719 716 CURVE SMOOTH",
"719 736 OFFCURVE",
"693 747 OFFCURVE",
"636 747 CURVE",
"645 770 LINE",
"921 770 LINE",
"908 747 LINE",
"825 742 OFFCURVE",
"794 725 OFFCURVE",
"708 638 CURVE SMOOTH",
"439 363 LINE",
"304 42 LINE",
"402 23 LINE",
"392 0 LINE",
"88 0 LINE"
);
}
);
width = 716;
},
{
anchors = (
{
name = topcap;
position = "{596, 830}";
}
);
layerId = "5CF0B95A-6341-4D13-90DE-0CF1719C21EC";
paths = (
{
closed = 1;
nodes = (
"98 23 LINE",
"195 42 LINE",
"319 340 LINE",
"270 664 LINE SMOOTH",
"260 731 OFFCURVE",
"250 747 OFFCURVE",
"180 747 CURVE",
"190 770 LINE",
"472 770 LINE",
"462 747 LINE",
"406 745 OFFCURVE",
"384 731 OFFCURVE",
"384 677 CURVE SMOOTH",
"384 667 OFFCURVE",
"385 654 OFFCURVE",
"387 640 CURVE SMOOTH",
"417 394 LINE",
"686 664 LINE SMOOTH",
"708 686 OFFCURVE",
"719 703 OFFCURVE",
"719 716 CURVE SMOOTH",
"719 736 OFFCURVE",
"693 747 OFFCURVE",
"636 747 CURVE",
"645 770 LINE",
"921 770 LINE",
"908 747 LINE",
"825 742 OFFCURVE",
"794 725 OFFCURVE",
"708 638 CURVE SMOOTH",
"439 363 LINE",
"304 42 LINE",
"402 23 LINE",
"392 0 LINE",
"88 0 LINE"
);
}
);
width = 716;
}
);
leftKerningGroup = Y;
rightKerningGroup = Y;
unicode = 0059;
},
{
glyphname = Z;
lastChange = "2018-10-18 18:01:35 +0000";
layers = (
{
anchors = (
{
name = bottom;
position = "{242, 0}";
},
{
name = topcap;
position = "{547, 830}";
}
);
layerId = master01;
paths = (
{
closed = 1;
nodes = (
"-7 51 LINE",
"618 730 LINE",
"349 730 LINE",
"284 676 OFFCURVE",
"222 611 OFFCURVE",
"177 553 CURVE",
"150 553 LINE",
"270 770 LINE",
"766 770 LINE",
"744 718 LINE",
"122 42 LINE",
"434 42 LINE",
"504 108 OFFCURVE",
"565 177 OFFCURVE",
"612 244 CURVE",
"646 244 LINE",
"523 0 LINE",
"-29 0 LINE"
);
}
);
width = 697;
},
{
anchors = (
{
name = bottom;
position = "{242, 0}";
},
{
name = topcap;
position = "{547, 830}";
}
);
layerId = "5CF0B95A-6341-4D13-90DE-0CF1719C21EC";
paths = (
{
closed = 1;
nodes = (
"-7 51 LINE",
"618 730 LINE",
"349 730 LINE",
"284 676 OFFCURVE",
"222 611 OFFCURVE",
"177 553 CURVE",
"150 553 LINE",
"270 770 LINE",
"766 770 LINE",
"744 718 LINE",
"122 42 LINE",
"434 42 LINE",
"504 108 OFFCURVE",
"565 177 OFFCURVE",
"612 244 CURVE",
"646 244 LINE",
"523 0 LINE",
"-29 0 LINE"
);
}
);
width = 697;
}
);
leftKerningGroup = Z;
rightKerningGroup = Z;
unicode = 005A;
},
{
glyphname = a;
lastChange = "2018-10-18 18:01:35 +0000";
layers = (
{
anchors = (
{
name = bottom;
position = "{347, 0}";
},
{
name = top;
position = "{431, 651}";
}
);
layerId = master01;
paths = (
{
closed = 1;
nodes = (
"408 540 OFFCURVE",
"430 527 OFFCURVE",
"454 493 CURVE",
"470 530 LINE",
"572 530 LINE",
"400 109 LINE",
"392 84 OFFCURVE",
"390 76 OFFCURVE",
"390 68 CURVE SMOOTH",
"390 56 OFFCURVE",
"396 49 OFFCURVE",
"406 49 CURVE SMOOTH",
"426 49 OFFCURVE",
"461 76 OFFCURVE",
"517 138 CURVE",
"537 124 LINE",
"467 36 OFFCURVE",
"403 -10 OFFCURVE",
"347 -10 CURVE SMOOTH",
"310 -10 OFFCURVE",
"288 9 OFFCURVE",
"288 48 CURVE SMOOTH",
"288 77 OFFCURVE",
"295 106 OFFCURVE",
"322 149 CURVE",
"316 152 LINE",
"238 38 OFFCURVE",
"177 -10 OFFCURVE",
"110 -10 CURVE SMOOTH",
"42 -10 OFFCURVE",
"0 39 OFFCURVE",
"0 122 CURVE SMOOTH",
"0 303 OFFCURVE",
"206 540 OFFCURVE",
"371 540 CURVE SMOOTH"
);
},
{
closed = 1;
nodes = (
"197 25 OFFCURVE",
"325 183 OFFCURVE",
"406 372 CURVE SMOOTH",
"426 418 OFFCURVE",
"428 439 OFFCURVE",
"428 458 CURVE SMOOTH",
"428 489 OFFCURVE",
"408 508 OFFCURVE",
"382 508 CURVE SMOOTH",
"282 508 OFFCURVE",
"92 228 OFFCURVE",
"92 83 CURVE SMOOTH",
"92 43 OFFCURVE",
"102 25 OFFCURVE",
"129 25 CURVE SMOOTH"
);
}
);
width = 604;
},
{
anchors = (
{
name = bottom;
position = "{347, 0}";
},
{
name = top;
position = "{431, 651}";
}
);
layerId = "5CF0B95A-6341-4D13-90DE-0CF1719C21EC";
paths = (
{
closed = 1;
nodes = (
"408 540 OFFCURVE",
"430 527 OFFCURVE",
"454 493 CURVE",
"470 530 LINE",
"572 530 LINE",
"400 109 LINE",
"392 84 OFFCURVE",
"390 76 OFFCURVE",
"390 68 CURVE SMOOTH",
"390 56 OFFCURVE",
"396 49 OFFCURVE",
"406 49 CURVE SMOOTH",
"426 49 OFFCURVE",
"461 76 OFFCURVE",
"517 138 CURVE",
"537 124 LINE",
"467 36 OFFCURVE",
"403 -10 OFFCURVE",
"347 -10 CURVE SMOOTH",
"310 -10 OFFCURVE",
"288 9 OFFCURVE",
"288 48 CURVE SMOOTH",
"288 77 OFFCURVE",
"295 106 OFFCURVE",
"322 149 CURVE",
"316 152 LINE",
"238 38 OFFCURVE",
"177 -10 OFFCURVE",
"110 -10 CURVE SMOOTH",
"42 -10 OFFCURVE",
"0 39 OFFCURVE",
"0 122 CURVE SMOOTH",
"0 303 OFFCURVE",
"206 540 OFFCURVE",
"371 540 CURVE SMOOTH"
);
},
{
closed = 1;
nodes = (
"197 25 OFFCURVE",
"325 183 OFFCURVE",
"406 372 CURVE SMOOTH",
"426 418 OFFCURVE",
"428 439 OFFCURVE",
"428 458 CURVE SMOOTH",
"428 489 OFFCURVE",
"408 508 OFFCURVE",
"382 508 CURVE SMOOTH",
"282 508 OFFCURVE",
"92 228 OFFCURVE",
"92 83 CURVE SMOOTH",
"92 43 OFFCURVE",
"102 25 OFFCURVE",
"129 25 CURVE SMOOTH"
);
}
);
width = 604;
}
);
leftKerningGroup = a;
rightKerningGroup = a;
unicode = 0061;
},
{
glyphname = acute;
lastChange = "2018-10-18 18:01:35 +0000";
layers = (
{
anchors = (
{
name = _top;
position = "{124, 651}";
}
);
layerId = master01;
paths = (
{
closed = 1;
nodes = (
"126 813 LINE SMOOTH",
"146 843 OFFCURVE",
"166 857 OFFCURVE",
"189 857 CURVE SMOOTH",
"217 857 OFFCURVE",
"238 839 OFFCURVE",
"238 815 CURVE SMOOTH",
"238 795 OFFCURVE",
"224 776 OFFCURVE",
"188 750 CURVE SMOOTH",
"26 631 LINE",
"10 642 LINE"
);
}
);
width = 248;
},
{
anchors = (
{
name = _top;
position = "{124, 651}";
}
);
layerId = "5CF0B95A-6341-4D13-90DE-0CF1719C21EC";
paths = (
{
closed = 1;
nodes = (
"126 813 LINE SMOOTH",
"146 843 OFFCURVE",
"166 857 OFFCURVE",
"189 857 CURVE SMOOTH",
"217 857 OFFCURVE",
"238 839 OFFCURVE",
"238 815 CURVE SMOOTH",
"238 795 OFFCURVE",
"224 776 OFFCURVE",
"188 750 CURVE SMOOTH",
"26 631 LINE",
"10 642 LINE"
);
}
);
width = 248;
}
);
unicode = 00B4;
},
{
glyphname = acute.cap;
lastChange = "2018-10-18 18:01:35 +0000";
layers = (
{
anchors = (
{
name = _topcap;
position = "{124, 830}";
}
);
layerId = master01;
paths = (
{
closed = 1;
nodes = (
"154 944 LINE SMOOTH",
"169 955 OFFCURVE",
"182 960 OFFCURVE",
"198 960 CURVE SMOOTH",
"220 960 OFFCURVE",
"241 942 OFFCURVE",
"241 917 CURVE SMOOTH",
"241 894 OFFCURVE",
"225 875 OFFCURVE",
"173 860 CURVE SMOOTH",
"21 816 LINE",
"10 837 LINE"
);
}
);
width = 248;
},
{
anchors = (
{
name = _topcap;
position = "{124, 830}";
}
);
layerId = "5CF0B95A-6341-4D13-90DE-0CF1719C21EC";
paths = (
{
closed = 1;
nodes = (
"154 944 LINE SMOOTH",
"169 955 OFFCURVE",
"182 960 OFFCURVE",
"198 960 CURVE SMOOTH",
"220 960 OFFCURVE",
"241 942 OFFCURVE",
"241 917 CURVE SMOOTH",
"241 894 OFFCURVE",
"225 875 OFFCURVE",
"173 860 CURVE SMOOTH",
"21 816 LINE",
"10 837 LINE"
);
}
);
width = 248;
}
);
},
{
glyphname = ae;
lastChange = "2018-10-18 18:01:35 +0000";
layers = (
{
layerId = master01;
paths = (
{
closed = 1;
nodes = (
"776 540 OFFCURVE",
"813 513 OFFCURVE",
"813 471 CURVE SMOOTH",
"813 387 OFFCURVE",
"673 304 OFFCURVE",
"473 269 CURVE",
"435 198 OFFCURVE",
"416 138 OFFCURVE",
"416 92 CURVE SMOOTH",
"416 46 OFFCURVE",
"435 25 OFFCURVE",
"474 25 CURVE SMOOTH",
"536 25 OFFCURVE",
"621 80 OFFCURVE",
"680 159 CURVE",
"702 145 LINE",
"620 43 OFFCURVE",
"534 -10 OFFCURVE",
"449 -10 CURVE SMOOTH",
"368 -10 OFFCURVE",
"322 38 OFFCURVE",
"322 125 CURVE SMOOTH",
"322 137 OFFCURVE",
"322 143 OFFCURVE",
"323 149 CURVE",
"317 152 LINE",
"239 38 OFFCURVE",
"178 -10 OFFCURVE",
"111 -10 CURVE SMOOTH",
"43 -10 OFFCURVE",
"1 40 OFFCURVE",
"1 121 CURVE SMOOTH {name = hr01;}",
"1 305 OFFCURVE",
"209 540 OFFCURVE",
"371 540 CURVE SMOOTH",
"408 540 OFFCURVE",
"430 528 OFFCURVE",
"455 493 CURVE",
"471 530 LINE {name = hr02;}",
"573 530 LINE",
"549 472 LINE",
"605 516 OFFCURVE",
"666 540 OFFCURVE",
"720 540 CURVE SMOOTH"
);
},
{
closed = 1;
nodes = (
"198 25 OFFCURVE",
"331 190 OFFCURVE",
"407 372 CURVE SMOOTH",
"422 408 OFFCURVE",
"429 432 OFFCURVE",
"429 452 CURVE SMOOTH",
"429 487 OFFCURVE",
"412 508 OFFCURVE",
"384 508 CURVE SMOOTH",
"282 508 OFFCURVE",
"93 230 OFFCURVE",
"93 81 CURVE SMOOTH",
"93 43 OFFCURVE",
"105 25 OFFCURVE",
"128 25 CURVE SMOOTH"
);
},
{
closed = 1;
nodes = (
"620 326 OFFCURVE",
"733 410 OFFCURVE",
"733 479 CURVE SMOOTH",
"733 499 OFFCURVE",
"723 509 OFFCURVE",
"701 509 CURVE SMOOTH",
"646 509 OFFCURVE",
"573 447 OFFCURVE",
"527 361 CURVE SMOOTH",
"495 302 LINE"
);
}
);
width = 804;
},
{
layerId = "5CF0B95A-6341-4D13-90DE-0CF1719C21EC";
paths = (
{
closed = 1;
nodes = (
"776 540 OFFCURVE",
"813 513 OFFCURVE",
"813 471 CURVE SMOOTH",
"813 387 OFFCURVE",
"673 304 OFFCURVE",
"473 269 CURVE",
"435 198 OFFCURVE",
"416 138 OFFCURVE",
"416 92 CURVE SMOOTH",
"416 46 OFFCURVE",
"435 25 OFFCURVE",
"474 25 CURVE SMOOTH",
"536 25 OFFCURVE",
"621 80 OFFCURVE",
"680 159 CURVE",
"702 145 LINE",
"620 43 OFFCURVE",
"534 -10 OFFCURVE",
"449 -10 CURVE SMOOTH",
"368 -10 OFFCURVE",
"322 38 OFFCURVE",
"322 125 CURVE SMOOTH",
"322 137 OFFCURVE",
"322 143 OFFCURVE",
"323 149 CURVE",
"317 152 LINE",
"239 38 OFFCURVE",
"178 -10 OFFCURVE",
"111 -10 CURVE SMOOTH",
"43 -10 OFFCURVE",
"1 40 OFFCURVE",
"1 121 CURVE SMOOTH {name = hr01;}",
"1 305 OFFCURVE",
"209 540 OFFCURVE",
"371 540 CURVE SMOOTH",
"408 540 OFFCURVE",
"430 528 OFFCURVE",
"455 493 CURVE",
"471 530 LINE {name = hr02;}",
"573 530 LINE",
"549 472 LINE",
"605 516 OFFCURVE",
"666 540 OFFCURVE",
"720 540 CURVE SMOOTH"
);
},
{
closed = 1;
nodes = (
"198 25 OFFCURVE",
"331 190 OFFCURVE",
"407 372 CURVE SMOOTH",
"422 408 OFFCURVE",
"429 432 OFFCURVE",
"429 452 CURVE SMOOTH",
"429 487 OFFCURVE",
"412 508 OFFCURVE",
"384 508 CURVE SMOOTH",
"282 508 OFFCURVE",
"93 230 OFFCURVE",
"93 81 CURVE SMOOTH",
"93 43 OFFCURVE",
"105 25 OFFCURVE",
"128 25 CURVE SMOOTH"
);
},
{
closed = 1;
nodes = (
"620 326 OFFCURVE",
"733 410 OFFCURVE",
"733 479 CURVE SMOOTH",
"733 499 OFFCURVE",
"723 509 OFFCURVE",
"701 509 CURVE SMOOTH",
"646 509 OFFCURVE",
"573 447 OFFCURVE",
"527 361 CURVE SMOOTH",
"495 302 LINE"
);
}
);
width = 804;
}
);
leftKerningGroup = a;
rightKerningGroup = e;
unicode = 00E6;
},
{
glyphname = ampersand;
lastChange = "2018-10-18 18:01:35 +0000";
layers = (
{
layerId = master01;
paths = (
{
closed = 1;
nodes = (
"280 88 OFFCURVE",
"158 172 OFFCURVE",
"158 294 CURVE SMOOTH",
"158 359 OFFCURVE",
"193 415 OFFCURVE",
"241 433 CURVE",
"264 414 OFFCURVE",
"295 402 OFFCURVE",
"319 402 CURVE SMOOTH",
"352 402 OFFCURVE",
"375 423 OFFCURVE",
"375 452 CURVE SMOOTH",
"375 479 OFFCURVE",
"349 498 OFFCURVE",
"312 498 CURVE SMOOTH",
"294 498 OFFCURVE",
"272 494 OFFCURVE",
"255 487 CURVE",
"243 506 OFFCURVE",
"237 536 OFFCURVE",
"237 564 CURVE SMOOTH",
"237 633 OFFCURVE",
"287 689 OFFCURVE",
"346 689 CURVE SMOOTH",
"438 689 OFFCURVE",
"358 564 OFFCURVE",
"443 564 CURVE SMOOTH",
"477 564 OFFCURVE",
"499 589 OFFCURVE",
"499 626 CURVE SMOOTH",
"499 684 OFFCURVE",
"440 733 OFFCURVE",
"368 733 CURVE SMOOTH",
"274 733 OFFCURVE",
"194 650 OFFCURVE",
"194 554 CURVE SMOOTH",
"194 520 OFFCURVE",
"204 487 OFFCURVE",
"220 464 CURVE",
"139 419 OFFCURVE",
"93 344 OFFCURVE",
"93 248 CURVE SMOOTH",
"93 94 OFFCURVE",
"223 -10 OFFCURVE",
"416 -10 CURVE SMOOTH",
"642 -10 OFFCURVE",
"832 131 OFFCURVE",
"832 311 CURVE SMOOTH",
"832 377 OFFCURVE",
"805 427 OFFCURVE",
"760 446 CURVE",
"761 450 LINE",
"905 474 OFFCURVE",
"984 539 OFFCURVE",
"984 660 CURVE SMOOTH",
"984 742 OFFCURVE",
"933 780 OFFCURVE",
"862 780 CURVE SMOOTH",
"797 780 OFFCURVE",
"745 747 OFFCURVE",
"745 701 CURVE SMOOTH",
"745 676 OFFCURVE",
"761 662 OFFCURVE",
"784 662 CURVE SMOOTH",
"827 662 OFFCURVE",
"838 714 OFFCURVE",
"885 714 CURVE SMOOTH",
"917 714 OFFCURVE",
"946 691 OFFCURVE",
"946 643 CURVE SMOOTH",
"946 546 OFFCURVE",
"851 526 OFFCURVE",
"733 507 CURVE SMOOTH",
"518 471 OFFCURVE",
"473 433 OFFCURVE",
"473 350 CURVE SMOOTH",
"473 296 OFFCURVE",
"513 268 OFFCURVE",
"547 268 CURVE SMOOTH",
"575 268 OFFCURVE",
"601 282 OFFCURVE",
"601 309 CURVE SMOOTH",
"601 364 OFFCURVE",
"523 336 OFFCURVE",
"523 381 CURVE SMOOTH",
"523 414 OFFCURVE",
"577 449 OFFCURVE",
"642 449 CURVE SMOOTH",
"722 449 OFFCURVE",
"775 404 OFFCURVE",
"775 326 CURVE SMOOTH",
"775 192 OFFCURVE",
"635 88 OFFCURVE",
"449 88 CURVE SMOOTH"
);
}
);
width = 931;
},
{
layerId = "5CF0B95A-6341-4D13-90DE-0CF1719C21EC";
paths = (
{
closed = 1;
nodes = (
"280 88 OFFCURVE",
"158 172 OFFCURVE",
"158 294 CURVE SMOOTH",
"158 359 OFFCURVE",
"193 415 OFFCURVE",
"241 433 CURVE",
"264 414 OFFCURVE",
"295 402 OFFCURVE",
"319 402 CURVE SMOOTH",
"352 402 OFFCURVE",
"375 423 OFFCURVE",
"375 452 CURVE SMOOTH",
"375 479 OFFCURVE",
"349 498 OFFCURVE",
"312 498 CURVE SMOOTH",
"294 498 OFFCURVE",
"272 494 OFFCURVE",
"255 487 CURVE",
"243 506 OFFCURVE",
"237 536 OFFCURVE",
"237 564 CURVE SMOOTH",
"237 633 OFFCURVE",
"287 689 OFFCURVE",
"346 689 CURVE SMOOTH",
"438 689 OFFCURVE",
"358 564 OFFCURVE",
"443 564 CURVE SMOOTH",
"477 564 OFFCURVE",
"499 589 OFFCURVE",
"499 626 CURVE SMOOTH",
"499 684 OFFCURVE",
"440 733 OFFCURVE",
"368 733 CURVE SMOOTH",
"274 733 OFFCURVE",
"194 650 OFFCURVE",
"194 554 CURVE SMOOTH",
"194 520 OFFCURVE",
"204 487 OFFCURVE",
"220 464 CURVE",
"139 419 OFFCURVE",
"93 344 OFFCURVE",
"93 248 CURVE SMOOTH",
"93 94 OFFCURVE",
"223 -10 OFFCURVE",
"416 -10 CURVE SMOOTH",
"642 -10 OFFCURVE",
"832 131 OFFCURVE",
"832 311 CURVE SMOOTH",
"832 377 OFFCURVE",
"805 427 OFFCURVE",
"760 446 CURVE",
"761 450 LINE",
"905 474 OFFCURVE",
"984 539 OFFCURVE",
"984 660 CURVE SMOOTH",
"984 742 OFFCURVE",
"933 780 OFFCURVE",
"862 780 CURVE SMOOTH",
"797 780 OFFCURVE",
"745 747 OFFCURVE",
"745 701 CURVE SMOOTH",
"745 676 OFFCURVE",
"761 662 OFFCURVE",
"784 662 CURVE SMOOTH",
"827 662 OFFCURVE",
"838 714 OFFCURVE",
"885 714 CURVE SMOOTH",
"917 714 OFFCURVE",
"946 691 OFFCURVE",
"946 643 CURVE SMOOTH",
"946 546 OFFCURVE",
"851 526 OFFCURVE",
"733 507 CURVE SMOOTH",
"518 471 OFFCURVE",
"473 433 OFFCURVE",
"473 350 CURVE SMOOTH",
"473 296 OFFCURVE",
"513 268 OFFCURVE",
"547 268 CURVE SMOOTH",
"575 268 OFFCURVE",
"601 282 OFFCURVE",
"601 309 CURVE SMOOTH",
"601 364 OFFCURVE",
"523 336 OFFCURVE",
"523 381 CURVE SMOOTH",
"523 414 OFFCURVE",
"577 449 OFFCURVE",
"642 449 CURVE SMOOTH",
"722 449 OFFCURVE",
"775 404 OFFCURVE",
"775 326 CURVE SMOOTH",
"775 192 OFFCURVE",
"635 88 OFFCURVE",
"449 88 CURVE SMOOTH"
);
}
);
width = 931;
}
);
unicode = 0026;
},
{
glyphname = ampersand.ss01;
lastChange = "2018-10-18 18:01:35 +0000";
layers = (
{
layerId = master01;
paths = (
{
closed = 1;
nodes = (
"894 594 OFFCURVE",
"872 624 OFFCURVE",
"840 624 CURVE SMOOTH",
"813 624 OFFCURVE",
"794 604 OFFCURVE",
"794 578 CURVE SMOOTH",
"794 542 OFFCURVE",
"829 519 OFFCURVE",
"829 484 CURVE SMOOTH",
"829 465 OFFCURVE",
"818 456 OFFCURVE",
"796 456 CURVE SMOOTH",
"730 456 OFFCURVE",
"681 540 OFFCURVE",
"586 540 CURVE SMOOTH",
"500 540 OFFCURVE",
"423 471 OFFCURVE",
"423 394 CURVE SMOOTH",
"423 355 OFFCURVE",
"443 328 OFFCURVE",
"472 328 CURVE SMOOTH",
"499 328 OFFCURVE",
"522 351 OFFCURVE",
"522 380 CURVE SMOOTH",
"522 412 OFFCURVE",
"493 415 OFFCURVE",
"493 449 CURVE SMOOTH",
"493 474 OFFCURVE",
"508 488 OFFCURVE",
"533 488 CURVE SMOOTH",
"560 488 OFFCURVE",
"595 472 OFFCURVE",
"635 441 CURVE",
"635 425 OFFCURVE",
"635 419 OFFCURVE",
"634 404 CURVE SMOOTH",
"622 220 OFFCURVE",
"500 94 OFFCURVE",
"333 94 CURVE SMOOTH",
"282 94 OFFCURVE",
"242 106 OFFCURVE",
"190 136 CURVE",
"427 615 LINE SMOOTH",
"479 720 OFFCURVE",
"497 768 OFFCURVE",
"497 801 CURVE SMOOTH",
"497 835 OFFCURVE",
"478 856 OFFCURVE",
"448 856 CURVE SMOOTH",
"413 856 OFFCURVE",
"392 830 OFFCURVE",
"392 789 CURVE SMOOTH",
"392 756 OFFCURVE",
"406 737 OFFCURVE",
"406 701 CURVE SMOOTH",
"406 663 OFFCURVE",
"391 620 OFFCURVE",
"350 540 CURVE",
"182 540 OFFCURVE",
"37 401 OFFCURVE",
"37 241 CURVE SMOOTH",
"37 97 OFFCURVE",
"153 -10 OFFCURVE",
"308 -10 CURVE SMOOTH",
"515 -10 OFFCURVE",
"672 176 OFFCURVE",
"672 423 CURVE",
"687 413 OFFCURVE",
"718 406 OFFCURVE",
"746 406 CURVE SMOOTH",
"826 406 OFFCURVE",
"894 472 OFFCURVE",
"894 550 CURVE SMOOTH"
);
},
{
closed = 1;
nodes = (
"161 160 LINE",
"116 204 OFFCURVE",
"98 240 OFFCURVE",
"98 289 CURVE SMOOTH",
"98 378 OFFCURVE",
"154 435 OFFCURVE",
"244 435 CURVE SMOOTH",
"259 435 OFFCURVE",
"276 433 OFFCURVE",
"294 430 CURVE"
);
}
);
width = 813;
},
{
layerId = "5CF0B95A-6341-4D13-90DE-0CF1719C21EC";
paths = (
{
closed = 1;
nodes = (
"894 594 OFFCURVE",
"872 624 OFFCURVE",
"840 624 CURVE SMOOTH",
"813 624 OFFCURVE",
"794 604 OFFCURVE",
"794 578 CURVE SMOOTH",
"794 542 OFFCURVE",
"829 519 OFFCURVE",
"829 484 CURVE SMOOTH",
"829 465 OFFCURVE",
"818 456 OFFCURVE",
"796 456 CURVE SMOOTH",
"730 456 OFFCURVE",
"681 540 OFFCURVE",
"586 540 CURVE SMOOTH",
"500 540 OFFCURVE",
"423 471 OFFCURVE",
"423 394 CURVE SMOOTH",
"423 355 OFFCURVE",
"443 328 OFFCURVE",
"472 328 CURVE SMOOTH",
"499 328 OFFCURVE",
"522 351 OFFCURVE",
"522 380 CURVE SMOOTH",
"522 412 OFFCURVE",
"493 415 OFFCURVE",
"493 449 CURVE SMOOTH",
"493 474 OFFCURVE",
"508 488 OFFCURVE",
"533 488 CURVE SMOOTH",
"560 488 OFFCURVE",
"595 472 OFFCURVE",
"635 441 CURVE",
"635 425 OFFCURVE",
"635 419 OFFCURVE",
"634 404 CURVE SMOOTH",
"622 220 OFFCURVE",
"500 94 OFFCURVE",
"333 94 CURVE SMOOTH",
"282 94 OFFCURVE",
"242 106 OFFCURVE",
"190 136 CURVE",
"427 615 LINE SMOOTH",
"479 720 OFFCURVE",
"497 768 OFFCURVE",
"497 801 CURVE SMOOTH",
"497 835 OFFCURVE",
"478 856 OFFCURVE",
"448 856 CURVE SMOOTH",
"413 856 OFFCURVE",
"392 830 OFFCURVE",
"392 789 CURVE SMOOTH",
"392 756 OFFCURVE",
"406 737 OFFCURVE",
"406 701 CURVE SMOOTH",
"406 663 OFFCURVE",
"391 620 OFFCURVE",
"350 540 CURVE",
"182 540 OFFCURVE",
"37 401 OFFCURVE",
"37 241 CURVE SMOOTH",
"37 97 OFFCURVE",
"153 -10 OFFCURVE",
"308 -10 CURVE SMOOTH",
"515 -10 OFFCURVE",
"672 176 OFFCURVE",
"672 423 CURVE",
"687 413 OFFCURVE",
"718 406 OFFCURVE",
"746 406 CURVE SMOOTH",
"826 406 OFFCURVE",
"894 472 OFFCURVE",
"894 550 CURVE SMOOTH"
);
},
{
closed = 1;
nodes = (
"161 160 LINE",
"116 204 OFFCURVE",
"98 240 OFFCURVE",
"98 289 CURVE SMOOTH",
"98 378 OFFCURVE",
"154 435 OFFCURVE",
"244 435 CURVE SMOOTH",
"259 435 OFFCURVE",
"276 433 OFFCURVE",
"294 430 CURVE"
);
}
);
width = 813;
}
);
},
{
glyphname = apostrophe;
lastChange = "2018-10-18 18:01:35 +0000";
layers = (
{
anchors = (
{
name = _top;
position = "{68, 651}";
}
);
layerId = master01;
paths = (
{
closed = 1;
nodes = (
"35 758 OFFCURVE",
"22 776 OFFCURVE",
"22 807 CURVE SMOOTH",
"22 838 OFFCURVE",
"46 857 OFFCURVE",
"84 857 CURVE SMOOTH",
"119 857 OFFCURVE",
"139 834 OFFCURVE",
"139 793 CURVE SMOOTH",
"139 738 OFFCURVE",
"98 677 OFFCURVE",
"27 629 CURVE",
"10 648 LINE",
"50 674 OFFCURVE",
"85 716 OFFCURVE",
"85 738 CURVE SMOOTH",
"85 747 OFFCURVE",
"83 748 OFFCURVE",
"61 752 CURVE SMOOTH"
);
}
);
width = 149;
},
{
anchors = (
{
name = _top;
position = "{68, 651}";
}
);
layerId = "5CF0B95A-6341-4D13-90DE-0CF1719C21EC";
paths = (
{
closed = 1;
nodes = (
"35 758 OFFCURVE",
"22 776 OFFCURVE",
"22 807 CURVE SMOOTH",
"22 838 OFFCURVE",
"46 857 OFFCURVE",
"84 857 CURVE SMOOTH",
"119 857 OFFCURVE",
"139 834 OFFCURVE",
"139 793 CURVE SMOOTH",
"139 738 OFFCURVE",
"98 677 OFFCURVE",
"27 629 CURVE",
"10 648 LINE",
"50 674 OFFCURVE",
"85 716 OFFCURVE",
"85 738 CURVE SMOOTH",
"85 747 OFFCURVE",
"83 748 OFFCURVE",
"61 752 CURVE SMOOTH"
);
}
);
width = 149;
}
);
unicode = 02BC;
},
{
glyphname = asciicircum;
lastChange = "2018-10-18 18:01:35 +0000";
layers = (
{
layerId = master01;
paths = (
{
closed = 1;
nodes = (
"409 711 LINE",
"445 711 LINE",
"472 332 LINE",
"436 332 LINE",
"408 649 LINE",
"404 649 LINE",
"116 332 LINE",
"68 332 LINE"
);
}
);
width = 498;
},
{
layerId = "5CF0B95A-6341-4D13-90DE-0CF1719C21EC";
paths = (
{
closed = 1;
nodes = (
"409 711 LINE",
"445 711 LINE",
"472 332 LINE",
"436 332 LINE",
"408 649 LINE",
"404 649 LINE",
"116 332 LINE",
"68 332 LINE"
);
}
);
width = 498;
}
);
unicode = 005E;
},
{
glyphname = asciitilde;
lastChange = "2018-10-18 18:01:35 +0000";
layers = (
{
layerId = master01;
paths = (
{
closed = 1;
nodes = (
"71 275 OFFCURVE",
"121 359 OFFCURVE",
"213 359 CURVE SMOOTH",
"285 359 OFFCURVE",
"337 307 OFFCURVE",
"411 307 CURVE SMOOTH",
"456 307 OFFCURVE",
"477 328 OFFCURVE",
"495 359 CURVE",
"525 359 LINE",
"509 307 OFFCURVE",
"459 223 OFFCURVE",
"367 223 CURVE SMOOTH",
"296 223 OFFCURVE",
"241 276 OFFCURVE",
"168 276 CURVE SMOOTH",
"123 276 OFFCURVE",
"103 254 OFFCURVE",
"85 223 CURVE",
"55 223 LINE"
);
}
);
width = 587;
},
{
layerId = "5CF0B95A-6341-4D13-90DE-0CF1719C21EC";
paths = (
{
closed = 1;
nodes = (
"71 275 OFFCURVE",
"121 359 OFFCURVE",
"213 359 CURVE SMOOTH",
"285 359 OFFCURVE",
"337 307 OFFCURVE",
"411 307 CURVE SMOOTH",
"456 307 OFFCURVE",
"477 328 OFFCURVE",
"495 359 CURVE",
"525 359 LINE",
"509 307 OFFCURVE",
"459 223 OFFCURVE",
"367 223 CURVE SMOOTH",
"296 223 OFFCURVE",
"241 276 OFFCURVE",
"168 276 CURVE SMOOTH",
"123 276 OFFCURVE",
"103 254 OFFCURVE",
"85 223 CURVE",
"55 223 LINE"
);
}
);
width = 587;
}
);
unicode = 007E;
},
{
glyphname = asterisk;
lastChange = "2018-10-18 18:01:35 +0000";
layers = (
{
layerId = master01;
paths = (
{
closed = 1;
nodes = (
"379 578 LINE SMOOTH",
"374 533 OFFCURVE",
"378 498 OFFCURVE",
"371 472 CURVE SMOOTH",
"365 449 OFFCURVE",
"347 432 OFFCURVE",
"323 432 CURVE SMOOTH",
"305 432 OFFCURVE",
"295 442 OFFCURVE",
"295 458 CURVE SMOOTH",
"295 491 OFFCURVE",
"330 531 OFFCURVE",
"349 579 CURVE SMOOTH",
"362 612 LINE",
"328 591 LINE SMOOTH",
"278 560 OFFCURVE",
"248 514 OFFCURVE",
"208 514 CURVE SMOOTH",
"187 514 OFFCURVE",
"176 525 OFFCURVE",
"176 541 CURVE SMOOTH",
"177 599 OFFCURVE",
"253 590 OFFCURVE",
"323 618 CURVE SMOOTH",
"356 631 LINE",
"328 644 LINE SMOOTH",
"281 666 OFFCURVE",
"219 661 OFFCURVE",
"219 696 CURVE SMOOTH",
"219 723 OFFCURVE",
"243 747 OFFCURVE",
"273 747 CURVE SMOOTH",
"313 747 OFFCURVE",
"315 702 OFFCURVE",
"351 669 CURVE SMOOTH",
"372 650 LINE",
"377 684 LINE SMOOTH",
"379 696 OFFCURVE",
"379 707 OFFCURVE",
"379 716 CURVE SMOOTH",
"379 730 OFFCURVE",
"378 742 OFFCURVE",
"378 754 CURVE SMOOTH",
"378 806 OFFCURVE",
"407 830 OFFCURVE",
"433 830 CURVE SMOOTH",
"448 830 OFFCURVE",
"460 821 OFFCURVE",
"460 803 CURVE SMOOTH",
"459 761 OFFCURVE",
"426 736 OFFCURVE",
"406 682 CURVE SMOOTH",
"394 650 LINE",
"424 670 LINE SMOOTH",
"485 710 OFFCURVE",
"508 748 OFFCURVE",
"546 748 CURVE SMOOTH",
"568 748 OFFCURVE",
"578 736 OFFCURVE",
"578 720 CURVE SMOOTH",
"578 660 OFFCURVE",
"500 671 OFFCURVE",
"433 645 CURVE SMOOTH",
"399 632 LINE",
"424 619 LINE SMOOTH",
"474 593 OFFCURVE",
"535 599 OFFCURVE",
"535 565 CURVE SMOOTH",
"535 535 OFFCURVE",
"507 515 OFFCURVE",
"481 515 CURVE SMOOTH",
"441 515 OFFCURVE",
"436 561 OFFCURVE",
"404 592 CURVE SMOOTH",
"383 612 LINE"
);
}
);
width = 487;
},
{
layerId = "5CF0B95A-6341-4D13-90DE-0CF1719C21EC";
paths = (
{
closed = 1;
nodes = (
"379 578 LINE SMOOTH",
"374 533 OFFCURVE",
"378 498 OFFCURVE",
"371 472 CURVE SMOOTH",
"365 449 OFFCURVE",
"347 432 OFFCURVE",
"323 432 CURVE SMOOTH",
"305 432 OFFCURVE",
"295 442 OFFCURVE",
"295 458 CURVE SMOOTH",
"295 491 OFFCURVE",
"330 531 OFFCURVE",
"349 579 CURVE SMOOTH",
"362 612 LINE",
"328 591 LINE SMOOTH",
"278 560 OFFCURVE",
"248 514 OFFCURVE",
"208 514 CURVE SMOOTH",
"187 514 OFFCURVE",
"176 525 OFFCURVE",
"176 541 CURVE SMOOTH",
"177 599 OFFCURVE",
"253 590 OFFCURVE",
"323 618 CURVE SMOOTH",
"356 631 LINE",
"328 644 LINE SMOOTH",
"281 666 OFFCURVE",
"219 661 OFFCURVE",
"219 696 CURVE SMOOTH",
"219 723 OFFCURVE",
"243 747 OFFCURVE",
"273 747 CURVE SMOOTH",
"313 747 OFFCURVE",
"315 702 OFFCURVE",
"351 669 CURVE SMOOTH",
"372 650 LINE",
"377 684 LINE SMOOTH",
"379 696 OFFCURVE",
"379 707 OFFCURVE",
"379 716 CURVE SMOOTH",
"379 730 OFFCURVE",
"378 742 OFFCURVE",
"378 754 CURVE SMOOTH",
"378 806 OFFCURVE",
"407 830 OFFCURVE",
"433 830 CURVE SMOOTH",
"448 830 OFFCURVE",
"460 821 OFFCURVE",
"460 803 CURVE SMOOTH",
"459 761 OFFCURVE",
"426 736 OFFCURVE",
"406 682 CURVE SMOOTH",
"394 650 LINE",
"424 670 LINE SMOOTH",
"485 710 OFFCURVE",
"508 748 OFFCURVE",
"546 748 CURVE SMOOTH",
"568 748 OFFCURVE",
"578 736 OFFCURVE",
"578 720 CURVE SMOOTH",
"578 660 OFFCURVE",
"500 671 OFFCURVE",
"433 645 CURVE SMOOTH",
"399 632 LINE",
"424 619 LINE SMOOTH",
"474 593 OFFCURVE",
"535 599 OFFCURVE",
"535 565 CURVE SMOOTH",
"535 535 OFFCURVE",
"507 515 OFFCURVE",
"481 515 CURVE SMOOTH",
"441 515 OFFCURVE",
"436 561 OFFCURVE",
"404 592 CURVE SMOOTH",
"383 612 LINE"
);
}
);
width = 487;
}
);
unicode = 002A;
},
{
glyphname = at;
lastChange = "2018-10-18 18:01:35 +0000";
layers = (
{
layerId = master01;
paths = (
{
closed = 1;
nodes = (
"590 -158 OFFCURVE",
"520 -178 OFFCURVE",
"426 -178 CURVE SMOOTH",
"238 -178 OFFCURVE",
"42 -71 OFFCURVE",
"42 169 CURVE SMOOTH",
"42 437 OFFCURVE",
"257 610 OFFCURVE",
"492 610 CURVE SMOOTH",
"703 610 OFFCURVE",
"828 466 OFFCURVE",
"828 314 CURVE SMOOTH",
"828 156 OFFCURVE",
"730 21 OFFCURVE",
"597 21 CURVE SMOOTH",
"538 21 OFFCURVE",
"502 52 OFFCURVE",
"502 107 CURVE SMOOTH",
"502 114 OFFCURVE",
"504 122 OFFCURVE",
"507 127 CURVE",
"503 128 LINE",
"452 52 OFFCURVE",
"399 34 OFFCURVE",
"350 34 CURVE SMOOTH",
"280 34 OFFCURVE",
"238 80 OFFCURVE",
"238 164 CURVE SMOOTH",
"238 273 OFFCURVE",
"364 450 OFFCURVE",
"502 450 CURVE SMOOTH",
"533 450 OFFCURVE",
"562 433 OFFCURVE",
"575 411 CURVE",
"579 411 LINE",
"590 450 LINE",
"670 450 LINE",
"589 160 LINE SMOOTH",
"584 144 OFFCURVE",
"582 130 OFFCURVE",
"582 119 CURVE SMOOTH",
"582 87 OFFCURVE",
"598 71 OFFCURVE",
"630 71 CURVE SMOOTH",
"700 71 OFFCURVE",
"778 154 OFFCURVE",
"778 309 CURVE SMOOTH",
"778 466 OFFCURVE",
"650 565 OFFCURVE",
"482 565 CURVE SMOOTH",
"264 565 OFFCURVE",
"133 376 OFFCURVE",
"133 170 CURVE SMOOTH",
"133 38 OFFCURVE",
"210 -134 OFFCURVE",
"460 -134 CURVE SMOOTH",
"542 -134 OFFCURVE",
"597 -118 OFFCURVE",
"637 -94 CURVE",
"648 -123 LINE"
);
},
{
closed = 1;
nodes = (
"457 89 OFFCURVE",
"546 248 OFFCURVE",
"546 351 CURVE SMOOTH",
"546 383 OFFCURVE",
"535 407 OFFCURVE",
"503 407 CURVE SMOOTH",
"432 407 OFFCURVE",
"325 251 OFFCURVE",
"325 160 CURVE SMOOTH",
"325 109 OFFCURVE",
"342 89 OFFCURVE",
"379 89 CURVE SMOOTH"
);
}
);
width = 920;
},
{
layerId = "5CF0B95A-6341-4D13-90DE-0CF1719C21EC";
paths = (
{
closed = 1;
nodes = (
"590 -158 OFFCURVE",
"520 -178 OFFCURVE",
"426 -178 CURVE SMOOTH",
"238 -178 OFFCURVE",
"42 -71 OFFCURVE",
"42 169 CURVE SMOOTH",
"42 437 OFFCURVE",
"257 610 OFFCURVE",
"492 610 CURVE SMOOTH",
"703 610 OFFCURVE",
"828 466 OFFCURVE",
"828 314 CURVE SMOOTH",
"828 156 OFFCURVE",
"730 21 OFFCURVE",
"597 21 CURVE SMOOTH",
"538 21 OFFCURVE",
"502 52 OFFCURVE",
"502 107 CURVE SMOOTH",
"502 114 OFFCURVE",
"504 122 OFFCURVE",
"507 127 CURVE",
"503 128 LINE",
"452 52 OFFCURVE",
"399 34 OFFCURVE",
"350 34 CURVE SMOOTH",
"280 34 OFFCURVE",
"238 80 OFFCURVE",
"238 164 CURVE SMOOTH",
"238 273 OFFCURVE",
"364 450 OFFCURVE",
"502 450 CURVE SMOOTH",
"533 450 OFFCURVE",
"562 433 OFFCURVE",
"575 411 CURVE",
"579 411 LINE",
"590 450 LINE",
"670 450 LINE",
"589 160 LINE SMOOTH",
"584 144 OFFCURVE",
"582 130 OFFCURVE",
"582 119 CURVE SMOOTH",
"582 87 OFFCURVE",
"598 71 OFFCURVE",
"630 71 CURVE SMOOTH",
"700 71 OFFCURVE",
"778 154 OFFCURVE",
"778 309 CURVE SMOOTH",
"778 466 OFFCURVE",
"650 565 OFFCURVE",
"482 565 CURVE SMOOTH",
"264 565 OFFCURVE",
"133 376 OFFCURVE",
"133 170 CURVE SMOOTH",
"133 38 OFFCURVE",
"210 -134 OFFCURVE",
"460 -134 CURVE SMOOTH",
"542 -134 OFFCURVE",
"597 -118 OFFCURVE",
"637 -94 CURVE",
"648 -123 LINE"
);
},
{
closed = 1;
nodes = (
"457 89 OFFCURVE",
"546 248 OFFCURVE",
"546 351 CURVE SMOOTH",
"546 383 OFFCURVE",
"535 407 OFFCURVE",
"503 407 CURVE SMOOTH",
"432 407 OFFCURVE",
"325 251 OFFCURVE",
"325 160 CURVE SMOOTH",
"325 109 OFFCURVE",
"342 89 OFFCURVE",
"379 89 CURVE SMOOTH"
);
}
);
width = 920;
}
);
unicode = 0040;
},
{
glyphname = b;
lastChange = "2018-10-18 18:01:35 +0000";
layers = (
{
layerId = master01;
paths = (
{
closed = 1;
nodes = (
"393 820 LINE",
"252 462 LINE",
"257 462 LINE",
"302 512 OFFCURVE",
"357 540 OFFCURVE",
"408 540 CURVE SMOOTH",
"483 540 OFFCURVE",
"532 485 OFFCURVE",
"532 386 CURVE SMOOTH",
"532 193 OFFCURVE",
"354 -10 OFFCURVE",
"177 -10 CURVE SMOOTH",
"84 -10 OFFCURVE",
"34 43 OFFCURVE",
"34 131 CURVE SMOOTH",
"34 165 OFFCURVE",
"43 205 OFFCURVE",
"61 249 CURVE SMOOTH",
"283 793 LINE",
"205 805 LINE",
"201 820 LINE {name = hr00;}"
);
},
{
closed = 1;
nodes = (
"161 253 OFFCURVE",
"116 143 OFFCURVE",
"116 82 CURVE SMOOTH",
"116 47 OFFCURVE",
"138 25 OFFCURVE",
"169 25 CURVE SMOOTH",
"270 25 OFFCURVE",
"435 269 OFFCURVE",
"435 416 CURVE SMOOTH",
"435 469 OFFCURVE",
"415 505 OFFCURVE",
"383 505 CURVE SMOOTH",
"328 505 OFFCURVE",
"241 419 OFFCURVE",
"189 310 CURVE SMOOTH"
);
}
);
width = 575;
},
{
layerId = "5CF0B95A-6341-4D13-90DE-0CF1719C21EC";
paths = (
{
closed = 1;
nodes = (
"393 820 LINE",
"252 462 LINE",
"257 462 LINE",
"302 512 OFFCURVE",
"357 540 OFFCURVE",
"408 540 CURVE SMOOTH",
"483 540 OFFCURVE",
"532 485 OFFCURVE",
"532 386 CURVE SMOOTH",
"532 193 OFFCURVE",
"354 -10 OFFCURVE",
"177 -10 CURVE SMOOTH",
"84 -10 OFFCURVE",
"34 43 OFFCURVE",
"34 131 CURVE SMOOTH",
"34 165 OFFCURVE",
"43 205 OFFCURVE",
"61 249 CURVE SMOOTH",
"283 793 LINE",
"205 805 LINE",
"201 820 LINE {name = hr00;}"
);
},
{
closed = 1;
nodes = (
"161 253 OFFCURVE",
"116 143 OFFCURVE",
"116 82 CURVE SMOOTH",
"116 47 OFFCURVE",
"138 25 OFFCURVE",
"169 25 CURVE SMOOTH",
"270 25 OFFCURVE",
"435 269 OFFCURVE",
"435 416 CURVE SMOOTH",
"435 469 OFFCURVE",
"415 505 OFFCURVE",
"383 505 CURVE SMOOTH",
"328 505 OFFCURVE",
"241 419 OFFCURVE",
"189 310 CURVE SMOOTH"
);
}
);
width = 575;
}
);
rightKerningGroup = b;
unicode = 0062;
userData = {
com.typemytype.robofont.guides = (
{
angle = 0;
isGlobal = 0;
magnetic = 5;
x = 0;
y = 508;
}
);
};
},
{
glyphname = backslash;
lastChange = "2018-10-18 18:01:35 +0000";
layers = (
{
layerId = master01;
paths = (
{
closed = 1;
nodes = (
"311 819 LINE",
"241 819 LINE",
"339 -169 LINE",
"408 -169 LINE"
);
}
);
width = 627;
},
{
layerId = "5CF0B95A-6341-4D13-90DE-0CF1719C21EC";
paths = (
{
closed = 1;
nodes = (
"311 819 LINE",
"241 819 LINE",
"339 -169 LINE",
"408 -169 LINE"
);
}
);
width = 627;
}
);
unicode = 005C;
},
{
glyphname = bar;
lastChange = "2018-10-18 18:01:35 +0000";
layers = (
{
layerId = master01;
paths = (
{
closed = 1;
nodes = (
"362 819 LINE",
"292 819 LINE",
"-28 -170 LINE",
"41 -170 LINE"
);
}
);
width = 311;
},
{
layerId = "5CF0B95A-6341-4D13-90DE-0CF1719C21EC";
paths = (
{
closed = 1;
nodes = (
"362 819 LINE",
"292 819 LINE",
"-28 -170 LINE",
"41 -170 LINE"
);
}
);
width = 311;
}
);
unicode = 007C;
},
{
glyphname = bar.tnum;
lastChange = "2018-10-18 18:01:35 +0000";
layers = (
{
layerId = master01;
paths = (
{
closed = 1;
nodes = (
"365 819 LINE",
"295 819 LINE",
"-25 -170 LINE",
"44 -170 LINE"
);
}
);
width = 340;
},
{
layerId = "5CF0B95A-6341-4D13-90DE-0CF1719C21EC";
paths = (
{
closed = 1;
nodes = (
"365 819 LINE",
"295 819 LINE",
"-25 -170 LINE",
"44 -170 LINE"
);
}
);
width = 340;
}
);
},
{
glyphname = braceleft;
lastChange = "2018-10-18 18:01:35 +0000";
layers = (
{
layerId = master01;
paths = (
{
closed = 1;
nodes = (
"132 -189 OFFCURVE",
"109 -194 OFFCURVE",
"83 -194 CURVE SMOOTH",
"17 -194 OFFCURVE",
"-14 -174 OFFCURVE",
"-14 -128 CURVE SMOOTH",
"-14 -57 OFFCURVE",
"70 76 OFFCURVE",
"108 194 CURVE SMOOTH",
"117 223 OFFCURVE",
"122 247 OFFCURVE",
"122 265 CURVE SMOOTH",
"122 304 OFFCURVE",
"100 320 OFFCURVE",
"52 320 CURVE",
"60 343 LINE",
"129 343 OFFCURVE",
"168 380 OFFCURVE",
"195 463 CURVE SMOOTH",
"220 539 OFFCURVE",
"226 641 OFFCURVE",
"246 701 CURVE SMOOTH",
"272 783 OFFCURVE",
"337 828 OFFCURVE",
"423 828 CURVE SMOOTH",
"447 828 OFFCURVE",
"465 823 OFFCURVE",
"482 815 CURVE",
"468 789 LINE",
"447 793 OFFCURVE",
"439 794 OFFCURVE",
"428 794 CURVE SMOOTH",
"385 794 OFFCURVE",
"350 757 OFFCURVE",
"332 699 CURVE SMOOTH",
"314 644 OFFCURVE",
"304 538 OFFCURVE",
"280 464 CURVE SMOOTH",
"257 393 OFFCURVE",
"221 351 OFFCURVE",
"165 332 CURVE",
"164 328 LINE",
"193 315 OFFCURVE",
"207 296 OFFCURVE",
"207 264 CURVE SMOOTH",
"207 199 OFFCURVE",
"111 21 OFFCURVE",
"83 -65 CURVE SMOOTH",
"76 -86 OFFCURVE",
"73 -103 OFFCURVE",
"73 -117 CURVE SMOOTH",
"73 -145 OFFCURVE",
"88 -157 OFFCURVE",
"119 -157 CURVE SMOOTH",
"134 -157 OFFCURVE",
"148 -155 OFFCURVE",
"162 -151 CURVE",
"159 -180 LINE"
);
}
);
width = 359;
},
{
layerId = "5CF0B95A-6341-4D13-90DE-0CF1719C21EC";
paths = (
{
closed = 1;
nodes = (
"132 -189 OFFCURVE",
"109 -194 OFFCURVE",
"83 -194 CURVE SMOOTH",
"17 -194 OFFCURVE",
"-14 -174 OFFCURVE",
"-14 -128 CURVE SMOOTH",
"-14 -57 OFFCURVE",
"70 76 OFFCURVE",
"108 194 CURVE SMOOTH",
"117 223 OFFCURVE",
"122 247 OFFCURVE",
"122 265 CURVE SMOOTH",
"122 304 OFFCURVE",
"100 320 OFFCURVE",
"52 320 CURVE",
"60 343 LINE",
"129 343 OFFCURVE",
"168 380 OFFCURVE",
"195 463 CURVE SMOOTH",
"220 539 OFFCURVE",
"226 641 OFFCURVE",
"246 701 CURVE SMOOTH",
"272 783 OFFCURVE",
"337 828 OFFCURVE",
"423 828 CURVE SMOOTH",
"447 828 OFFCURVE",
"465 823 OFFCURVE",
"482 815 CURVE",
"468 789 LINE",
"447 793 OFFCURVE",
"439 794 OFFCURVE",
"428 794 CURVE SMOOTH",
"385 794 OFFCURVE",
"350 757 OFFCURVE",
"332 699 CURVE SMOOTH",
"314 644 OFFCURVE",
"304 538 OFFCURVE",
"280 464 CURVE SMOOTH",
"257 393 OFFCURVE",
"221 351 OFFCURVE",
"165 332 CURVE",
"164 328 LINE",
"193 315 OFFCURVE",
"207 296 OFFCURVE",
"207 264 CURVE SMOOTH",
"207 199 OFFCURVE",
"111 21 OFFCURVE",
"83 -65 CURVE SMOOTH",
"76 -86 OFFCURVE",
"73 -103 OFFCURVE",
"73 -117 CURVE SMOOTH",
"73 -145 OFFCURVE",
"88 -157 OFFCURVE",
"119 -157 CURVE SMOOTH",
"134 -157 OFFCURVE",
"148 -155 OFFCURVE",
"162 -151 CURVE",
"159 -180 LINE"
);
}
);
width = 359;
}
);
unicode = 007B;
},
{
glyphname = braceright;
lastChange = "2018-10-18 18:01:35 +0000";
layers = (
{
layerId = master01;
paths = (
{
closed = 1;
nodes = (
"-81 -155 OFFCURVE",
"-69 -157 OFFCURVE",
"-54 -157 CURVE SMOOTH",
"60 -157 OFFCURVE",
"48 32 OFFCURVE",
"103 202 CURVE SMOOTH",
"126 273 OFFCURVE",
"159 308 OFFCURVE",
"216 328 CURVE",
"217 332 LINE",
"190 344 OFFCURVE",
"176 366 OFFCURVE",
"176 400 CURVE SMOOTH",
"176 474 OFFCURVE",
"265 622 OFFCURVE",
"290 699 CURVE SMOOTH",
"296 716 OFFCURVE",
"298 732 OFFCURVE",
"298 746 CURVE SMOOTH",
"298 776 OFFCURVE",
"284 794 OFFCURVE",
"254 794 CURVE SMOOTH",
"243 794 OFFCURVE",
"235 793 OFFCURVE",
"212 789 CURVE",
"214 815 LINE",
"237 823 OFFCURVE",
"259 828 OFFCURVE",
"283 828 CURVE SMOOTH",
"350 828 OFFCURVE",
"385 801 OFFCURVE",
"385 751 CURVE SMOOTH",
"385 691 OFFCURVE",
"308 569 OFFCURVE",
"273 463 CURVE SMOOTH",
"265 437 OFFCURVE",
"260 416 OFFCURVE",
"260 399 CURVE SMOOTH",
"260 361 OFFCURVE",
"282 343 OFFCURVE",
"330 343 CURVE",
"322 320 LINE",
"251 320 OFFCURVE",
"215 285 OFFCURVE",
"186 194 CURVE SMOOTH",
"157 106 OFFCURVE",
"149 2 OFFCURVE",
"126 -70 CURVE SMOOTH",
"97 -158 OFFCURVE",
"45 -194 OFFCURVE",
"-42 -194 CURVE SMOOTH",
"-68 -194 OFFCURVE",
"-87 -189 OFFCURVE",
"-108 -180 CURVE",
"-93 -151 LINE"
);
}
);
width = 358;
},
{
layerId = "5CF0B95A-6341-4D13-90DE-0CF1719C21EC";
paths = (
{
closed = 1;
nodes = (
"-81 -155 OFFCURVE",
"-69 -157 OFFCURVE",
"-54 -157 CURVE SMOOTH",
"60 -157 OFFCURVE",
"48 32 OFFCURVE",
"103 202 CURVE SMOOTH",
"126 273 OFFCURVE",
"159 308 OFFCURVE",
"216 328 CURVE",
"217 332 LINE",
"190 344 OFFCURVE",
"176 366 OFFCURVE",
"176 400 CURVE SMOOTH",
"176 474 OFFCURVE",
"265 622 OFFCURVE",
"290 699 CURVE SMOOTH",
"296 716 OFFCURVE",
"298 732 OFFCURVE",
"298 746 CURVE SMOOTH",
"298 776 OFFCURVE",
"284 794 OFFCURVE",
"254 794 CURVE SMOOTH",
"243 794 OFFCURVE",
"235 793 OFFCURVE",
"212 789 CURVE",
"214 815 LINE",
"237 823 OFFCURVE",
"259 828 OFFCURVE",
"283 828 CURVE SMOOTH",
"350 828 OFFCURVE",
"385 801 OFFCURVE",
"385 751 CURVE SMOOTH",
"385 691 OFFCURVE",
"308 569 OFFCURVE",
"273 463 CURVE SMOOTH",
"265 437 OFFCURVE",
"260 416 OFFCURVE",
"260 399 CURVE SMOOTH",
"260 361 OFFCURVE",
"282 343 OFFCURVE",
"330 343 CURVE",
"322 320 LINE",
"251 320 OFFCURVE",
"215 285 OFFCURVE",
"186 194 CURVE SMOOTH",
"157 106 OFFCURVE",
"149 2 OFFCURVE",
"126 -70 CURVE SMOOTH",
"97 -158 OFFCURVE",
"45 -194 OFFCURVE",
"-42 -194 CURVE SMOOTH",
"-68 -194 OFFCURVE",
"-87 -189 OFFCURVE",
"-108 -180 CURVE",
"-93 -151 LINE"
);
}
);
width = 358;
}
);
unicode = 007D;
},
{
glyphname = bracketleft;
lastChange = "2018-10-18 18:01:35 +0000";
layers = (
{
layerId = master01;
paths = (
{
closed = 1;
nodes = (
"292 820 LINE",
"491 820 LINE",
"481 788 LINE",
"363 788 LINE",
"57 -156 LINE",
"174 -156 LINE",
"164 -187 LINE",
"-34 -187 LINE"
);
}
);
width = 364;
},
{
layerId = "5CF0B95A-6341-4D13-90DE-0CF1719C21EC";
paths = (
{
closed = 1;
nodes = (
"292 820 LINE",
"491 820 LINE",
"481 788 LINE",
"363 788 LINE",
"57 -156 LINE",
"174 -156 LINE",
"164 -187 LINE",
"-34 -187 LINE"
);
}
);
width = 364;
}
);
unicode = 005B;
},
{
glyphname = bracketright;
lastChange = "2018-10-18 18:01:35 +0000";
layers = (
{
layerId = master01;
paths = (
{
closed = 1;
nodes = (
"-102 -156 LINE",
"16 -156 LINE",
"322 788 LINE",
"204 788 LINE",
"214 820 LINE",
"413 820 LINE",
"86 -187 LINE",
"-112 -187 LINE"
);
}
);
width = 363;
},
{
layerId = "5CF0B95A-6341-4D13-90DE-0CF1719C21EC";
paths = (
{
closed = 1;
nodes = (
"-102 -156 LINE",
"16 -156 LINE",
"322 788 LINE",
"204 788 LINE",
"214 820 LINE",
"413 820 LINE",
"86 -187 LINE",
"-112 -187 LINE"
);
}
);
width = 363;
}
);
unicode = 005D;
},
{
glyphname = breve;
lastChange = "2018-10-18 18:01:35 +0000";
layers = (
{
anchors = (
{
name = _top;
position = "{101, 651}";
}
);
layerId = master01;
paths = (
{
closed = 1;
nodes = (
"56 749 OFFCURVE",
"82 725 OFFCURVE",
"134 725 CURVE SMOOTH",
"178 725 OFFCURVE",
"222 744 OFFCURVE",
"264 790 CURVE",
"304 790 LINE",
"221 666 OFFCURVE",
"143 651 OFFCURVE",
"100 651 CURVE SMOOTH",
"54 651 OFFCURVE",
"10 673 OFFCURVE",
"10 734 CURVE SMOOTH",
"10 750 OFFCURVE",
"13 768 OFFCURVE",
"20 790 CURVE",
"55 790 LINE"
);
}
);
width = 314;
},
{
anchors = (
{
name = _top;
position = "{101, 651}";
}
);
layerId = "5CF0B95A-6341-4D13-90DE-0CF1719C21EC";
paths = (
{
closed = 1;
nodes = (
"56 749 OFFCURVE",
"82 725 OFFCURVE",
"134 725 CURVE SMOOTH",
"178 725 OFFCURVE",
"222 744 OFFCURVE",
"264 790 CURVE",
"304 790 LINE",
"221 666 OFFCURVE",
"143 651 OFFCURVE",
"100 651 CURVE SMOOTH",
"54 651 OFFCURVE",
"10 673 OFFCURVE",
"10 734 CURVE SMOOTH",
"10 750 OFFCURVE",
"13 768 OFFCURVE",
"20 790 CURVE",
"55 790 LINE"
);
}
);
width = 314;
}
);
unicode = 02D8;
},
{
glyphname = breve.cap;
lastChange = "2018-10-18 18:01:35 +0000";
layers = (
{
anchors = (
{
name = _topcap;
position = "{101, 830}";
}
);
layerId = master01;
paths = (
{
closed = 1;
nodes = (
"56 919 OFFCURVE",
"82 895 OFFCURVE",
"134 895 CURVE SMOOTH",
"178 895 OFFCURVE",
"222 914 OFFCURVE",
"264 960 CURVE",
"304 960 LINE",
"221 836 OFFCURVE",
"143 821 OFFCURVE",
"100 821 CURVE SMOOTH",
"54 821 OFFCURVE",
"10 843 OFFCURVE",
"10 904 CURVE SMOOTH",
"10 920 OFFCURVE",
"13 938 OFFCURVE",
"20 960 CURVE",
"55 960 LINE"
);
}
);
width = 314;
},
{
anchors = (
{
name = _topcap;
position = "{101, 830}";
}
);
layerId = "5CF0B95A-6341-4D13-90DE-0CF1719C21EC";
paths = (
{
closed = 1;
nodes = (
"56 919 OFFCURVE",
"82 895 OFFCURVE",
"134 895 CURVE SMOOTH",
"178 895 OFFCURVE",
"222 914 OFFCURVE",
"264 960 CURVE",
"304 960 LINE",
"221 836 OFFCURVE",
"143 821 OFFCURVE",
"100 821 CURVE SMOOTH",
"54 821 OFFCURVE",
"10 843 OFFCURVE",
"10 904 CURVE SMOOTH",
"10 920 OFFCURVE",
"13 938 OFFCURVE",
"20 960 CURVE",
"55 960 LINE"
);
}
);
width = 314;
}
);
},
{
glyphname = brokenbar;
lastChange = "2018-10-18 18:01:35 +0000";
layers = (
{
layerId = master01;
paths = (
{
closed = 1;
nodes = (
"345 819 LINE",
"278 819 LINE",
"153 432 LINE",
"220 432 LINE"
);
},
{
closed = 1;
nodes = (
"149 216 LINE",
"82 216 LINE",
"-42 -171 LINE",
"24 -171 LINE"
);
}
);
width = 262;
},
{
layerId = "5CF0B95A-6341-4D13-90DE-0CF1719C21EC";
paths = (
{
closed = 1;
nodes = (
"345 819 LINE",
"278 819 LINE",
"153 432 LINE",
"220 432 LINE"
);
},
{
closed = 1;
nodes = (
"149 216 LINE",
"82 216 LINE",
"-42 -171 LINE",
"24 -171 LINE"
);
}
);
width = 262;
}
);
unicode = 00A6;
},
{
glyphname = bullet;
lastChange = "2018-10-18 18:01:35 +0000";
layers = (
{
layerId = master01;
paths = (
{
closed = 1;
nodes = (
"313 490 OFFCURVE",
"368 446 OFFCURVE",
"368 388 CURVE SMOOTH",
"368 323 OFFCURVE",
"299 260 OFFCURVE",
"230 260 CURVE SMOOTH",
"160 260 OFFCURVE",
"116 302 OFFCURVE",
"116 365 CURVE SMOOTH",
"116 434 OFFCURVE",
"180 490 OFFCURVE",
"251 490 CURVE SMOOTH {name = hr00;}"
);
}
);
width = 427;
},
{
layerId = "5CF0B95A-6341-4D13-90DE-0CF1719C21EC";
paths = (
{
closed = 1;
nodes = (
"313 490 OFFCURVE",
"368 446 OFFCURVE",
"368 388 CURVE SMOOTH",
"368 323 OFFCURVE",
"299 260 OFFCURVE",
"230 260 CURVE SMOOTH",
"160 260 OFFCURVE",
"116 302 OFFCURVE",
"116 365 CURVE SMOOTH",
"116 434 OFFCURVE",
"180 490 OFFCURVE",
"251 490 CURVE SMOOTH {name = hr00;}"
);
}
);
width = 427;
}
);
unicode = 2022;
},
{
glyphname = c;
lastChange = "2018-10-18 18:01:35 +0000";
layers = (
{
anchors = (
{
name = bottom;
position = "{144, 0}";
},
{
name = top;
position = "{423, 651}";
}
);
layerId = master01;
paths = (
{
closed = 1;
nodes = (
"412 509 OFFCURVE",
"424 494 OFFCURVE",
"430 457 CURVE SMOOTH",
"435 424 OFFCURVE",
"450 409 OFFCURVE",
"476 409 CURVE SMOOTH {name = hr01;}",
"502 409 OFFCURVE",
"520 425 OFFCURVE",
"520 449 CURVE SMOOTH",
"520 499 OFFCURVE",
"468 540 OFFCURVE",
"399 540 CURVE SMOOTH",
"333 540 OFFCURVE",
"249 507 OFFCURVE",
"177 451 CURVE SMOOTH",
"72 369 OFFCURVE",
"11 252 OFFCURVE",
"10 143 CURVE SMOOTH",
"10 43 OFFCURVE",
"54 -10 OFFCURVE",
"140 -10 CURVE SMOOTH",
"227 -10 OFFCURVE",
"319 44 OFFCURVE",
"406 146 CURVE",
"384 159 LINE",
"297 70 OFFCURVE",
"224 25 OFFCURVE",
"168 25 CURVE SMOOTH",
"125 25 OFFCURVE",
"109 49 OFFCURVE",
"109 99 CURVE SMOOTH",
"109 253 OFFCURVE",
"267 509 OFFCURVE",
"387 509 CURVE SMOOTH"
);
}
);
width = 498;
},
{
anchors = (
{
name = bottom;
position = "{144, 0}";
},
{
name = top;
position = "{423, 651}";
}
);
layerId = "5CF0B95A-6341-4D13-90DE-0CF1719C21EC";
paths = (
{
closed = 1;
nodes = (
"412 509 OFFCURVE",
"424 494 OFFCURVE",
"430 457 CURVE SMOOTH",
"435 424 OFFCURVE",
"450 409 OFFCURVE",
"476 409 CURVE SMOOTH {name = hr01;}",
"502 409 OFFCURVE",
"520 425 OFFCURVE",
"520 449 CURVE SMOOTH",
"520 499 OFFCURVE",
"468 540 OFFCURVE",
"399 540 CURVE SMOOTH",
"333 540 OFFCURVE",
"249 507 OFFCURVE",
"177 451 CURVE SMOOTH",
"72 369 OFFCURVE",
"11 252 OFFCURVE",
"10 143 CURVE SMOOTH",
"10 43 OFFCURVE",
"54 -10 OFFCURVE",
"140 -10 CURVE SMOOTH",
"227 -10 OFFCURVE",
"319 44 OFFCURVE",
"406 146 CURVE",
"384 159 LINE",
"297 70 OFFCURVE",
"224 25 OFFCURVE",
"168 25 CURVE SMOOTH",
"125 25 OFFCURVE",
"109 49 OFFCURVE",
"109 99 CURVE SMOOTH",
"109 253 OFFCURVE",
"267 509 OFFCURVE",
"387 509 CURVE SMOOTH"
);
}
);
width = 498;
}
);
leftKerningGroup = c;
rightKerningGroup = c;
unicode = 0063;
},
{
glyphname = c_p;
lastChange = "2018-10-18 18:01:35 +0000";
layers = (
{
components = (
{
name = c;
}
);
layerId = master01;
paths = (
{
closed = 1;
nodes = (
"803 679 OFFCURVE",
"803 675 OFFCURVE",
"802 671 CURVE",
"782 661 OFFCURVE",
"756 655 OFFCURVE",
"730 655 CURVE SMOOTH",
"630 655 OFFCURVE",
"555 744 OFFCURVE",
"455 744 CURVE SMOOTH",
"393 744 OFFCURVE",
"355 709 OFFCURVE",
"355 652 CURVE SMOOTH",
"355 597 OFFCURVE",
"390 546 OFFCURVE",
"455 504 CURVE",
"481 516 LINE",
"429 553 OFFCURVE",
"411 575 OFFCURVE",
"411 610 CURVE SMOOTH",
"411 654 OFFCURVE",
"442 680 OFFCURVE",
"497 680 CURVE SMOOTH",
"574 680 OFFCURVE",
"619 625 OFFCURVE",
"716 625 CURVE SMOOTH",
"744 625 OFFCURVE",
"770 629 OFFCURVE",
"793 637 CURVE",
"779 604 OFFCURVE",
"750 570 OFFCURVE",
"706 533 CURVE",
"660 525 OFFCURVE",
"616 508 OFFCURVE",
"582 486 CURVE",
"590 466 LINE",
"613 482 OFFCURVE",
"648 494 OFFCURVE",
"695 503 CURVE",
"385 -223 LINE",
"305 -235 LINE",
"305 -250 LINE",
"591 -250 LINE",
"591 -232 LINE",
"489 -220 LINE",
"586 13 LINE",
"601 11 OFFCURVE",
"620 10 OFFCURVE",
"637 10 CURVE SMOOTH",
"834 10 OFFCURVE",
"1018 170 OFFCURVE",
"1018 342 CURVE SMOOTH",
"1018 453 OFFCURVE",
"941 525 OFFCURVE",
"805 540 CURVE",
"859 683 LINE",
"874 702 OFFCURVE",
"881 722 OFFCURVE",
"881 742 CURVE SMOOTH",
"881 766 OFFCURVE",
"869 780 OFFCURVE",
"847 780 CURVE SMOOTH",
"819 780 OFFCURVE",
"803 759 OFFCURVE",
"803 721 CURVE SMOOTH",
"803 683 LINE SMOOTH {name = hr00;}"
);
},
{
closed = 1;
nodes = (
"790 505 OFFCURVE",
"796 508 OFFCURVE",
"811 508 CURVE SMOOTH",
"874 508 OFFCURVE",
"914 453 OFFCURVE",
"914 366 CURVE SMOOTH",
"914 200 OFFCURVE",
"771 39 OFFCURVE",
"623 39 CURVE SMOOTH",
"606 39 OFFCURVE",
"603 39 OFFCURVE",
"597 40 CURVE",
"787 497 LINE SMOOTH"
);
}
);
width = 1069;
},
{
components = (
{
name = c;
}
);
layerId = "5CF0B95A-6341-4D13-90DE-0CF1719C21EC";
paths = (
{
closed = 1;
nodes = (
"803 679 OFFCURVE",
"803 675 OFFCURVE",
"802 671 CURVE",
"782 661 OFFCURVE",
"756 655 OFFCURVE",
"730 655 CURVE SMOOTH",
"630 655 OFFCURVE",
"555 744 OFFCURVE",
"455 744 CURVE SMOOTH",
"393 744 OFFCURVE",
"355 709 OFFCURVE",
"355 652 CURVE SMOOTH",
"355 597 OFFCURVE",
"390 546 OFFCURVE",
"455 504 CURVE",
"481 516 LINE",
"429 553 OFFCURVE",
"411 575 OFFCURVE",
"411 610 CURVE SMOOTH",
"411 654 OFFCURVE",
"442 680 OFFCURVE",
"497 680 CURVE SMOOTH",
"574 680 OFFCURVE",
"619 625 OFFCURVE",
"716 625 CURVE SMOOTH",
"744 625 OFFCURVE",
"770 629 OFFCURVE",
"793 637 CURVE",
"779 604 OFFCURVE",
"750 570 OFFCURVE",
"706 533 CURVE",
"660 525 OFFCURVE",
"616 508 OFFCURVE",
"582 486 CURVE",
"590 466 LINE",
"613 482 OFFCURVE",
"648 494 OFFCURVE",
"695 503 CURVE",
"385 -223 LINE",
"305 -235 LINE",
"305 -250 LINE",
"591 -250 LINE",
"591 -232 LINE",
"489 -220 LINE",
"586 13 LINE",
"601 11 OFFCURVE",
"620 10 OFFCURVE",
"637 10 CURVE SMOOTH",
"834 10 OFFCURVE",
"1018 170 OFFCURVE",
"1018 342 CURVE SMOOTH",
"1018 453 OFFCURVE",
"941 525 OFFCURVE",
"805 540 CURVE",
"859 683 LINE",
"874 702 OFFCURVE",
"881 722 OFFCURVE",
"881 742 CURVE SMOOTH",
"881 766 OFFCURVE",
"869 780 OFFCURVE",
"847 780 CURVE SMOOTH",
"819 780 OFFCURVE",
"803 759 OFFCURVE",
"803 721 CURVE SMOOTH",
"803 683 LINE SMOOTH {name = hr00;}"
);
},
{
closed = 1;
nodes = (
"790 505 OFFCURVE",
"796 508 OFFCURVE",
"811 508 CURVE SMOOTH",
"874 508 OFFCURVE",
"914 453 OFFCURVE",
"914 366 CURVE SMOOTH",
"914 200 OFFCURVE",
"771 39 OFFCURVE",
"623 39 CURVE SMOOTH",
"606 39 OFFCURVE",
"603 39 OFFCURVE",
"597 40 CURVE",
"787 497 LINE SMOOTH"
);
}
);
width = 1069;
}
);
leftKerningGroup = c;
rightKerningGroup = p;
},
{
glyphname = c_t;
lastChange = "2018-10-18 18:01:35 +0000";
layers = (
{
components = (
{
name = c;
}
);
layerId = master01;
paths = (
{
closed = 1;
nodes = (
"690 498 LINE",
"586 255 LINE SMOOTH",
"526 115 OFFCURVE",
"517 81 OFFCURVE",
"517 53 CURVE SMOOTH",
"517 9 OFFCURVE",
"530 -10 OFFCURVE",
"570 -10 CURVE SMOOTH",
"628 -10 OFFCURVE",
"699 36 OFFCURVE",
"763 117 CURVE",
"743 129 LINE",
"689 73 OFFCURVE",
"659 49 OFFCURVE",
"639 49 CURVE SMOOTH",
"624 49 OFFCURVE",
"617 58 OFFCURVE",
"617 73 CURVE SMOOTH",
"617 87 OFFCURVE",
"625 104 OFFCURVE",
"711 305 CURVE SMOOTH",
"793 498 LINE",
"884 498 LINE",
"895 530 LINE",
"806 530 LINE",
"859 683 LINE",
"874 702 OFFCURVE",
"881 722 OFFCURVE",
"881 742 CURVE SMOOTH",
"881 766 OFFCURVE",
"869 780 OFFCURVE",
"847 780 CURVE SMOOTH",
"819 780 OFFCURVE",
"803 759 OFFCURVE",
"803 721 CURVE SMOOTH",
"803 683 LINE SMOOTH",
"803 679 OFFCURVE",
"803 675 OFFCURVE",
"802 671 CURVE",
"782 661 OFFCURVE",
"756 655 OFFCURVE",
"730 655 CURVE SMOOTH",
"630 655 OFFCURVE",
"555 744 OFFCURVE",
"455 744 CURVE SMOOTH",
"393 744 OFFCURVE",
"355 709 OFFCURVE",
"355 652 CURVE SMOOTH",
"355 597 OFFCURVE",
"390 546 OFFCURVE",
"455 504 CURVE",
"481 516 LINE",
"429 553 OFFCURVE",
"411 575 OFFCURVE",
"411 610 CURVE SMOOTH",
"411 654 OFFCURVE",
"442 680 OFFCURVE",
"497 680 CURVE SMOOTH",
"574 680 OFFCURVE",
"619 625 OFFCURVE",
"716 625 CURVE SMOOTH",
"744 625 OFFCURVE",
"770 629 OFFCURVE",
"793 637 CURVE",
"778 603 OFFCURVE",
"748 567 OFFCURVE",
"705 530 CURVE",
"619 530 LINE",
"608 498 LINE {name = hr00;}"
);
}
);
width = 846;
},
{
components = (
{
name = c;
}
);
layerId = "5CF0B95A-6341-4D13-90DE-0CF1719C21EC";
paths = (
{
closed = 1;
nodes = (
"690 498 LINE",
"586 255 LINE SMOOTH",
"526 115 OFFCURVE",
"517 81 OFFCURVE",
"517 53 CURVE SMOOTH",
"517 9 OFFCURVE",
"530 -10 OFFCURVE",
"570 -10 CURVE SMOOTH",
"628 -10 OFFCURVE",
"699 36 OFFCURVE",
"763 117 CURVE",
"743 129 LINE",
"689 73 OFFCURVE",
"659 49 OFFCURVE",
"639 49 CURVE SMOOTH",
"624 49 OFFCURVE",
"617 58 OFFCURVE",
"617 73 CURVE SMOOTH",
"617 87 OFFCURVE",
"625 104 OFFCURVE",
"711 305 CURVE SMOOTH",
"793 498 LINE",
"884 498 LINE",
"895 530 LINE",
"806 530 LINE",
"859 683 LINE",
"874 702 OFFCURVE",
"881 722 OFFCURVE",
"881 742 CURVE SMOOTH",
"881 766 OFFCURVE",
"869 780 OFFCURVE",
"847 780 CURVE SMOOTH",
"819 780 OFFCURVE",
"803 759 OFFCURVE",
"803 721 CURVE SMOOTH",
"803 683 LINE SMOOTH",
"803 679 OFFCURVE",
"803 675 OFFCURVE",
"802 671 CURVE",
"782 661 OFFCURVE",
"756 655 OFFCURVE",
"730 655 CURVE SMOOTH",
"630 655 OFFCURVE",
"555 744 OFFCURVE",
"455 744 CURVE SMOOTH",
"393 744 OFFCURVE",
"355 709 OFFCURVE",
"355 652 CURVE SMOOTH",
"355 597 OFFCURVE",
"390 546 OFFCURVE",
"455 504 CURVE",
"481 516 LINE",
"429 553 OFFCURVE",
"411 575 OFFCURVE",
"411 610 CURVE SMOOTH",
"411 654 OFFCURVE",
"442 680 OFFCURVE",
"497 680 CURVE SMOOTH",
"574 680 OFFCURVE",
"619 625 OFFCURVE",
"716 625 CURVE SMOOTH",
"744 625 OFFCURVE",
"770 629 OFFCURVE",
"793 637 CURVE",
"778 603 OFFCURVE",
"748 567 OFFCURVE",
"705 530 CURVE",
"619 530 LINE",
"608 498 LINE {name = hr00;}"
);
}
);
width = 846;
}
);
leftKerningGroup = c;
rightKerningGroup = t;
},
{
glyphname = caron;
lastChange = "2018-10-18 18:01:35 +0000";
layers = (
{
anchors = (
{
name = _top;
position = "{77, 651}";
}
);
layerId = master01;
paths = (
{
closed = 1;
nodes = (
"95 628 OFFCURVE",
"116 637 OFFCURVE",
"134 657 CURVE SMOOTH",
"305 845 LINE",
"286 857 LINE",
"103 716 LINE",
"33 857 LINE",
"10 845 LINE",
"26 657 LINE SMOOTH",
"28 638 OFFCURVE",
"37 628 OFFCURVE",
"66 628 CURVE SMOOTH"
);
}
);
width = 315;
},
{
anchors = (
{
name = _top;
position = "{77, 651}";
}
);
layerId = "5CF0B95A-6341-4D13-90DE-0CF1719C21EC";
paths = (
{
closed = 1;
nodes = (
"95 628 OFFCURVE",
"116 637 OFFCURVE",
"134 657 CURVE SMOOTH",
"305 845 LINE",
"286 857 LINE",
"103 716 LINE",
"33 857 LINE",
"10 845 LINE",
"26 657 LINE SMOOTH",
"28 638 OFFCURVE",
"37 628 OFFCURVE",
"66 628 CURVE SMOOTH"
);
}
);
width = 315;
}
);
unicode = 02C7;
},
{
glyphname = caron.alt;
lastChange = "2018-10-18 18:01:35 +0000";
layers = (
{
anchors = (
{
name = _top;
position = "{53, 651}";
}
);
layerId = master01;
paths = (
{
closed = 1;
nodes = (
"62 811 LINE SMOOTH",
"72 844 OFFCURVE",
"90 857 OFFCURVE",
"112 857 CURVE SMOOTH",
"143 857 OFFCURVE",
"154 839 OFFCURVE",
"154 817 CURVE SMOOTH",
"154 804 OFFCURVE",
"149 792 OFFCURVE",
"135 773 CURVE SMOOTH",
"35 642 LINE",
"10 642 LINE"
);
}
);
width = 164;
},
{
anchors = (
{
name = _top;
position = "{53, 651}";
}
);
layerId = "5CF0B95A-6341-4D13-90DE-0CF1719C21EC";
paths = (
{
closed = 1;
nodes = (
"62 811 LINE SMOOTH",
"72 844 OFFCURVE",
"90 857 OFFCURVE",
"112 857 CURVE SMOOTH",
"143 857 OFFCURVE",
"154 839 OFFCURVE",
"154 817 CURVE SMOOTH",
"154 804 OFFCURVE",
"149 792 OFFCURVE",
"135 773 CURVE SMOOTH",
"35 642 LINE",
"10 642 LINE"
);
}
);
width = 164;
}
);
},
{
glyphname = caron.cap;
lastChange = "2018-10-18 18:01:35 +0000";
layers = (
{
anchors = (
{
name = _topcap;
position = "{104, 830}";
}
);
layerId = master01;
paths = (
{
closed = 1;
nodes = (
"133 820 OFFCURVE",
"148 830 OFFCURVE",
"172 847 CURVE SMOOTH",
"304 943 LINE",
"292 960 LINE",
"127 892 LINE",
"36 960 LINE",
"10 943 LINE",
"64 847 LINE SMOOTH",
"75 828 OFFCURVE",
"85 820 OFFCURVE",
"108 820 CURVE SMOOTH"
);
}
);
width = 315;
},
{
anchors = (
{
name = _topcap;
position = "{104, 830}";
}
);
layerId = "5CF0B95A-6341-4D13-90DE-0CF1719C21EC";
paths = (
{
closed = 1;
nodes = (
"133 820 OFFCURVE",
"148 830 OFFCURVE",
"172 847 CURVE SMOOTH",
"304 943 LINE",
"292 960 LINE",
"127 892 LINE",
"36 960 LINE",
"10 943 LINE",
"64 847 LINE SMOOTH",
"75 828 OFFCURVE",
"85 820 OFFCURVE",
"108 820 CURVE SMOOTH"
);
}
);
width = 315;
}
);
},
{
glyphname = cedilla;
lastChange = "2018-10-18 18:01:35 +0000";
layers = (
{
anchors = (
{
name = _bottom;
position = "{147, 0}";
}
);
layerId = master01;
paths = (
{
closed = 1;
nodes = (
"-16 -248 OFFCURVE",
"9 -257 OFFCURVE",
"43 -257 CURVE SMOOTH",
"133 -257 OFFCURVE",
"213 -196 OFFCURVE",
"213 -128 CURVE SMOOTH",
"213 -84 OFFCURVE",
"181 -58 OFFCURVE",
"125 -58 CURVE",
"182 17 LINE",
"142 17 LINE",
"33 -121 LINE",
"41 -134 LINE",
"53 -126 OFFCURVE",
"70 -122 OFFCURVE",
"89 -122 CURVE SMOOTH",
"118 -122 OFFCURVE",
"131 -133 OFFCURVE",
"131 -156 CURVE SMOOTH",
"131 -197 OFFCURVE",
"92 -226 OFFCURVE",
"42 -226 CURVE SMOOTH",
"21 -226 OFFCURVE",
"5 -221 OFFCURVE",
"-10 -210 CURVE",
"-27 -233 LINE"
);
}
);
width = 230;
},
{
anchors = (
{
name = _bottom;
position = "{147, 0}";
}
);
layerId = "5CF0B95A-6341-4D13-90DE-0CF1719C21EC";
paths = (
{
closed = 1;
nodes = (
"-16 -248 OFFCURVE",
"9 -257 OFFCURVE",
"43 -257 CURVE SMOOTH",
"133 -257 OFFCURVE",
"213 -196 OFFCURVE",
"213 -128 CURVE SMOOTH",
"213 -84 OFFCURVE",
"181 -58 OFFCURVE",
"125 -58 CURVE",
"182 17 LINE",
"142 17 LINE",
"33 -121 LINE",
"41 -134 LINE",
"53 -126 OFFCURVE",
"70 -122 OFFCURVE",
"89 -122 CURVE SMOOTH",
"118 -122 OFFCURVE",
"131 -133 OFFCURVE",
"131 -156 CURVE SMOOTH",
"131 -197 OFFCURVE",
"92 -226 OFFCURVE",
"42 -226 CURVE SMOOTH",
"21 -226 OFFCURVE",
"5 -221 OFFCURVE",
"-10 -210 CURVE",
"-27 -233 LINE"
);
}
);
width = 230;
}
);
unicode = 00B8;
},
{
glyphname = cent;
lastChange = "2018-10-18 18:01:35 +0000";
layers = (
{
layerId = master01;
paths = (
{
closed = 1;
nodes = (
"438 686 LINE",
"377 538 LINE",
"316 531 OFFCURVE",
"244 499 OFFCURVE",
"182 451 CURVE SMOOTH",
"77 369 OFFCURVE",
"16 252 OFFCURVE",
"15 143 CURVE SMOOTH",
"15 43 OFFCURVE",
"59 -10 OFFCURVE",
"148 -10 CURVE",
"90 -150 LINE",
"135 -150 LINE",
"196 -4 LINE",
"267 12 OFFCURVE",
"341 63 OFFCURVE",
"411 146 CURVE",
"389 159 LINE",
"320 88 OFFCURVE",
"260 46 OFFCURVE",
"210 31 CURVE",
"408 506 LINE",
"422 500 OFFCURVE",
"430 485 OFFCURVE",
"435 457 CURVE SMOOTH",
"440 424 OFFCURVE",
"455 409 OFFCURVE",
"481 409 CURVE SMOOTH {name = hr01;}",
"507 409 OFFCURVE",
"525 425 OFFCURVE",
"525 449 CURVE SMOOTH",
"525 494 OFFCURVE",
"481 532 OFFCURVE",
"422 539 CURVE",
"483 686 LINE"
);
},
{
closed = 1;
nodes = (
"114 240 OFFCURVE",
"247 468 OFFCURVE",
"362 504 CURVE",
"163 25 LINE",
"127 29 OFFCURVE",
"114 53 OFFCURVE",
"114 99 CURVE SMOOTH"
);
}
);
width = 521;
},
{
layerId = "5CF0B95A-6341-4D13-90DE-0CF1719C21EC";
paths = (
{
closed = 1;
nodes = (
"438 686 LINE",
"377 538 LINE",
"316 531 OFFCURVE",
"244 499 OFFCURVE",
"182 451 CURVE SMOOTH",
"77 369 OFFCURVE",
"16 252 OFFCURVE",
"15 143 CURVE SMOOTH",
"15 43 OFFCURVE",
"59 -10 OFFCURVE",
"148 -10 CURVE",
"90 -150 LINE",
"135 -150 LINE",
"196 -4 LINE",
"267 12 OFFCURVE",
"341 63 OFFCURVE",
"411 146 CURVE",
"389 159 LINE",
"320 88 OFFCURVE",
"260 46 OFFCURVE",
"210 31 CURVE",
"408 506 LINE",
"422 500 OFFCURVE",
"430 485 OFFCURVE",
"435 457 CURVE SMOOTH",
"440 424 OFFCURVE",
"455 409 OFFCURVE",
"481 409 CURVE SMOOTH {name = hr01;}",
"507 409 OFFCURVE",
"525 425 OFFCURVE",
"525 449 CURVE SMOOTH",
"525 494 OFFCURVE",
"481 532 OFFCURVE",
"422 539 CURVE",
"483 686 LINE"
);
},
{
closed = 1;
nodes = (
"114 240 OFFCURVE",
"247 468 OFFCURVE",
"362 504 CURVE",
"163 25 LINE",
"127 29 OFFCURVE",
"114 53 OFFCURVE",
"114 99 CURVE SMOOTH"
);
}
);
width = 521;
}
);
unicode = 00A2;
},
{
glyphname = cent.tnum;
lastChange = "2018-10-18 18:01:35 +0000";
layers = (
{
layerId = master01;
paths = (
{
closed = 1;
nodes = (
"441 686 LINE",
"380 538 LINE",
"319 531 OFFCURVE",
"247 499 OFFCURVE",
"185 451 CURVE SMOOTH",
"80 369 OFFCURVE",
"19 252 OFFCURVE",
"18 143 CURVE SMOOTH",
"18 43 OFFCURVE",
"62 -10 OFFCURVE",
"151 -10 CURVE",
"93 -150 LINE",
"138 -150 LINE",
"199 -4 LINE",
"270 12 OFFCURVE",
"344 63 OFFCURVE",
"414 146 CURVE",
"392 159 LINE",
"323 88 OFFCURVE",
"263 46 OFFCURVE",
"213 31 CURVE",
"411 506 LINE",
"425 500 OFFCURVE",
"433 485 OFFCURVE",
"438 457 CURVE SMOOTH",
"443 424 OFFCURVE",
"458 409 OFFCURVE",
"484 409 CURVE SMOOTH",
"510 409 OFFCURVE",
"528 425 OFFCURVE",
"528 449 CURVE SMOOTH",
"528 494 OFFCURVE",
"484 532 OFFCURVE",
"425 539 CURVE",
"486 686 LINE {name = hr00;}"
);
},
{
closed = 1;
nodes = (
"117 240 OFFCURVE",
"250 468 OFFCURVE",
"365 504 CURVE",
"166 25 LINE",
"130 29 OFFCURVE",
"117 53 OFFCURVE",
"117 99 CURVE SMOOTH"
);
}
);
width = 496;
},
{
layerId = "5CF0B95A-6341-4D13-90DE-0CF1719C21EC";
paths = (
{
closed = 1;
nodes = (
"441 686 LINE",
"380 538 LINE",
"319 531 OFFCURVE",
"247 499 OFFCURVE",
"185 451 CURVE SMOOTH",
"80 369 OFFCURVE",
"19 252 OFFCURVE",
"18 143 CURVE SMOOTH",
"18 43 OFFCURVE",
"62 -10 OFFCURVE",
"151 -10 CURVE",
"93 -150 LINE",
"138 -150 LINE",
"199 -4 LINE",
"270 12 OFFCURVE",
"344 63 OFFCURVE",
"414 146 CURVE",
"392 159 LINE",
"323 88 OFFCURVE",
"263 46 OFFCURVE",
"213 31 CURVE",
"411 506 LINE",
"425 500 OFFCURVE",
"433 485 OFFCURVE",
"438 457 CURVE SMOOTH",
"443 424 OFFCURVE",
"458 409 OFFCURVE",
"484 409 CURVE SMOOTH",
"510 409 OFFCURVE",
"528 425 OFFCURVE",
"528 449 CURVE SMOOTH",
"528 494 OFFCURVE",
"484 532 OFFCURVE",
"425 539 CURVE",
"486 686 LINE {name = hr00;}"
);
},
{
closed = 1;
nodes = (
"117 240 OFFCURVE",
"250 468 OFFCURVE",
"365 504 CURVE",
"166 25 LINE",
"130 29 OFFCURVE",
"117 53 OFFCURVE",
"117 99 CURVE SMOOTH"
);
}
);
width = 496;
}
);
},
{
glyphname = circumflex;
lastChange = "2018-10-18 18:01:35 +0000";
layers = (
{
anchors = (
{
name = _top;
position = "{164, 651}";
}
);
layerId = master01;
paths = (
{
closed = 1;
nodes = (
"220 857 OFFCURVE",
"199 848 OFFCURVE",
"181 828 CURVE SMOOTH",
"10 640 LINE",
"29 628 LINE",
"212 769 LINE",
"282 628 LINE",
"305 640 LINE",
"289 828 LINE SMOOTH",
"287 847 OFFCURVE",
"278 857 OFFCURVE",
"249 857 CURVE SMOOTH"
);
}
);
width = 315;
},
{
anchors = (
{
name = _top;
position = "{164, 651}";
}
);
layerId = "5CF0B95A-6341-4D13-90DE-0CF1719C21EC";
paths = (
{
closed = 1;
nodes = (
"220 857 OFFCURVE",
"199 848 OFFCURVE",
"181 828 CURVE SMOOTH",
"10 640 LINE",
"29 628 LINE",
"212 769 LINE",
"282 628 LINE",
"305 640 LINE",
"289 828 LINE SMOOTH",
"287 847 OFFCURVE",
"278 857 OFFCURVE",
"249 857 CURVE SMOOTH"
);
}
);
width = 315;
}
);
unicode = 02C6;
},
{
glyphname = circumflex.cap;
lastChange = "2018-10-18 18:01:35 +0000";
layers = (
{
anchors = (
{
name = _topcap;
position = "{164, 830}";
}
);
layerId = master01;
paths = (
{
closed = 1;
nodes = (
"181 960 OFFCURVE",
"166 950 OFFCURVE",
"142 933 CURVE SMOOTH",
"10 837 LINE",
"22 820 LINE",
"187 888 LINE",
"278 820 LINE",
"304 837 LINE",
"250 933 LINE SMOOTH",
"239 952 OFFCURVE",
"229 960 OFFCURVE",
"206 960 CURVE SMOOTH"
);
}
);
width = 314;
},
{
anchors = (
{
name = _topcap;
position = "{164, 830}";
}
);
layerId = "5CF0B95A-6341-4D13-90DE-0CF1719C21EC";
paths = (
{
closed = 1;
nodes = (
"181 960 OFFCURVE",
"166 950 OFFCURVE",
"142 933 CURVE SMOOTH",
"10 837 LINE",
"22 820 LINE",
"187 888 LINE",
"278 820 LINE",
"304 837 LINE",
"250 933 LINE SMOOTH",
"239 952 OFFCURVE",
"229 960 OFFCURVE",
"206 960 CURVE SMOOTH"
);
}
);
width = 314;
}
);
},
{
glyphname = colon;
lastChange = "2018-10-18 18:01:35 +0000";
layers = (
{
layerId = master01;
paths = (
{
closed = 1;
nodes = (
"128 137 OFFCURVE",
"163 109 OFFCURVE",
"163 72 CURVE SMOOTH",
"163 30 OFFCURVE",
"119 -10 OFFCURVE",
"75 -10 CURVE SMOOTH",
"30 -10 OFFCURVE",
"2 17 OFFCURVE",
"2 57 CURVE SMOOTH",
"2 101 OFFCURVE",
"43 137 OFFCURVE",
"88 137 CURVE SMOOTH"
);
},
{
closed = 1;
nodes = (
"247 501 OFFCURVE",
"282 473 OFFCURVE",
"282 436 CURVE SMOOTH",
"282 394 OFFCURVE",
"238 354 OFFCURVE",
"194 354 CURVE SMOOTH",
"149 354 OFFCURVE",
"121 381 OFFCURVE",
"121 421 CURVE SMOOTH",
"121 465 OFFCURVE",
"162 501 OFFCURVE",
"207 501 CURVE SMOOTH"
);
}
);
width = 327;
},
{
layerId = "5CF0B95A-6341-4D13-90DE-0CF1719C21EC";
paths = (
{
closed = 1;
nodes = (
"128 137 OFFCURVE",
"163 109 OFFCURVE",
"163 72 CURVE SMOOTH",
"163 30 OFFCURVE",
"119 -10 OFFCURVE",
"75 -10 CURVE SMOOTH",
"30 -10 OFFCURVE",
"2 17 OFFCURVE",
"2 57 CURVE SMOOTH",
"2 101 OFFCURVE",
"43 137 OFFCURVE",
"88 137 CURVE SMOOTH"
);
},
{
closed = 1;
nodes = (
"247 501 OFFCURVE",
"282 473 OFFCURVE",
"282 436 CURVE SMOOTH",
"282 394 OFFCURVE",
"238 354 OFFCURVE",
"194 354 CURVE SMOOTH",
"149 354 OFFCURVE",
"121 381 OFFCURVE",
"121 421 CURVE SMOOTH",
"121 465 OFFCURVE",
"162 501 OFFCURVE",
"207 501 CURVE SMOOTH"
);
}
);
width = 327;
}
);
leftKerningGroup = colon;
rightKerningGroup = colon;
unicode = 003A;
},
{
glyphname = colon.tnum;
lastChange = "2018-10-18 18:01:35 +0000";
layers = (
{
layerId = master01;
paths = (
{
closed = 1;
nodes = (
"146 137 OFFCURVE",
"181 109 OFFCURVE",
"181 72 CURVE SMOOTH",
"181 30 OFFCURVE",
"137 -10 OFFCURVE",
"93 -10 CURVE SMOOTH",
"48 -10 OFFCURVE",
"20 17 OFFCURVE",
"20 57 CURVE SMOOTH",
"20 101 OFFCURVE",
"61 137 OFFCURVE",
"106 137 CURVE SMOOTH"
);
},
{
closed = 1;
nodes = (
"265 501 OFFCURVE",
"300 473 OFFCURVE",
"300 436 CURVE SMOOTH",
"300 394 OFFCURVE",
"256 354 OFFCURVE",
"212 354 CURVE SMOOTH",
"167 354 OFFCURVE",
"139 381 OFFCURVE",
"139 421 CURVE SMOOTH",
"139 465 OFFCURVE",
"180 501 OFFCURVE",
"225 501 CURVE SMOOTH"
);
}
);
width = 300;
},
{
layerId = "5CF0B95A-6341-4D13-90DE-0CF1719C21EC";
paths = (
{
closed = 1;
nodes = (
"146 137 OFFCURVE",
"181 109 OFFCURVE",
"181 72 CURVE SMOOTH",
"181 30 OFFCURVE",
"137 -10 OFFCURVE",
"93 -10 CURVE SMOOTH",
"48 -10 OFFCURVE",
"20 17 OFFCURVE",
"20 57 CURVE SMOOTH",
"20 101 OFFCURVE",
"61 137 OFFCURVE",
"106 137 CURVE SMOOTH"
);
},
{
closed = 1;
nodes = (
"265 501 OFFCURVE",
"300 473 OFFCURVE",
"300 436 CURVE SMOOTH",
"300 394 OFFCURVE",
"256 354 OFFCURVE",
"212 354 CURVE SMOOTH",
"167 354 OFFCURVE",
"139 381 OFFCURVE",
"139 421 CURVE SMOOTH",
"139 465 OFFCURVE",
"180 501 OFFCURVE",
"225 501 CURVE SMOOTH"
);
}
);
width = 300;
}
);
},
{
glyphname = comma;
lastChange = "2018-10-18 18:01:35 +0000";
layers = (
{
layerId = master01;
paths = (
{
closed = 1;
nodes = (
"-8 7 OFFCURVE",
"-27 28 OFFCURVE",
"-27 64 CURVE SMOOTH",
"-27 109 OFFCURVE",
"3 137 OFFCURVE",
"49 137 CURVE SMOOTH",
"100 137 OFFCURVE",
"129 104 OFFCURVE",
"129 45 CURVE SMOOTH",
"129 -36 OFFCURVE",
"76 -116 OFFCURVE",
"-26 -186 CURVE",
"-44 -165 LINE",
"14 -123 OFFCURVE",
"65 -55 OFFCURVE",
"65 -21 CURVE SMOOTH",
"65 -8 OFFCURVE",
"62 -6 OFFCURVE",
"30 0 CURVE SMOOTH"
);
}
);
width = 289;
},
{
layerId = "5CF0B95A-6341-4D13-90DE-0CF1719C21EC";
paths = (
{
closed = 1;
nodes = (
"-8 7 OFFCURVE",
"-27 28 OFFCURVE",
"-27 64 CURVE SMOOTH",
"-27 109 OFFCURVE",
"3 137 OFFCURVE",
"49 137 CURVE SMOOTH",
"100 137 OFFCURVE",
"129 104 OFFCURVE",
"129 45 CURVE SMOOTH",
"129 -36 OFFCURVE",
"76 -116 OFFCURVE",
"-26 -186 CURVE",
"-44 -165 LINE",
"14 -123 OFFCURVE",
"65 -55 OFFCURVE",
"65 -21 CURVE SMOOTH",
"65 -8 OFFCURVE",
"62 -6 OFFCURVE",
"30 0 CURVE SMOOTH"
);
}
);
width = 289;
}
);
leftKerningGroup = period;
rightKerningGroup = period;
unicode = 002C;
},
{
glyphname = comma.tnum;
lastChange = "2018-10-18 18:01:35 +0000";
layers = (
{
layerId = master01;
paths = (
{
closed = 1;
nodes = (
"56 7 OFFCURVE",
"37 28 OFFCURVE",
"37 64 CURVE SMOOTH",
"37 109 OFFCURVE",
"67 137 OFFCURVE",
"113 137 CURVE SMOOTH",
"164 137 OFFCURVE",
"193 104 OFFCURVE",
"193 45 CURVE SMOOTH",
"193 -36 OFFCURVE",
"140 -116 OFFCURVE",
"38 -186 CURVE",
"20 -165 LINE",
"78 -123 OFFCURVE",
"129 -55 OFFCURVE",
"129 -21 CURVE SMOOTH",
"129 -8 OFFCURVE",
"126 -6 OFFCURVE",
"94 0 CURVE SMOOTH"
);
}
);
width = 300;
},
{
layerId = "5CF0B95A-6341-4D13-90DE-0CF1719C21EC";
paths = (
{
closed = 1;
nodes = (
"56 7 OFFCURVE",
"37 28 OFFCURVE",
"37 64 CURVE SMOOTH",
"37 109 OFFCURVE",
"67 137 OFFCURVE",
"113 137 CURVE SMOOTH",
"164 137 OFFCURVE",
"193 104 OFFCURVE",
"193 45 CURVE SMOOTH",
"193 -36 OFFCURVE",
"140 -116 OFFCURVE",
"38 -186 CURVE",
"20 -165 LINE",
"78 -123 OFFCURVE",
"129 -55 OFFCURVE",
"129 -21 CURVE SMOOTH",
"129 -8 OFFCURVE",
"126 -6 OFFCURVE",
"94 0 CURVE SMOOTH"
);
}
);
width = 300;
}
);
},
{
glyphname = commaaccent;
lastChange = "2018-10-18 18:01:35 +0000";
layers = (
{
anchors = (
{
name = _bottom;
position = "{93, -10}";
}
);
layerId = master01;
paths = (
{
closed = 1;
nodes = (
"20 -154 OFFCURVE",
"10 -139 OFFCURVE",
"10 -115 CURVE SMOOTH",
"10 -78 OFFCURVE",
"31 -54 OFFCURVE",
"76 -54 CURVE SMOOTH",
"108 -54 OFFCURVE",
"126 -74 OFFCURVE",
"126 -110 CURVE SMOOTH",
"126 -161 OFFCURVE",
"81 -214 OFFCURVE",
"3 -257 CURVE",
"-12 -238 LINE",
"29 -218 OFFCURVE",
"62 -187 OFFCURVE",
"62 -171 CURVE SMOOTH",
"62 -164 OFFCURVE",
"58 -163 OFFCURVE",
"39 -159 CURVE SMOOTH"
);
}
);
width = 136;
},
{
anchors = (
{
name = _bottom;
position = "{93, -10}";
}
);
layerId = "5CF0B95A-6341-4D13-90DE-0CF1719C21EC";
paths = (
{
closed = 1;
nodes = (
"20 -154 OFFCURVE",
"10 -139 OFFCURVE",
"10 -115 CURVE SMOOTH",
"10 -78 OFFCURVE",
"31 -54 OFFCURVE",
"76 -54 CURVE SMOOTH",
"108 -54 OFFCURVE",
"126 -74 OFFCURVE",
"126 -110 CURVE SMOOTH",
"126 -161 OFFCURVE",
"81 -214 OFFCURVE",
"3 -257 CURVE",
"-12 -238 LINE",
"29 -218 OFFCURVE",
"62 -187 OFFCURVE",
"62 -171 CURVE SMOOTH",
"62 -164 OFFCURVE",
"58 -163 OFFCURVE",
"39 -159 CURVE SMOOTH"
);
}
);
width = 136;
}
);
unicode = F6C3;
},
{
glyphname = copyright;
lastChange = "2018-10-18 18:01:35 +0000";
layers = (
{
layerId = master01;
paths = (
{
closed = 1;
nodes = (
"127 168 OFFCURVE",
"305 -10 OFFCURVE",
"524 -10 CURVE SMOOTH",
"743 -10 OFFCURVE",
"921 168 OFFCURVE",
"921 385 CURVE SMOOTH",
"921 602 OFFCURVE",
"743 780 OFFCURVE",
"524 780 CURVE SMOOTH",
"305 780 OFFCURVE",
"127 602 OFFCURVE",
"127 385 CURVE SMOOTH"
);
},
{
closed = 1;
nodes = (
"174 576 OFFCURVE",
"331 732 OFFCURVE",
"524 732 CURVE SMOOTH",
"717 732 OFFCURVE",
"873 576 OFFCURVE",
"873 385 CURVE SMOOTH",
"873 194 OFFCURVE",
"717 38 OFFCURVE",
"524 38 CURVE SMOOTH",
"331 38 OFFCURVE",
"174 194 OFFCURVE",
"174 385 CURVE SMOOTH"
);
},
{
closed = 1;
nodes = (
"279 238 OFFCURVE",
"378 136 OFFCURVE",
"522 136 CURVE SMOOTH",
"575 136 OFFCURVE",
"617 152 OFFCURVE",
"660 188 CURVE",
"689 137 LINE",
"704 137 LINE",
"704 316 LINE",
"682 316 LINE",
"675 282 OFFCURVE",
"664 254 OFFCURVE",
"649 233 CURVE SMOOTH",
"623 194 OFFCURVE",
"584 174 OFFCURVE",
"536 174 CURVE SMOOTH",
"440 174 OFFCURVE",
"384 253 OFFCURVE",
"384 390 CURVE SMOOTH",
"384 527 OFFCURVE",
"438 604 OFFCURVE",
"535 604 CURVE SMOOTH",
"591 604 OFFCURVE",
"628 584 OFFCURVE",
"655 538 CURVE SMOOTH",
"667 517 OFFCURVE",
"673 502 OFFCURVE",
"680 481 CURVE",
"704 481 LINE",
"704 640 LINE",
"689 640 LINE",
"662 598 LINE",
"658 598 LINE",
"619 627 OFFCURVE",
"572 642 OFFCURVE",
"524 642 CURVE SMOOTH",
"381 642 OFFCURVE",
"279 535 OFFCURVE",
"279 386 CURVE SMOOTH"
);
}
);
width = 975;
},
{
layerId = "5CF0B95A-6341-4D13-90DE-0CF1719C21EC";
paths = (
{
closed = 1;
nodes = (
"127 168 OFFCURVE",
"305 -10 OFFCURVE",
"524 -10 CURVE SMOOTH",
"743 -10 OFFCURVE",
"921 168 OFFCURVE",
"921 385 CURVE SMOOTH",
"921 602 OFFCURVE",
"743 780 OFFCURVE",
"524 780 CURVE SMOOTH",
"305 780 OFFCURVE",
"127 602 OFFCURVE",
"127 385 CURVE SMOOTH"
);
},
{
closed = 1;
nodes = (
"174 576 OFFCURVE",
"331 732 OFFCURVE",
"524 732 CURVE SMOOTH",
"717 732 OFFCURVE",
"873 576 OFFCURVE",
"873 385 CURVE SMOOTH",
"873 194 OFFCURVE",
"717 38 OFFCURVE",
"524 38 CURVE SMOOTH",
"331 38 OFFCURVE",
"174 194 OFFCURVE",
"174 385 CURVE SMOOTH"
);
},
{
closed = 1;
nodes = (
"279 238 OFFCURVE",
"378 136 OFFCURVE",
"522 136 CURVE SMOOTH",
"575 136 OFFCURVE",
"617 152 OFFCURVE",
"660 188 CURVE",
"689 137 LINE",
"704 137 LINE",
"704 316 LINE",
"682 316 LINE",
"675 282 OFFCURVE",
"664 254 OFFCURVE",
"649 233 CURVE SMOOTH",
"623 194 OFFCURVE",
"584 174 OFFCURVE",
"536 174 CURVE SMOOTH",
"440 174 OFFCURVE",
"384 253 OFFCURVE",
"384 390 CURVE SMOOTH",
"384 527 OFFCURVE",
"438 604 OFFCURVE",
"535 604 CURVE SMOOTH",
"591 604 OFFCURVE",
"628 584 OFFCURVE",
"655 538 CURVE SMOOTH",
"667 517 OFFCURVE",
"673 502 OFFCURVE",
"680 481 CURVE",
"704 481 LINE",
"704 640 LINE",
"689 640 LINE",
"662 598 LINE",
"658 598 LINE",
"619 627 OFFCURVE",
"572 642 OFFCURVE",
"524 642 CURVE SMOOTH",
"381 642 OFFCURVE",
"279 535 OFFCURVE",
"279 386 CURVE SMOOTH"
);
}
);
width = 975;
}
);
unicode = 00A9;
},
{
glyphname = currency;
lastChange = "2018-10-18 18:01:35 +0000";
layers = (
{
layerId = master01;
paths = (
{
closed = 1;
nodes = (
"143 175 LINE",
"210 241 LINE",
"182 275 OFFCURVE",
"168 319 OFFCURVE",
"168 368 CURVE SMOOTH",
"168 416 OFFCURVE",
"182 458 OFFCURVE",
"210 494 CURVE",
"143 559 LINE",
"191 607 LINE",
"257 540 LINE",
"291 567 OFFCURVE",
"335 582 OFFCURVE",
"383 582 CURVE SMOOTH",
"429 582 OFFCURVE",
"472 568 OFFCURVE",
"510 541 CURVE",
"575 607 LINE",
"623 559 LINE",
"556 493 LINE",
"584 458 OFFCURVE",
"598 416 OFFCURVE",
"598 368 CURVE SMOOTH",
"598 321 OFFCURVE",
"584 278 OFFCURVE",
"557 241 CURVE",
"623 175 LINE",
"575 127 LINE",
"509 194 LINE",
"474 166 OFFCURVE",
"432 152 OFFCURVE",
"383 152 CURVE SMOOTH",
"335 152 OFFCURVE",
"293 166 OFFCURVE",
"257 194 CURVE",
"191 127 LINE"
);
},
{
closed = 1;
nodes = (
"462 216 OFFCURVE",
"528 284 OFFCURVE",
"528 367 CURVE SMOOTH",
"528 450 OFFCURVE",
"462 518 OFFCURVE",
"383 518 CURVE SMOOTH",
"304 518 OFFCURVE",
"238 450 OFFCURVE",
"238 368 CURVE SMOOTH",
"238 285 OFFCURVE",
"304 216 OFFCURVE",
"383 216 CURVE SMOOTH"
);
}
);
width = 710;
},
{
layerId = "5CF0B95A-6341-4D13-90DE-0CF1719C21EC";
paths = (
{
closed = 1;
nodes = (
"143 175 LINE",
"210 241 LINE",
"182 275 OFFCURVE",
"168 319 OFFCURVE",
"168 368 CURVE SMOOTH",
"168 416 OFFCURVE",
"182 458 OFFCURVE",
"210 494 CURVE",
"143 559 LINE",
"191 607 LINE",
"257 540 LINE",
"291 567 OFFCURVE",
"335 582 OFFCURVE",
"383 582 CURVE SMOOTH",
"429 582 OFFCURVE",
"472 568 OFFCURVE",
"510 541 CURVE",
"575 607 LINE",
"623 559 LINE",
"556 493 LINE",
"584 458 OFFCURVE",
"598 416 OFFCURVE",
"598 368 CURVE SMOOTH",
"598 321 OFFCURVE",
"584 278 OFFCURVE",
"557 241 CURVE",
"623 175 LINE",
"575 127 LINE",
"509 194 LINE",
"474 166 OFFCURVE",
"432 152 OFFCURVE",
"383 152 CURVE SMOOTH",
"335 152 OFFCURVE",
"293 166 OFFCURVE",
"257 194 CURVE",
"191 127 LINE"
);
},
{
closed = 1;
nodes = (
"462 216 OFFCURVE",
"528 284 OFFCURVE",
"528 367 CURVE SMOOTH",
"528 450 OFFCURVE",
"462 518 OFFCURVE",
"383 518 CURVE SMOOTH",
"304 518 OFFCURVE",
"238 450 OFFCURVE",
"238 368 CURVE SMOOTH",
"238 285 OFFCURVE",
"304 216 OFFCURVE",
"383 216 CURVE SMOOTH"
);
}
);
width = 710;
}
);
unicode = 00A4;
},
{
glyphname = d;
lastChange = "2018-10-18 18:01:35 +0000";
layers = (
{
anchors = (
{
name = bottom;
position = "{120, 0}";
}
);
layerId = master01;
paths = (
{
closed = 1;
nodes = (
"672 820 LINE",
"404 109 LINE SMOOTH",
"395 85 OFFCURVE",
"393 76 OFFCURVE",
"393 68 CURVE SMOOTH",
"393 54 OFFCURVE",
"401 49 OFFCURVE",
"411 49 CURVE SMOOTH",
"431 49 OFFCURVE",
"461 76 OFFCURVE",
"516 138 CURVE",
"536 124 LINE",
"471 36 OFFCURVE",
"409 -10 OFFCURVE",
"353 -10 CURVE SMOOTH",
"309 -10 OFFCURVE",
"292 14 OFFCURVE",
"292 62 CURVE SMOOTH",
"292 86 OFFCURVE",
"302 112 OFFCURVE",
"321 149 CURVE",
"319 152 LINE",
"239 34 OFFCURVE",
"184 -10 OFFCURVE",
"112 -10 CURVE SMOOTH",
"40 -10 OFFCURVE",
"3 33 OFFCURVE",
"3 120 CURVE SMOOTH",
"3 306 OFFCURVE",
"195 540 OFFCURVE",
"362 540 CURVE SMOOTH",
"400 540 OFFCURVE",
"422 527 OFFCURVE",
"447 493 CURVE {name = hr01;}",
"563 793 LINE",
"486 805 LINE",
"481 820 LINE"
);
},
{
closed = 1;
nodes = (
"198 25 OFFCURVE",
"324 185 OFFCURVE",
"401 372 CURVE SMOOTH",
"420 418 OFFCURVE",
"425 438 OFFCURVE",
"426 458 CURVE",
"421 489 OFFCURVE",
"405 508 OFFCURVE",
"379 508 CURVE SMOOTH",
"278 508 OFFCURVE",
"93 226 OFFCURVE",
"93 81 CURVE SMOOTH",
"93 42 OFFCURVE",
"108 25 OFFCURVE",
"130 25 CURVE SMOOTH"
);
}
);
width = 603;
},
{
anchors = (
{
name = bottom;
position = "{120, 0}";
}
);
layerId = "5CF0B95A-6341-4D13-90DE-0CF1719C21EC";
paths = (
{
closed = 1;
nodes = (
"672 820 LINE",
"404 109 LINE SMOOTH",
"395 85 OFFCURVE",
"393 76 OFFCURVE",
"393 68 CURVE SMOOTH",
"393 54 OFFCURVE",
"401 49 OFFCURVE",
"411 49 CURVE SMOOTH",
"431 49 OFFCURVE",
"461 76 OFFCURVE",
"516 138 CURVE",
"536 124 LINE",
"471 36 OFFCURVE",
"409 -10 OFFCURVE",
"353 -10 CURVE SMOOTH",
"309 -10 OFFCURVE",
"292 14 OFFCURVE",
"292 62 CURVE SMOOTH",
"292 86 OFFCURVE",
"302 112 OFFCURVE",
"321 149 CURVE",
"319 152 LINE",
"239 34 OFFCURVE",
"184 -10 OFFCURVE",
"112 -10 CURVE SMOOTH",
"40 -10 OFFCURVE",
"3 33 OFFCURVE",
"3 120 CURVE SMOOTH",
"3 306 OFFCURVE",
"195 540 OFFCURVE",
"362 540 CURVE SMOOTH",
"400 540 OFFCURVE",
"422 527 OFFCURVE",
"447 493 CURVE {name = hr01;}",
"563 793 LINE",
"486 805 LINE",
"481 820 LINE"
);
},
{
closed = 1;
nodes = (
"198 25 OFFCURVE",
"324 185 OFFCURVE",
"401 372 CURVE SMOOTH",
"420 418 OFFCURVE",
"425 438 OFFCURVE",
"426 458 CURVE",
"421 489 OFFCURVE",
"405 508 OFFCURVE",
"379 508 CURVE SMOOTH",
"278 508 OFFCURVE",
"93 226 OFFCURVE",
"93 81 CURVE SMOOTH",
"93 42 OFFCURVE",
"108 25 OFFCURVE",
"130 25 CURVE SMOOTH"
);
}
);
width = 603;
}
);
leftKerningGroup = d;
rightKerningGroup = d;
unicode = 0064;
},
{
glyphname = dagger;
lastChange = "2018-10-18 18:01:35 +0000";
layers = (
{
layerId = master01;
paths = (
{
closed = 1;
nodes = (
"196 95 OFFCURVE",
"221 208 OFFCURVE",
"230 311 CURVE",
"269 375 OFFCURVE",
"308 454 OFFCURVE",
"358 574 CURVE",
"270 574 OFFCURVE",
"239 548 OFFCURVE",
"208 548 CURVE SMOOTH",
"183 548 OFFCURVE",
"164 566 OFFCURVE",
"164 590 CURVE SMOOTH",
"164 619 OFFCURVE",
"191 639 OFFCURVE",
"228 639 CURVE SMOOTH",
"241 639 OFFCURVE",
"259 634 OFFCURVE",
"298 619 CURVE SMOOTH",
"320 610 OFFCURVE",
"337 605 OFFCURVE",
"367 600 CURVE",
"371 612 LINE SMOOTH",
"379 637 OFFCURVE",
"383 659 OFFCURVE",
"387 705 CURVE SMOOTH",
"393 776 OFFCURVE",
"393 777 OFFCURVE",
"398 791 CURVE SMOOTH",
"406 816 OFFCURVE",
"423 830 OFFCURVE",
"447 830 CURVE SMOOTH",
"473 830 OFFCURVE",
"492 812 OFFCURVE",
"492 786 CURVE SMOOTH",
"492 768 OFFCURVE",
"484 753 OFFCURVE",
"448 704 CURVE SMOOTH",
"427 674 OFFCURVE",
"412 646 OFFCURVE",
"401 612 CURVE SMOOTH",
"397 600 LINE",
"412 602 OFFCURVE",
"448 610 OFFCURVE",
"474 619 CURVE SMOOTH",
"525 636 OFFCURVE",
"537 639 OFFCURVE",
"549 639 CURVE SMOOTH",
"575 639 OFFCURVE",
"595 621 OFFCURVE",
"595 599 CURVE SMOOTH",
"595 571 OFFCURVE",
"568 548 OFFCURVE",
"535 548 CURVE SMOOTH",
"497 548 OFFCURVE",
"473 574 OFFCURVE",
"388 574 CURVE",
"360 466 OFFCURVE",
"347 384 OFFCURVE",
"346 311 CURVE",
"285 206 OFFCURVE",
"235 90 OFFCURVE",
"154 -136 CURVE",
"132 -136 LINE"
);
}
);
width = 515;
},
{
layerId = "5CF0B95A-6341-4D13-90DE-0CF1719C21EC";
paths = (
{
closed = 1;
nodes = (
"196 95 OFFCURVE",
"221 208 OFFCURVE",
"230 311 CURVE",
"269 375 OFFCURVE",
"308 454 OFFCURVE",
"358 574 CURVE",
"270 574 OFFCURVE",
"239 548 OFFCURVE",
"208 548 CURVE SMOOTH",
"183 548 OFFCURVE",
"164 566 OFFCURVE",
"164 590 CURVE SMOOTH",
"164 619 OFFCURVE",
"191 639 OFFCURVE",
"228 639 CURVE SMOOTH",
"241 639 OFFCURVE",
"259 634 OFFCURVE",
"298 619 CURVE SMOOTH",
"320 610 OFFCURVE",
"337 605 OFFCURVE",
"367 600 CURVE",
"371 612 LINE SMOOTH",
"379 637 OFFCURVE",
"383 659 OFFCURVE",
"387 705 CURVE SMOOTH",
"393 776 OFFCURVE",
"393 777 OFFCURVE",
"398 791 CURVE SMOOTH",
"406 816 OFFCURVE",
"423 830 OFFCURVE",
"447 830 CURVE SMOOTH",
"473 830 OFFCURVE",
"492 812 OFFCURVE",
"492 786 CURVE SMOOTH",
"492 768 OFFCURVE",
"484 753 OFFCURVE",
"448 704 CURVE SMOOTH",
"427 674 OFFCURVE",
"412 646 OFFCURVE",
"401 612 CURVE SMOOTH",
"397 600 LINE",
"412 602 OFFCURVE",
"448 610 OFFCURVE",
"474 619 CURVE SMOOTH",
"525 636 OFFCURVE",
"537 639 OFFCURVE",
"549 639 CURVE SMOOTH",
"575 639 OFFCURVE",
"595 621 OFFCURVE",
"595 599 CURVE SMOOTH",
"595 571 OFFCURVE",
"568 548 OFFCURVE",
"535 548 CURVE SMOOTH",
"497 548 OFFCURVE",
"473 574 OFFCURVE",
"388 574 CURVE",
"360 466 OFFCURVE",
"347 384 OFFCURVE",
"346 311 CURVE",
"285 206 OFFCURVE",
"235 90 OFFCURVE",
"154 -136 CURVE",
"132 -136 LINE"
);
}
);
width = 515;
}
);
unicode = 2020;
},
{
glyphname = daggerdbl;
lastChange = "2018-10-18 18:01:35 +0000";
layers = (
{
layerId = master01;
paths = (
{
closed = 1;
nodes = (
"285 407 OFFCURVE",
"325 474 OFFCURVE",
"367 574 CURVE",
"279 574 OFFCURVE",
"248 548 OFFCURVE",
"217 548 CURVE SMOOTH",
"192 548 OFFCURVE",
"173 566 OFFCURVE",
"173 590 CURVE SMOOTH",
"173 619 OFFCURVE",
"200 639 OFFCURVE",
"237 639 CURVE SMOOTH",
"250 639 OFFCURVE",
"268 634 OFFCURVE",
"307 619 CURVE SMOOTH",
"329 610 OFFCURVE",
"346 605 OFFCURVE",
"376 600 CURVE",
"380 612 LINE SMOOTH",
"388 637 OFFCURVE",
"392 659 OFFCURVE",
"396 705 CURVE SMOOTH",
"402 776 OFFCURVE",
"402 777 OFFCURVE",
"407 791 CURVE SMOOTH",
"415 816 OFFCURVE",
"432 830 OFFCURVE",
"456 830 CURVE SMOOTH",
"482 830 OFFCURVE",
"501 812 OFFCURVE",
"501 786 CURVE SMOOTH",
"501 767 OFFCURVE",
"493 753 OFFCURVE",
"457 704 CURVE SMOOTH",
"435 674 OFFCURVE",
"421 646 OFFCURVE",
"410 612 CURVE SMOOTH",
"406 600 LINE",
"421 602 OFFCURVE",
"457 610 OFFCURVE",
"483 619 CURVE SMOOTH",
"534 636 OFFCURVE",
"546 639 OFFCURVE",
"558 639 CURVE SMOOTH",
"584 639 OFFCURVE",
"604 621 OFFCURVE",
"604 599 CURVE SMOOTH",
"604 571 OFFCURVE",
"577 548 OFFCURVE",
"544 548 CURVE SMOOTH",
"506 548 OFFCURVE",
"482 574 OFFCURVE",
"397 574 CURVE",
"376 482 OFFCURVE",
"369 412 OFFCURVE",
"368 351 CURVE",
"332 292 OFFCURVE",
"296 222 OFFCURVE",
"250 118 CURVE",
"338 118 OFFCURVE",
"369 144 OFFCURVE",
"400 144 CURVE SMOOTH",
"425 144 OFFCURVE",
"444 126 OFFCURVE",
"444 102 CURVE SMOOTH",
"444 73 OFFCURVE",
"417 53 OFFCURVE",
"380 53 CURVE SMOOTH",
"359 53 OFFCURVE",
"327 75 OFFCURVE",
"241 92 CURVE",
"237 80 LINE SMOOTH",
"228 54 OFFCURVE",
"225 33 OFFCURVE",
"221 -13 CURVE SMOOTH",
"212 -114 OFFCURVE",
"200 -138 OFFCURVE",
"161 -138 CURVE SMOOTH",
"135 -138 OFFCURVE",
"116 -120 OFFCURVE",
"116 -94 CURVE SMOOTH",
"116 -76 OFFCURVE",
"124 -61 OFFCURVE",
"160 -12 CURVE SMOOTH",
"182 18 OFFCURVE",
"196 46 OFFCURVE",
"207 80 CURVE SMOOTH",
"211 92 LINE",
"196 90 OFFCURVE",
"159 82 OFFCURVE",
"134 73 CURVE SMOOTH",
"83 55 OFFCURVE",
"71 53 OFFCURVE",
"59 53 CURVE SMOOTH",
"33 53 OFFCURVE",
"13 70 OFFCURVE",
"13 93 CURVE SMOOTH",
"13 122 OFFCURVE",
"39 144 OFFCURVE",
"73 144 CURVE SMOOTH",
"111 144 OFFCURVE",
"135 118 OFFCURVE",
"220 118 CURVE",
"241 214 OFFCURVE",
"251 287 OFFCURVE",
"252 351 CURVE"
);
}
);
width = 569;
},
{
layerId = "5CF0B95A-6341-4D13-90DE-0CF1719C21EC";
paths = (
{
closed = 1;
nodes = (
"285 407 OFFCURVE",
"325 474 OFFCURVE",
"367 574 CURVE",
"279 574 OFFCURVE",
"248 548 OFFCURVE",
"217 548 CURVE SMOOTH",
"192 548 OFFCURVE",
"173 566 OFFCURVE",
"173 590 CURVE SMOOTH",
"173 619 OFFCURVE",
"200 639 OFFCURVE",
"237 639 CURVE SMOOTH",
"250 639 OFFCURVE",
"268 634 OFFCURVE",
"307 619 CURVE SMOOTH",
"329 610 OFFCURVE",
"346 605 OFFCURVE",
"376 600 CURVE",
"380 612 LINE SMOOTH",
"388 637 OFFCURVE",
"392 659 OFFCURVE",
"396 705 CURVE SMOOTH",
"402 776 OFFCURVE",
"402 777 OFFCURVE",
"407 791 CURVE SMOOTH",
"415 816 OFFCURVE",
"432 830 OFFCURVE",
"456 830 CURVE SMOOTH",
"482 830 OFFCURVE",
"501 812 OFFCURVE",
"501 786 CURVE SMOOTH",
"501 767 OFFCURVE",
"493 753 OFFCURVE",
"457 704 CURVE SMOOTH",
"435 674 OFFCURVE",
"421 646 OFFCURVE",
"410 612 CURVE SMOOTH",
"406 600 LINE",
"421 602 OFFCURVE",
"457 610 OFFCURVE",
"483 619 CURVE SMOOTH",
"534 636 OFFCURVE",
"546 639 OFFCURVE",
"558 639 CURVE SMOOTH",
"584 639 OFFCURVE",
"604 621 OFFCURVE",
"604 599 CURVE SMOOTH",
"604 571 OFFCURVE",
"577 548 OFFCURVE",
"544 548 CURVE SMOOTH",
"506 548 OFFCURVE",
"482 574 OFFCURVE",
"397 574 CURVE",
"376 482 OFFCURVE",
"369 412 OFFCURVE",
"368 351 CURVE",
"332 292 OFFCURVE",
"296 222 OFFCURVE",
"250 118 CURVE",
"338 118 OFFCURVE",
"369 144 OFFCURVE",
"400 144 CURVE SMOOTH",
"425 144 OFFCURVE",
"444 126 OFFCURVE",
"444 102 CURVE SMOOTH",
"444 73 OFFCURVE",
"417 53 OFFCURVE",
"380 53 CURVE SMOOTH",
"359 53 OFFCURVE",
"327 75 OFFCURVE",
"241 92 CURVE",
"237 80 LINE SMOOTH",
"228 54 OFFCURVE",
"225 33 OFFCURVE",
"221 -13 CURVE SMOOTH",
"212 -114 OFFCURVE",
"200 -138 OFFCURVE",
"161 -138 CURVE SMOOTH",
"135 -138 OFFCURVE",
"116 -120 OFFCURVE",
"116 -94 CURVE SMOOTH",
"116 -76 OFFCURVE",
"124 -61 OFFCURVE",
"160 -12 CURVE SMOOTH",
"182 18 OFFCURVE",
"196 46 OFFCURVE",
"207 80 CURVE SMOOTH",
"211 92 LINE",
"196 90 OFFCURVE",
"159 82 OFFCURVE",
"134 73 CURVE SMOOTH",
"83 55 OFFCURVE",
"71 53 OFFCURVE",
"59 53 CURVE SMOOTH",
"33 53 OFFCURVE",
"13 70 OFFCURVE",
"13 93 CURVE SMOOTH",
"13 122 OFFCURVE",
"39 144 OFFCURVE",
"73 144 CURVE SMOOTH",
"111 144 OFFCURVE",
"135 118 OFFCURVE",
"220 118 CURVE",
"241 214 OFFCURVE",
"251 287 OFFCURVE",
"252 351 CURVE"
);
}
);
width = 569;
}
);
unicode = 2021;
},
{
glyphname = dcroat;
lastChange = "2018-10-18 18:01:35 +0000";
layers = (
{
components = (
{
name = d;
}
);
layerId = master01;
paths = (
{
closed = 1;
nodes = (
"419 704 LINE",
"706 704 LINE",
"688 662 LINE",
"402 662 LINE"
);
}
);
width = 603;
},
{
components = (
{
name = d;
}
);
layerId = "5CF0B95A-6341-4D13-90DE-0CF1719C21EC";
paths = (
{
closed = 1;
nodes = (
"419 704 LINE",
"706 704 LINE",
"688 662 LINE",
"402 662 LINE"
);
}
);
width = 603;
}
);
leftKerningGroup = d;
rightKerningGroup = d;
unicode = 0111;
},
{
glyphname = degree;
lastChange = "2018-10-18 18:01:35 +0000";
layers = (
{
layerId = master01;
paths = (
{
closed = 1;
nodes = (
"277 587 OFFCURVE",
"224 640 OFFCURVE",
"224 708 CURVE SMOOTH",
"224 776 OFFCURVE",
"277 830 OFFCURVE",
"345 830 CURVE SMOOTH",
"412 830 OFFCURVE",
"466 775 OFFCURVE",
"466 708 CURVE SMOOTH",
"466 640 OFFCURVE",
"413 587 OFFCURVE",
"345 587 CURVE SMOOTH"
);
},
{
closed = 1;
nodes = (
"265 662 OFFCURVE",
"299 628 OFFCURVE",
"345 628 CURVE SMOOTH",
"393 628 OFFCURVE",
"425 662 OFFCURVE",
"425 708 CURVE SMOOTH",
"425 756 OFFCURVE",
"393 790 OFFCURVE",
"345 790 CURVE SMOOTH",
"299 790 OFFCURVE",
"265 756 OFFCURVE",
"265 708 CURVE SMOOTH"
);
}
);
width = 355;
},
{
layerId = "5CF0B95A-6341-4D13-90DE-0CF1719C21EC";
paths = (
{
closed = 1;
nodes = (
"277 587 OFFCURVE",
"224 640 OFFCURVE",
"224 708 CURVE SMOOTH",
"224 776 OFFCURVE",
"277 830 OFFCURVE",
"345 830 CURVE SMOOTH",
"412 830 OFFCURVE",
"466 775 OFFCURVE",
"466 708 CURVE SMOOTH",
"466 640 OFFCURVE",
"413 587 OFFCURVE",
"345 587 CURVE SMOOTH"
);
},
{
closed = 1;
nodes = (
"265 662 OFFCURVE",
"299 628 OFFCURVE",
"345 628 CURVE SMOOTH",
"393 628 OFFCURVE",
"425 662 OFFCURVE",
"425 708 CURVE SMOOTH",
"425 756 OFFCURVE",
"393 790 OFFCURVE",
"345 790 CURVE SMOOTH",
"299 790 OFFCURVE",
"265 756 OFFCURVE",
"265 708 CURVE SMOOTH"
);
}
);
width = 355;
}
);
unicode = 00B0;
},
{
glyphname = degree.tnum;
lastChange = "2018-10-18 18:01:35 +0000";
layers = (
{
layerId = master01;
paths = (
{
closed = 1;
nodes = (
"88 587 OFFCURVE",
"35 640 OFFCURVE",
"35 708 CURVE SMOOTH",
"35 776 OFFCURVE",
"88 830 OFFCURVE",
"156 830 CURVE SMOOTH",
"223 830 OFFCURVE",
"277 775 OFFCURVE",
"277 708 CURVE SMOOTH",
"277 640 OFFCURVE",
"224 587 OFFCURVE",
"156 587 CURVE SMOOTH"
);
},
{
closed = 1;
nodes = (
"76 662 OFFCURVE",
"110 628 OFFCURVE",
"156 628 CURVE SMOOTH",
"204 628 OFFCURVE",
"236 662 OFFCURVE",
"236 708 CURVE SMOOTH",
"236 756 OFFCURVE",
"204 790 OFFCURVE",
"156 790 CURVE SMOOTH",
"110 790 OFFCURVE",
"76 756 OFFCURVE",
"76 708 CURVE SMOOTH"
);
}
);
width = 312;
},
{
layerId = "5CF0B95A-6341-4D13-90DE-0CF1719C21EC";
paths = (
{
closed = 1;
nodes = (
"88 587 OFFCURVE",
"35 640 OFFCURVE",
"35 708 CURVE SMOOTH",
"35 776 OFFCURVE",
"88 830 OFFCURVE",
"156 830 CURVE SMOOTH",
"223 830 OFFCURVE",
"277 775 OFFCURVE",
"277 708 CURVE SMOOTH",
"277 640 OFFCURVE",
"224 587 OFFCURVE",
"156 587 CURVE SMOOTH"
);
},
{
closed = 1;
nodes = (
"76 662 OFFCURVE",
"110 628 OFFCURVE",
"156 628 CURVE SMOOTH",
"204 628 OFFCURVE",
"236 662 OFFCURVE",
"236 708 CURVE SMOOTH",
"236 756 OFFCURVE",
"204 790 OFFCURVE",
"156 790 CURVE SMOOTH",
"110 790 OFFCURVE",
"76 756 OFFCURVE",
"76 708 CURVE SMOOTH"
);
}
);
width = 312;
}
);
},
{
glyphname = dieresis;
lastChange = "2018-10-18 18:01:35 +0000";
layers = (
{
anchors = (
{
name = _top;
position = "{158, 651}";
}
);
layerId = master01;
paths = (
{
closed = 1;
nodes = (
"105 780 OFFCURVE",
"132 759 OFFCURVE",
"132 731 CURVE SMOOTH",
"132 699 OFFCURVE",
"99 669 OFFCURVE",
"65 669 CURVE SMOOTH",
"31 669 OFFCURVE",
"10 689 OFFCURVE",
"10 720 CURVE SMOOTH",
"10 752 OFFCURVE",
"41 780 OFFCURVE",
"75 780 CURVE SMOOTH"
);
},
{
closed = 1;
nodes = (
"280 780 OFFCURVE",
"307 759 OFFCURVE",
"307 731 CURVE SMOOTH",
"307 699 OFFCURVE",
"274 669 OFFCURVE",
"240 669 CURVE SMOOTH",
"206 669 OFFCURVE",
"185 689 OFFCURVE",
"185 720 CURVE SMOOTH",
"185 752 OFFCURVE",
"216 780 OFFCURVE",
"250 780 CURVE SMOOTH"
);
}
);
width = 317;
},
{
anchors = (
{
name = _top;
position = "{158, 651}";
}
);
layerId = "5CF0B95A-6341-4D13-90DE-0CF1719C21EC";
paths = (
{
closed = 1;
nodes = (
"105 780 OFFCURVE",
"132 759 OFFCURVE",
"132 731 CURVE SMOOTH",
"132 699 OFFCURVE",
"99 669 OFFCURVE",
"65 669 CURVE SMOOTH",
"31 669 OFFCURVE",
"10 689 OFFCURVE",
"10 720 CURVE SMOOTH",
"10 752 OFFCURVE",
"41 780 OFFCURVE",
"75 780 CURVE SMOOTH"
);
},
{
closed = 1;
nodes = (
"280 780 OFFCURVE",
"307 759 OFFCURVE",
"307 731 CURVE SMOOTH",
"307 699 OFFCURVE",
"274 669 OFFCURVE",
"240 669 CURVE SMOOTH",
"206 669 OFFCURVE",
"185 689 OFFCURVE",
"185 720 CURVE SMOOTH",
"185 752 OFFCURVE",
"216 780 OFFCURVE",
"250 780 CURVE SMOOTH"
);
}
);
width = 317;
}
);
unicode = 00A8;
},
{
glyphname = dieresis.cap;
lastChange = "2018-10-18 18:01:35 +0000";
layers = (
{
anchors = (
{
name = _topcap;
position = "{158, 830}";
}
);
layerId = master01;
paths = (
{
closed = 1;
nodes = (
"105 960 OFFCURVE",
"132 939 OFFCURVE",
"132 911 CURVE SMOOTH",
"132 879 OFFCURVE",
"99 849 OFFCURVE",
"65 849 CURVE SMOOTH",
"31 849 OFFCURVE",
"10 869 OFFCURVE",
"10 900 CURVE SMOOTH",
"10 932 OFFCURVE",
"41 960 OFFCURVE",
"75 960 CURVE SMOOTH"
);
},
{
closed = 1;
nodes = (
"280 960 OFFCURVE",
"307 939 OFFCURVE",
"307 911 CURVE SMOOTH",
"307 879 OFFCURVE",
"274 849 OFFCURVE",
"240 849 CURVE SMOOTH",
"206 849 OFFCURVE",
"185 869 OFFCURVE",
"185 900 CURVE SMOOTH",
"185 932 OFFCURVE",
"216 960 OFFCURVE",
"250 960 CURVE SMOOTH"
);
}
);
width = 317;
},
{
anchors = (
{
name = _topcap;
position = "{158, 830}";
}
);
layerId = "5CF0B95A-6341-4D13-90DE-0CF1719C21EC";
paths = (
{
closed = 1;
nodes = (
"105 960 OFFCURVE",
"132 939 OFFCURVE",
"132 911 CURVE SMOOTH",
"132 879 OFFCURVE",
"99 849 OFFCURVE",
"65 849 CURVE SMOOTH",
"31 849 OFFCURVE",
"10 869 OFFCURVE",
"10 900 CURVE SMOOTH",
"10 932 OFFCURVE",
"41 960 OFFCURVE",
"75 960 CURVE SMOOTH"
);
},
{
closed = 1;
nodes = (
"280 960 OFFCURVE",
"307 939 OFFCURVE",
"307 911 CURVE SMOOTH",
"307 879 OFFCURVE",
"274 849 OFFCURVE",
"240 849 CURVE SMOOTH",
"206 849 OFFCURVE",
"185 869 OFFCURVE",
"185 900 CURVE SMOOTH",
"185 932 OFFCURVE",
"216 960 OFFCURVE",
"250 960 CURVE SMOOTH"
);
}
);
width = 317;
}
);
},
{
glyphname = divide;
lastChange = "2018-10-18 18:01:35 +0000";
layers = (
{
components = (
{
name = minus;
transform = "{1, 0, 0, 1, -37, 0}";
}
);
layerId = master01;
paths = (
{
closed = 1;
nodes = (
"205 476 OFFCURVE",
"232 445 OFFCURVE",
"273 445 CURVE SMOOTH",
"316 445 OFFCURVE",
"343 476 OFFCURVE",
"343 513 CURVE SMOOTH",
"343 553 OFFCURVE",
"316 583 OFFCURVE",
"273 583 CURVE SMOOTH",
"232 583 OFFCURVE",
"205 553 OFFCURVE",
"205 513 CURVE SMOOTH"
);
},
{
closed = 1;
nodes = (
"205 133 OFFCURVE",
"232 102 OFFCURVE",
"273 102 CURVE SMOOTH",
"316 102 OFFCURVE",
"343 133 OFFCURVE",
"343 170 CURVE SMOOTH",
"343 210 OFFCURVE",
"316 240 OFFCURVE",
"273 240 CURVE SMOOTH",
"232 240 OFFCURVE",
"205 210 OFFCURVE",
"205 170 CURVE SMOOTH"
);
}
);
width = 533;
},
{
components = (
{
name = minus;
transform = "{1, 0, 0, 1, -37, 0}";
}
);
layerId = "5CF0B95A-6341-4D13-90DE-0CF1719C21EC";
paths = (
{
closed = 1;
nodes = (
"205 476 OFFCURVE",
"232 445 OFFCURVE",
"273 445 CURVE SMOOTH",
"316 445 OFFCURVE",
"343 476 OFFCURVE",
"343 513 CURVE SMOOTH",
"343 553 OFFCURVE",
"316 583 OFFCURVE",
"273 583 CURVE SMOOTH",
"232 583 OFFCURVE",
"205 553 OFFCURVE",
"205 513 CURVE SMOOTH"
);
},
{
closed = 1;
nodes = (
"205 133 OFFCURVE",
"232 102 OFFCURVE",
"273 102 CURVE SMOOTH",
"316 102 OFFCURVE",
"343 133 OFFCURVE",
"343 170 CURVE SMOOTH",
"343 210 OFFCURVE",
"316 240 OFFCURVE",
"273 240 CURVE SMOOTH",
"232 240 OFFCURVE",
"205 210 OFFCURVE",
"205 170 CURVE SMOOTH"
);
}
);
width = 533;
}
);
unicode = 00F7;
},
{
glyphname = divide.tnum;
lastChange = "2018-10-18 18:01:35 +0000";
layers = (
{
components = (
{
name = minus.tnum;
}
);
layerId = master01;
paths = (
{
closed = 1;
nodes = (
"223 476 OFFCURVE",
"250 445 OFFCURVE",
"291 445 CURVE SMOOTH",
"334 445 OFFCURVE",
"361 476 OFFCURVE",
"361 513 CURVE SMOOTH",
"361 553 OFFCURVE",
"334 583 OFFCURVE",
"291 583 CURVE SMOOTH",
"250 583 OFFCURVE",
"223 553 OFFCURVE",
"223 513 CURVE SMOOTH"
);
},
{
closed = 1;
nodes = (
"223 133 OFFCURVE",
"250 102 OFFCURVE",
"291 102 CURVE SMOOTH",
"334 102 OFFCURVE",
"361 133 OFFCURVE",
"361 170 CURVE SMOOTH",
"361 210 OFFCURVE",
"334 240 OFFCURVE",
"291 240 CURVE SMOOTH",
"250 240 OFFCURVE",
"223 210 OFFCURVE",
"223 170 CURVE SMOOTH"
);
}
);
width = 600;
},
{
components = (
{
name = minus.tnum;
}
);
layerId = "5CF0B95A-6341-4D13-90DE-0CF1719C21EC";
paths = (
{
closed = 1;
nodes = (
"223 476 OFFCURVE",
"250 445 OFFCURVE",
"291 445 CURVE SMOOTH",
"334 445 OFFCURVE",
"361 476 OFFCURVE",
"361 513 CURVE SMOOTH",
"361 553 OFFCURVE",
"334 583 OFFCURVE",
"291 583 CURVE SMOOTH",
"250 583 OFFCURVE",
"223 553 OFFCURVE",
"223 513 CURVE SMOOTH"
);
},
{
closed = 1;
nodes = (
"223 133 OFFCURVE",
"250 102 OFFCURVE",
"291 102 CURVE SMOOTH",
"334 102 OFFCURVE",
"361 133 OFFCURVE",
"361 170 CURVE SMOOTH",
"361 210 OFFCURVE",
"334 240 OFFCURVE",
"291 240 CURVE SMOOTH",
"250 240 OFFCURVE",
"223 210 OFFCURVE",
"223 170 CURVE SMOOTH"
);
}
);
width = 600;
}
);
},
{
glyphname = dollar;
lastChange = "2018-10-18 18:01:35 +0000";
layers = (
{
layerId = master01;
paths = (
{
closed = 1;
nodes = (
"515 912 LINE",
"461 779 LINE",
"454 779 OFFCURVE",
"446 780 OFFCURVE",
"438 780 CURVE SMOOTH",
"289 780 OFFCURVE",
"182 684 OFFCURVE",
"182 551 CURVE SMOOTH",
"182 455 OFFCURVE",
"235 401 OFFCURVE",
"287 346 CURVE",
"162 36 LINE",
"132 47 OFFCURVE",
"119 75 OFFCURVE",
"111 135 CURVE SMOOTH",
"105 180 OFFCURVE",
"87 202 OFFCURVE",
"56 202 CURVE SMOOTH",
"23 202 OFFCURVE",
"3 179 OFFCURVE",
"3 141 CURVE SMOOTH",
"3 69 OFFCURVE",
"61 12 OFFCURVE",
"145 -5 CURVE",
"87 -150 LINE",
"132 -150 LINE",
"188 -10 LINE",
"198 -10 LINE SMOOTH",
"362 -10 OFFCURVE",
"479 88 OFFCURVE",
"479 223 CURVE SMOOTH",
"479 285 OFFCURVE",
"459 326 OFFCURVE",
"367 434 CURVE",
"485 728 LINE",
"507 714 OFFCURVE",
"518 686 OFFCURVE",
"525 635 CURVE SMOOTH",
"531 590 OFFCURVE",
"549 568 OFFCURVE",
"580 568 CURVE SMOOTH",
"613 568 OFFCURVE",
"633 591 OFFCURVE",
"633 629 CURVE SMOOTH",
"633 697 OFFCURVE",
"581 752 OFFCURVE",
"503 772 CURVE",
"560 912 LINE"
);
},
{
closed = 1;
nodes = (
"317 311 LINE",
"347 274 OFFCURVE",
"371 233 OFFCURVE",
"371 177 CURVE SMOOTH",
"371 86 OFFCURVE",
"309 30 OFFCURVE",
"204 30 CURVE"
);
},
{
closed = 1;
nodes = (
"287 685 OFFCURVE",
"338 740 OFFCURVE",
"429 740 CURVE SMOOTH",
"435 740 OFFCURVE",
"440 740 OFFCURVE",
"445 739 CURVE",
"337 469 LINE",
"293 523 OFFCURVE",
"287 542 OFFCURVE",
"287 586 CURVE SMOOTH"
);
}
);
width = 577;
},
{
layerId = "5CF0B95A-6341-4D13-90DE-0CF1719C21EC";
paths = (
{
closed = 1;
nodes = (
"515 912 LINE",
"461 779 LINE",
"454 779 OFFCURVE",
"446 780 OFFCURVE",
"438 780 CURVE SMOOTH",
"289 780 OFFCURVE",
"182 684 OFFCURVE",
"182 551 CURVE SMOOTH",
"182 455 OFFCURVE",
"235 401 OFFCURVE",
"287 346 CURVE",
"162 36 LINE",
"132 47 OFFCURVE",
"119 75 OFFCURVE",
"111 135 CURVE SMOOTH",
"105 180 OFFCURVE",
"87 202 OFFCURVE",
"56 202 CURVE SMOOTH",
"23 202 OFFCURVE",
"3 179 OFFCURVE",
"3 141 CURVE SMOOTH",
"3 69 OFFCURVE",
"61 12 OFFCURVE",
"145 -5 CURVE",
"87 -150 LINE",
"132 -150 LINE",
"188 -10 LINE",
"198 -10 LINE SMOOTH",
"362 -10 OFFCURVE",
"479 88 OFFCURVE",
"479 223 CURVE SMOOTH",
"479 285 OFFCURVE",
"459 326 OFFCURVE",
"367 434 CURVE",
"485 728 LINE",
"507 714 OFFCURVE",
"518 686 OFFCURVE",
"525 635 CURVE SMOOTH",
"531 590 OFFCURVE",
"549 568 OFFCURVE",
"580 568 CURVE SMOOTH",
"613 568 OFFCURVE",
"633 591 OFFCURVE",
"633 629 CURVE SMOOTH",
"633 697 OFFCURVE",
"581 752 OFFCURVE",
"503 772 CURVE",
"560 912 LINE"
);
},
{
closed = 1;
nodes = (
"317 311 LINE",
"347 274 OFFCURVE",
"371 233 OFFCURVE",
"371 177 CURVE SMOOTH",
"371 86 OFFCURVE",
"309 30 OFFCURVE",
"204 30 CURVE"
);
},
{
closed = 1;
nodes = (
"287 685 OFFCURVE",
"338 740 OFFCURVE",
"429 740 CURVE SMOOTH",
"435 740 OFFCURVE",
"440 740 OFFCURVE",
"445 739 CURVE",
"337 469 LINE",
"293 523 OFFCURVE",
"287 542 OFFCURVE",
"287 586 CURVE SMOOTH"
);
}
);
width = 577;
}
);
unicode = 0024;
},
{
glyphname = dollar.tnum;
lastChange = "2018-10-18 18:01:35 +0000";
layers = (
{
layerId = master01;
paths = (
{
closed = 1;
nodes = (
"509 912 LINE",
"455 779 LINE",
"448 779 OFFCURVE",
"440 780 OFFCURVE",
"432 780 CURVE SMOOTH",
"283 780 OFFCURVE",
"176 684 OFFCURVE",
"176 551 CURVE SMOOTH",
"176 455 OFFCURVE",
"229 401 OFFCURVE",
"281 346 CURVE",
"156 36 LINE",
"126 47 OFFCURVE",
"113 75 OFFCURVE",
"105 135 CURVE SMOOTH",
"99 180 OFFCURVE",
"81 202 OFFCURVE",
"50 202 CURVE SMOOTH",
"17 202 OFFCURVE",
"-3 179 OFFCURVE",
"-3 141 CURVE SMOOTH",
"-3 69 OFFCURVE",
"55 12 OFFCURVE",
"139 -5 CURVE",
"81 -150 LINE",
"126 -150 LINE",
"182 -10 LINE",
"192 -10 LINE SMOOTH",
"356 -10 OFFCURVE",
"473 88 OFFCURVE",
"473 223 CURVE SMOOTH",
"473 285 OFFCURVE",
"453 326 OFFCURVE",
"361 434 CURVE",
"479 728 LINE",
"501 714 OFFCURVE",
"512 686 OFFCURVE",
"519 635 CURVE SMOOTH",
"525 590 OFFCURVE",
"543 568 OFFCURVE",
"574 568 CURVE SMOOTH",
"607 568 OFFCURVE",
"627 591 OFFCURVE",
"627 629 CURVE SMOOTH",
"627 697 OFFCURVE",
"575 752 OFFCURVE",
"497 772 CURVE",
"554 912 LINE"
);
},
{
closed = 1;
nodes = (
"311 311 LINE",
"341 274 OFFCURVE",
"365 233 OFFCURVE",
"365 177 CURVE SMOOTH",
"365 86 OFFCURVE",
"303 30 OFFCURVE",
"198 30 CURVE"
);
},
{
closed = 1;
nodes = (
"281 685 OFFCURVE",
"332 740 OFFCURVE",
"423 740 CURVE SMOOTH",
"429 740 OFFCURVE",
"434 740 OFFCURVE",
"439 739 CURVE",
"331 469 LINE",
"287 523 OFFCURVE",
"281 542 OFFCURVE",
"281 586 CURVE SMOOTH"
);
}
);
width = 586;
},
{
layerId = "5CF0B95A-6341-4D13-90DE-0CF1719C21EC";
paths = (
{
closed = 1;
nodes = (
"509 912 LINE",
"455 779 LINE",
"448 779 OFFCURVE",
"440 780 OFFCURVE",
"432 780 CURVE SMOOTH",
"283 780 OFFCURVE",
"176 684 OFFCURVE",
"176 551 CURVE SMOOTH",
"176 455 OFFCURVE",
"229 401 OFFCURVE",
"281 346 CURVE",
"156 36 LINE",
"126 47 OFFCURVE",
"113 75 OFFCURVE",
"105 135 CURVE SMOOTH",
"99 180 OFFCURVE",
"81 202 OFFCURVE",
"50 202 CURVE SMOOTH",
"17 202 OFFCURVE",
"-3 179 OFFCURVE",
"-3 141 CURVE SMOOTH",
"-3 69 OFFCURVE",
"55 12 OFFCURVE",
"139 -5 CURVE",
"81 -150 LINE",
"126 -150 LINE",
"182 -10 LINE",
"192 -10 LINE SMOOTH",
"356 -10 OFFCURVE",
"473 88 OFFCURVE",
"473 223 CURVE SMOOTH",
"473 285 OFFCURVE",
"453 326 OFFCURVE",
"361 434 CURVE",
"479 728 LINE",
"501 714 OFFCURVE",
"512 686 OFFCURVE",
"519 635 CURVE SMOOTH",
"525 590 OFFCURVE",
"543 568 OFFCURVE",
"574 568 CURVE SMOOTH",
"607 568 OFFCURVE",
"627 591 OFFCURVE",
"627 629 CURVE SMOOTH",
"627 697 OFFCURVE",
"575 752 OFFCURVE",
"497 772 CURVE",
"554 912 LINE"
);
},
{
closed = 1;
nodes = (
"311 311 LINE",
"341 274 OFFCURVE",
"365 233 OFFCURVE",
"365 177 CURVE SMOOTH",
"365 86 OFFCURVE",
"303 30 OFFCURVE",
"198 30 CURVE"
);
},
{
closed = 1;
nodes = (
"281 685 OFFCURVE",
"332 740 OFFCURVE",
"423 740 CURVE SMOOTH",
"429 740 OFFCURVE",
"434 740 OFFCURVE",
"439 739 CURVE",
"331 469 LINE",
"287 523 OFFCURVE",
"281 542 OFFCURVE",
"281 586 CURVE SMOOTH"
);
}
);
width = 586;
}
);
},
{
glyphname = dotaccent;
lastChange = "2018-10-18 18:01:35 +0000";
layers = (
{
anchors = (
{
name = _top;
position = "{72, 651}";
}
);
layerId = master01;
paths = (
{
closed = 1;
nodes = (
"117 780 OFFCURVE",
"147 756 OFFCURVE",
"147 725 CURVE SMOOTH",
"147 689 OFFCURVE",
"110 655 OFFCURVE",
"72 655 CURVE SMOOTH",
"34 655 OFFCURVE",
"10 678 OFFCURVE",
"10 712 CURVE SMOOTH",
"10 749 OFFCURVE",
"45 780 OFFCURVE",
"83 780 CURVE SMOOTH"
);
}
);
width = 157;
},
{
anchors = (
{
name = _top;
position = "{72, 651}";
}
);
layerId = "5CF0B95A-6341-4D13-90DE-0CF1719C21EC";
paths = (
{
closed = 1;
nodes = (
"117 780 OFFCURVE",
"147 756 OFFCURVE",
"147 725 CURVE SMOOTH",
"147 689 OFFCURVE",
"110 655 OFFCURVE",
"72 655 CURVE SMOOTH",
"34 655 OFFCURVE",
"10 678 OFFCURVE",
"10 712 CURVE SMOOTH",
"10 749 OFFCURVE",
"45 780 OFFCURVE",
"83 780 CURVE SMOOTH"
);
}
);
width = 157;
}
);
unicode = 02D9;
},
{
glyphname = dotaccent.cap;
lastChange = "2018-10-18 18:01:35 +0000";
layers = (
{
anchors = (
{
name = _topcap;
position = "{72, 830}";
}
);
layerId = master01;
paths = (
{
closed = 1;
nodes = (
"117 960 OFFCURVE",
"147 936 OFFCURVE",
"147 905 CURVE SMOOTH",
"147 869 OFFCURVE",
"110 835 OFFCURVE",
"72 835 CURVE SMOOTH",
"34 835 OFFCURVE",
"10 858 OFFCURVE",
"10 892 CURVE SMOOTH",
"10 929 OFFCURVE",
"45 960 OFFCURVE",
"83 960 CURVE SMOOTH"
);
}
);
width = 157;
},
{
anchors = (
{
name = _topcap;
position = "{72, 830}";
}
);
layerId = "5CF0B95A-6341-4D13-90DE-0CF1719C21EC";
paths = (
{
closed = 1;
nodes = (
"117 960 OFFCURVE",
"147 936 OFFCURVE",
"147 905 CURVE SMOOTH",
"147 869 OFFCURVE",
"110 835 OFFCURVE",
"72 835 CURVE SMOOTH",
"34 835 OFFCURVE",
"10 858 OFFCURVE",
"10 892 CURVE SMOOTH",
"10 929 OFFCURVE",
"45 960 OFFCURVE",
"83 960 CURVE SMOOTH"
);
}
);
width = 157;
}
);
},
{
glyphname = dotbelow;
lastChange = "2018-10-18 18:01:35 +0000";
layers = (
{
anchors = (
{
name = _bottom;
position = "{161, 0}";
}
);
layerId = master01;
paths = (
{
closed = 1;
nodes = (
"117 -131 OFFCURVE",
"147 -155 OFFCURVE",
"147 -186 CURVE SMOOTH",
"147 -222 OFFCURVE",
"110 -256 OFFCURVE",
"72 -256 CURVE SMOOTH",
"34 -256 OFFCURVE",
"10 -233 OFFCURVE",
"10 -199 CURVE SMOOTH",
"10 -162 OFFCURVE",
"45 -131 OFFCURVE",
"83 -131 CURVE SMOOTH"
);
}
);
width = 149;
},
{
anchors = (
{
name = _bottom;
position = "{161, 0}";
}
);
layerId = "5CF0B95A-6341-4D13-90DE-0CF1719C21EC";
paths = (
{
closed = 1;
nodes = (
"117 -131 OFFCURVE",
"147 -155 OFFCURVE",
"147 -186 CURVE SMOOTH",
"147 -222 OFFCURVE",
"110 -256 OFFCURVE",
"72 -256 CURVE SMOOTH",
"34 -256 OFFCURVE",
"10 -233 OFFCURVE",
"10 -199 CURVE SMOOTH",
"10 -162 OFFCURVE",
"45 -131 OFFCURVE",
"83 -131 CURVE SMOOTH"
);
}
);
width = 149;
}
);
},
{
glyphname = dotlessi;
lastChange = "2018-10-18 18:01:35 +0000";
layers = (
{
anchors = (
{
name = bottom;
position = "{90, 0}";
},
{
name = top;
position = "{298, 651}";
}
);
layerId = master01;
paths = (
{
closed = 1;
nodes = (
"265 540 OFFCURVE",
"292 523 OFFCURVE",
"292 491 CURVE SMOOTH",
"292 472 OFFCURVE",
"286 449 OFFCURVE",
"276 425 CURVE SMOOTH",
"133 81 LINE SMOOTH",
"131 76 OFFCURVE",
"130 72 OFFCURVE",
"130 68 CURVE SMOOTH",
"130 57 OFFCURVE",
"138 49 OFFCURVE",
"150 49 CURVE SMOOTH",
"169 49 OFFCURVE",
"190 65 OFFCURVE",
"255 129 CURVE",
"275 117 LINE",
"213 38 OFFCURVE",
"138 -10 OFFCURVE",
"88 -10 CURVE SMOOTH",
"49 -10 OFFCURVE",
"23 8 OFFCURVE",
"23 46 CURVE SMOOTH",
"23 63 OFFCURVE",
"27 85 OFFCURVE",
"38 111 CURVE SMOOTH",
"183 467 LINE SMOOTH",
"187 476 OFFCURVE",
"188 482 OFFCURVE",
"188 486 CURVE SMOOTH",
"188 492 OFFCURVE",
"184 495 OFFCURVE",
"175 495 CURVE SMOOTH",
"151 495 OFFCURVE",
"117 471 OFFCURVE",
"87 433 CURVE",
"64 451 LINE",
"109 506 OFFCURVE",
"174 540 OFFCURVE",
"227 540 CURVE SMOOTH {name = hr00;}"
);
}
);
width = 340;
},
{
anchors = (
{
name = bottom;
position = "{90, 0}";
},
{
name = top;
position = "{298, 651}";
}
);
layerId = "5CF0B95A-6341-4D13-90DE-0CF1719C21EC";
paths = (
{
closed = 1;
nodes = (
"265 540 OFFCURVE",
"292 523 OFFCURVE",
"292 491 CURVE SMOOTH",
"292 472 OFFCURVE",
"286 449 OFFCURVE",
"276 425 CURVE SMOOTH",
"133 81 LINE SMOOTH",
"131 76 OFFCURVE",
"130 72 OFFCURVE",
"130 68 CURVE SMOOTH",
"130 57 OFFCURVE",
"138 49 OFFCURVE",
"150 49 CURVE SMOOTH",
"169 49 OFFCURVE",
"190 65 OFFCURVE",
"255 129 CURVE",
"275 117 LINE",
"213 38 OFFCURVE",
"138 -10 OFFCURVE",
"88 -10 CURVE SMOOTH",
"49 -10 OFFCURVE",
"23 8 OFFCURVE",
"23 46 CURVE SMOOTH",
"23 63 OFFCURVE",
"27 85 OFFCURVE",
"38 111 CURVE SMOOTH",
"183 467 LINE SMOOTH",
"187 476 OFFCURVE",
"188 482 OFFCURVE",
"188 486 CURVE SMOOTH",
"188 492 OFFCURVE",
"184 495 OFFCURVE",
"175 495 CURVE SMOOTH",
"151 495 OFFCURVE",
"117 471 OFFCURVE",
"87 433 CURVE",
"64 451 LINE",
"109 506 OFFCURVE",
"174 540 OFFCURVE",
"227 540 CURVE SMOOTH {name = hr00;}"
);
}
);
width = 340;
}
);
leftKerningGroup = i;
rightKerningGroup = i;
unicode = 0131;
},
{
glyphname = dotlessj;
lastChange = "2018-10-18 18:01:35 +0000";
layers = (
{
anchors = (
{
name = top;
position = "{295, 651}";
}
);
layerId = master01;
paths = (
{
closed = 1;
nodes = (
"263 540 OFFCURVE",
"284 522 OFFCURVE",
"284 492 CURVE SMOOTH",
"283 456 OFFCURVE",
"252 361 OFFCURVE",
"181 203 CURVE SMOOTH",
"54 -81 LINE SMOOTH",
"3 -194 OFFCURVE",
"-75 -256 OFFCURVE",
"-174 -256 CURVE SMOOTH",
"-242 -256 OFFCURVE",
"-291 -226 OFFCURVE",
"-291 -179 CURVE SMOOTH",
"-291 -149 OFFCURVE",
"-276 -132 OFFCURVE",
"-245 -132 CURVE SMOOTH",
"-175 -132 OFFCURVE",
"-209 -221 OFFCURVE",
"-145 -221 CURVE SMOOTH",
"-105 -221 OFFCURVE",
"-71 -176 OFFCURVE",
"-13 -28 CURVE SMOOTH {name = hr01;}",
"97 252 LINE SMOOTH",
"162 419 OFFCURVE",
"177 458 OFFCURVE",
"177 479 CURVE SMOOTH",
"177 489 OFFCURVE",
"173 492 OFFCURVE",
"163 492 CURVE SMOOTH",
"139 492 OFFCURVE",
"110 471 OFFCURVE",
"80 433 CURVE",
"59 451 LINE",
"107 508 OFFCURVE",
"167 540 OFFCURVE",
"221 540 CURVE SMOOTH"
);
}
);
width = 306;
},
{
anchors = (
{
name = top;
position = "{295, 651}";
}
);
layerId = "5CF0B95A-6341-4D13-90DE-0CF1719C21EC";
paths = (
{
closed = 1;
nodes = (
"263 540 OFFCURVE",
"284 522 OFFCURVE",
"284 492 CURVE SMOOTH",
"283 456 OFFCURVE",
"252 361 OFFCURVE",
"181 203 CURVE SMOOTH",
"54 -81 LINE SMOOTH",
"3 -194 OFFCURVE",
"-75 -256 OFFCURVE",
"-174 -256 CURVE SMOOTH",
"-242 -256 OFFCURVE",
"-291 -226 OFFCURVE",
"-291 -179 CURVE SMOOTH",
"-291 -149 OFFCURVE",
"-276 -132 OFFCURVE",
"-245 -132 CURVE SMOOTH",
"-175 -132 OFFCURVE",
"-209 -221 OFFCURVE",
"-145 -221 CURVE SMOOTH",
"-105 -221 OFFCURVE",
"-71 -176 OFFCURVE",
"-13 -28 CURVE SMOOTH {name = hr01;}",
"97 252 LINE SMOOTH",
"162 419 OFFCURVE",
"177 458 OFFCURVE",
"177 479 CURVE SMOOTH",
"177 489 OFFCURVE",
"173 492 OFFCURVE",
"163 492 CURVE SMOOTH",
"139 492 OFFCURVE",
"110 471 OFFCURVE",
"80 433 CURVE",
"59 451 LINE",
"107 508 OFFCURVE",
"167 540 OFFCURVE",
"221 540 CURVE SMOOTH"
);
}
);
width = 306;
}
);
leftKerningGroup = j;
rightKerningGroup = j;
unicode = 0237;
},
{
glyphname = e;
lastChange = "2018-10-18 18:01:35 +0000";
layers = (
{
anchors = (
{
name = bottom;
position = "{140, 0}";
},
{
name = top;
position = "{423, 651}";
}
);
layerId = master01;
paths = (
{
closed = 1;
nodes = (
"457 540 OFFCURVE",
"494 514 OFFCURVE",
"494 471 CURVE SMOOTH",
"494 387 OFFCURVE",
"354 304 OFFCURVE",
"154 269 CURVE",
"116 198 OFFCURVE",
"97 138 OFFCURVE",
"97 92 CURVE SMOOTH",
"97 46 OFFCURVE",
"116 25 OFFCURVE",
"155 25 CURVE SMOOTH",
"217 25 OFFCURVE",
"302 80 OFFCURVE",
"361 159 CURVE",
"383 145 LINE",
"301 42 OFFCURVE",
"215 -10 OFFCURVE",
"130 -10 CURVE SMOOTH",
"48 -10 OFFCURVE",
"0 39 OFFCURVE",
"0 125 CURVE SMOOTH",
"0 309 OFFCURVE",
"221 540 OFFCURVE",
"398 540 CURVE SMOOTH {name = hr00;}"
);
},
{
closed = 1;
nodes = (
"300 326 OFFCURVE",
"414 410 OFFCURVE",
"414 479 CURVE SMOOTH",
"414 499 OFFCURVE",
"404 509 OFFCURVE",
"382 509 CURVE SMOOTH",
"327 509 OFFCURVE",
"253 446 OFFCURVE",
"208 361 CURVE SMOOTH",
"176 302 LINE"
);
}
);
width = 485;
},
{
anchors = (
{
name = bottom;
position = "{140, 0}";
},
{
name = top;
position = "{423, 651}";
}
);
layerId = "5CF0B95A-6341-4D13-90DE-0CF1719C21EC";
paths = (
{
closed = 1;
nodes = (
"457 540 OFFCURVE",
"494 514 OFFCURVE",
"494 471 CURVE SMOOTH",
"494 387 OFFCURVE",
"354 304 OFFCURVE",
"154 269 CURVE",
"116 198 OFFCURVE",
"97 138 OFFCURVE",
"97 92 CURVE SMOOTH",
"97 46 OFFCURVE",
"116 25 OFFCURVE",
"155 25 CURVE SMOOTH",
"217 25 OFFCURVE",
"302 80 OFFCURVE",
"361 159 CURVE",
"383 145 LINE",
"301 42 OFFCURVE",
"215 -10 OFFCURVE",
"130 -10 CURVE SMOOTH",
"48 -10 OFFCURVE",
"0 39 OFFCURVE",
"0 125 CURVE SMOOTH",
"0 309 OFFCURVE",
"221 540 OFFCURVE",
"398 540 CURVE SMOOTH {name = hr00;}"
);
},
{
closed = 1;
nodes = (
"300 326 OFFCURVE",
"414 410 OFFCURVE",
"414 479 CURVE SMOOTH",
"414 499 OFFCURVE",
"404 509 OFFCURVE",
"382 509 CURVE SMOOTH",
"327 509 OFFCURVE",
"253 446 OFFCURVE",
"208 361 CURVE SMOOTH",
"176 302 LINE"
);
}
);
width = 485;
}
);
leftKerningGroup = e;
rightKerningGroup = e;
unicode = 0065;
},
{
glyphname = e_t;
lastChange = "2018-10-18 18:01:35 +0000";
layers = (
{
components = (
{
name = e;
}
);
layerId = master01;
paths = (
{
closed = 1;
nodes = (
"698 530 LINE",
"741 567 OFFCURVE",
"771 603 OFFCURVE",
"786 637 CURVE",
"763 629 OFFCURVE",
"737 625 OFFCURVE",
"709 625 CURVE SMOOTH",
"612 625 OFFCURVE",
"567 680 OFFCURVE",
"490 680 CURVE SMOOTH",
"434 680 OFFCURVE",
"404 655 OFFCURVE",
"404 610 CURVE SMOOTH",
"404 575 OFFCURVE",
"422 553 OFFCURVE",
"474 516 CURVE",
"448 504 LINE",
"383 546 OFFCURVE",
"348 597 OFFCURVE",
"348 652 CURVE SMOOTH",
"348 709 OFFCURVE",
"386 744 OFFCURVE",
"448 744 CURVE SMOOTH",
"548 744 OFFCURVE",
"623 655 OFFCURVE",
"723 655 CURVE SMOOTH",
"749 655 OFFCURVE",
"775 661 OFFCURVE",
"795 671 CURVE",
"796 675 OFFCURVE",
"796 679 OFFCURVE",
"796 683 CURVE SMOOTH",
"796 721 LINE SMOOTH",
"796 759 OFFCURVE",
"812 780 OFFCURVE",
"840 780 CURVE SMOOTH",
"862 780 OFFCURVE",
"874 766 OFFCURVE",
"874 742 CURVE SMOOTH",
"874 722 OFFCURVE",
"867 702 OFFCURVE",
"852 683 CURVE",
"799 530 LINE",
"888 530 LINE",
"877 498 LINE",
"786 498 LINE",
"704 305 LINE SMOOTH",
"618 104 OFFCURVE",
"610 87 OFFCURVE",
"610 73 CURVE SMOOTH",
"610 58 OFFCURVE",
"617 49 OFFCURVE",
"632 49 CURVE SMOOTH",
"652 49 OFFCURVE",
"682 73 OFFCURVE",
"736 129 CURVE",
"756 117 LINE",
"692 36 OFFCURVE",
"621 -10 OFFCURVE",
"563 -10 CURVE SMOOTH",
"523 -10 OFFCURVE",
"510 9 OFFCURVE",
"510 53 CURVE SMOOTH",
"510 81 OFFCURVE",
"519 115 OFFCURVE",
"579 255 CURVE SMOOTH",
"683 498 LINE",
"601 498 LINE",
"612 530 LINE"
);
}
);
width = 839;
},
{
components = (
{
name = e;
}
);
layerId = "5CF0B95A-6341-4D13-90DE-0CF1719C21EC";
paths = (
{
closed = 1;
nodes = (
"698 530 LINE",
"741 567 OFFCURVE",
"771 603 OFFCURVE",
"786 637 CURVE",
"763 629 OFFCURVE",
"737 625 OFFCURVE",
"709 625 CURVE SMOOTH",
"612 625 OFFCURVE",
"567 680 OFFCURVE",
"490 680 CURVE SMOOTH",
"434 680 OFFCURVE",
"404 655 OFFCURVE",
"404 610 CURVE SMOOTH",
"404 575 OFFCURVE",
"422 553 OFFCURVE",
"474 516 CURVE",
"448 504 LINE",
"383 546 OFFCURVE",
"348 597 OFFCURVE",
"348 652 CURVE SMOOTH",
"348 709 OFFCURVE",
"386 744 OFFCURVE",
"448 744 CURVE SMOOTH",
"548 744 OFFCURVE",
"623 655 OFFCURVE",
"723 655 CURVE SMOOTH",
"749 655 OFFCURVE",
"775 661 OFFCURVE",
"795 671 CURVE",
"796 675 OFFCURVE",
"796 679 OFFCURVE",
"796 683 CURVE SMOOTH",
"796 721 LINE SMOOTH",
"796 759 OFFCURVE",
"812 780 OFFCURVE",
"840 780 CURVE SMOOTH",
"862 780 OFFCURVE",
"874 766 OFFCURVE",
"874 742 CURVE SMOOTH",
"874 722 OFFCURVE",
"867 702 OFFCURVE",
"852 683 CURVE",
"799 530 LINE",
"888 530 LINE",
"877 498 LINE",
"786 498 LINE",
"704 305 LINE SMOOTH",
"618 104 OFFCURVE",
"610 87 OFFCURVE",
"610 73 CURVE SMOOTH",
"610 58 OFFCURVE",
"617 49 OFFCURVE",
"632 49 CURVE SMOOTH",
"652 49 OFFCURVE",
"682 73 OFFCURVE",
"736 129 CURVE",
"756 117 LINE",
"692 36 OFFCURVE",
"621 -10 OFFCURVE",
"563 -10 CURVE SMOOTH",
"523 -10 OFFCURVE",
"510 9 OFFCURVE",
"510 53 CURVE SMOOTH",
"510 81 OFFCURVE",
"519 115 OFFCURVE",
"579 255 CURVE SMOOTH",
"683 498 LINE",
"601 498 LINE",
"612 530 LINE"
);
}
);
width = 839;
}
);
leftKerningGroup = e;
rightKerningGroup = t;
},
{
glyphname = eight;
lastChange = "2018-10-18 18:01:35 +0000";
layers = (
{
layerId = master01;
paths = (
{
closed = 1;
nodes = (
"238 465 OFFCURVE",
"203 520 OFFCURVE",
"203 585 CURVE SMOOTH",
"203 717 OFFCURVE",
"310 780 OFFCURVE",
"420 780 CURVE SMOOTH",
"526 780 OFFCURVE",
"591 723 OFFCURVE",
"591 641 CURVE SMOOTH",
"591 533 OFFCURVE",
"485 477 OFFCURVE",
"401 440 CURVE",
"433 401 LINE SMOOTH",
"469 357 OFFCURVE",
"503 295 OFFCURVE",
"503 230 CURVE SMOOTH",
"503 65 OFFCURVE",
"381 -10 OFFCURVE",
"258 -10 CURVE SMOOTH",
"106 -10 OFFCURVE",
"37 78 OFFCURVE",
"37 172 CURVE SMOOTH",
"37 309 OFFCURVE",
"177 381 OFFCURVE",
"274 421 CURVE",
"253 447 LINE SMOOTH"
);
},
{
closed = 1;
nodes = (
"204 339 OFFCURVE",
"141 294 OFFCURVE",
"141 179 CURVE SMOOTH",
"141 99 OFFCURVE",
"184 32 OFFCURVE",
"270 32 CURVE SMOOTH",
"359 32 OFFCURVE",
"413 90 OFFCURVE",
"413 181 CURVE SMOOTH",
"413 233 OFFCURVE",
"391 274 OFFCURVE",
"359 314 CURVE SMOOTH",
"298 390 LINE"
);
},
{
closed = 1;
nodes = (
"443 513 OFFCURVE",
"498 569 OFFCURVE",
"498 651 CURVE SMOOTH",
"498 702 OFFCURVE",
"473 738 OFFCURVE",
"415 738 CURVE SMOOTH",
"344 738 OFFCURVE",
"289 693 OFFCURVE",
"289 623 CURVE SMOOTH",
"289 559 OFFCURVE",
"338 507 OFFCURVE",
"376 467 CURVE"
);
}
);
width = 621;
},
{
layerId = "5CF0B95A-6341-4D13-90DE-0CF1719C21EC";
paths = (
{
closed = 1;
nodes = (
"238 465 OFFCURVE",
"203 520 OFFCURVE",
"203 585 CURVE SMOOTH",
"203 717 OFFCURVE",
"310 780 OFFCURVE",
"420 780 CURVE SMOOTH",
"526 780 OFFCURVE",
"591 723 OFFCURVE",
"591 641 CURVE SMOOTH",
"591 533 OFFCURVE",
"485 477 OFFCURVE",
"401 440 CURVE",
"433 401 LINE SMOOTH",
"469 357 OFFCURVE",
"503 295 OFFCURVE",
"503 230 CURVE SMOOTH",
"503 65 OFFCURVE",
"381 -10 OFFCURVE",
"258 -10 CURVE SMOOTH",
"106 -10 OFFCURVE",
"37 78 OFFCURVE",
"37 172 CURVE SMOOTH",
"37 309 OFFCURVE",
"177 381 OFFCURVE",
"274 421 CURVE",
"253 447 LINE SMOOTH"
);
},
{
closed = 1;
nodes = (
"204 339 OFFCURVE",
"141 294 OFFCURVE",
"141 179 CURVE SMOOTH",
"141 99 OFFCURVE",
"184 32 OFFCURVE",
"270 32 CURVE SMOOTH",
"359 32 OFFCURVE",
"413 90 OFFCURVE",
"413 181 CURVE SMOOTH",
"413 233 OFFCURVE",
"391 274 OFFCURVE",
"359 314 CURVE SMOOTH",
"298 390 LINE"
);
},
{
closed = 1;
nodes = (
"443 513 OFFCURVE",
"498 569 OFFCURVE",
"498 651 CURVE SMOOTH",
"498 702 OFFCURVE",
"473 738 OFFCURVE",
"415 738 CURVE SMOOTH",
"344 738 OFFCURVE",
"289 693 OFFCURVE",
"289 623 CURVE SMOOTH",
"289 559 OFFCURVE",
"338 507 OFFCURVE",
"376 467 CURVE"
);
}
);
width = 621;
}
);
unicode = 0038;
},
{
glyphname = eight.denominator;
lastChange = "2018-10-18 18:01:35 +0000";
layers = (
{
layerId = master01;
paths = (
{
closed = 1;
nodes = (
"85 282 OFFCURVE",
"72 312 OFFCURVE",
"72 341 CURVE SMOOTH",
"72 418 OFFCURVE",
"140 455 OFFCURVE",
"208 455 CURVE SMOOTH",
"276 455 OFFCURVE",
"317 422 OFFCURVE",
"317 373 CURVE SMOOTH",
"317 310 OFFCURVE",
"259 272 OFFCURVE",
"209 250 CURVE",
"228 227 LINE SMOOTH",
"255 194 OFFCURVE",
"266 159 OFFCURVE",
"266 132 CURVE SMOOTH",
"266 35 OFFCURVE",
"190 -10 OFFCURVE",
"114 -10 CURVE SMOOTH",
"17 -10 OFFCURVE",
"-26 42 OFFCURVE",
"-26 98 CURVE SMOOTH",
"-26 178 OFFCURVE",
"61 216 OFFCURVE",
"117 240 CURVE",
"106 255 LINE SMOOTH"
);
},
{
closed = 1;
nodes = (
"88 192 OFFCURVE",
"49 169 OFFCURVE",
"49 102 CURVE SMOOTH",
"49 62 OFFCURVE",
"72 27 OFFCURVE",
"121 27 CURVE SMOOTH",
"168 27 OFFCURVE",
"196 58 OFFCURVE",
"196 93 CURVE SMOOTH",
"196 122 OFFCURVE",
"189 142 OFFCURVE",
"168 177 CURVE SMOOTH",
"141 222 LINE"
);
},
{
closed = 1;
nodes = (
"219 299 OFFCURVE",
"250 331 OFFCURVE",
"250 379 CURVE SMOOTH",
"250 401 OFFCURVE",
"236 419 OFFCURVE",
"206 419 CURVE SMOOTH",
"170 419 OFFCURVE",
"141 396 OFFCURVE",
"141 363 CURVE SMOOTH",
"141 337 OFFCURVE",
"151 312 OFFCURVE",
"183 272 CURVE"
);
}
);
width = 395;
},
{
layerId = "5CF0B95A-6341-4D13-90DE-0CF1719C21EC";
paths = (
{
closed = 1;
nodes = (
"85 282 OFFCURVE",
"72 312 OFFCURVE",
"72 341 CURVE SMOOTH",
"72 418 OFFCURVE",
"140 455 OFFCURVE",
"208 455 CURVE SMOOTH",
"276 455 OFFCURVE",
"317 422 OFFCURVE",
"317 373 CURVE SMOOTH",
"317 310 OFFCURVE",
"259 272 OFFCURVE",
"209 250 CURVE",
"228 227 LINE SMOOTH",
"255 194 OFFCURVE",
"266 159 OFFCURVE",
"266 132 CURVE SMOOTH",
"266 35 OFFCURVE",
"190 -10 OFFCURVE",
"114 -10 CURVE SMOOTH",
"17 -10 OFFCURVE",
"-26 42 OFFCURVE",
"-26 98 CURVE SMOOTH",
"-26 178 OFFCURVE",
"61 216 OFFCURVE",
"117 240 CURVE",
"106 255 LINE SMOOTH"
);
},
{
closed = 1;
nodes = (
"88 192 OFFCURVE",
"49 169 OFFCURVE",
"49 102 CURVE SMOOTH",
"49 62 OFFCURVE",
"72 27 OFFCURVE",
"121 27 CURVE SMOOTH",
"168 27 OFFCURVE",
"196 58 OFFCURVE",
"196 93 CURVE SMOOTH",
"196 122 OFFCURVE",
"189 142 OFFCURVE",
"168 177 CURVE SMOOTH",
"141 222 LINE"
);
},
{
closed = 1;
nodes = (
"219 299 OFFCURVE",
"250 331 OFFCURVE",
"250 379 CURVE SMOOTH",
"250 401 OFFCURVE",
"236 419 OFFCURVE",
"206 419 CURVE SMOOTH",
"170 419 OFFCURVE",
"141 396 OFFCURVE",
"141 363 CURVE SMOOTH",
"141 337 OFFCURVE",
"151 312 OFFCURVE",
"183 272 CURVE"
);
}
);
width = 395;
}
);
},
{
glyphname = eight.numerator;
lastChange = "2018-10-18 18:01:35 +0000";
layers = (
{
layerId = master01;
paths = (
{
closed = 1;
nodes = (
"223 606 OFFCURVE",
"210 636 OFFCURVE",
"210 665 CURVE SMOOTH",
"210 742 OFFCURVE",
"278 779 OFFCURVE",
"346 779 CURVE SMOOTH",
"414 779 OFFCURVE",
"455 746 OFFCURVE",
"455 697 CURVE SMOOTH",
"455 634 OFFCURVE",
"397 596 OFFCURVE",
"347 574 CURVE",
"366 551 LINE SMOOTH",
"393 518 OFFCURVE",
"404 483 OFFCURVE",
"404 456 CURVE SMOOTH",
"404 359 OFFCURVE",
"328 314 OFFCURVE",
"252 314 CURVE SMOOTH",
"155 314 OFFCURVE",
"112 366 OFFCURVE",
"112 422 CURVE SMOOTH",
"112 502 OFFCURVE",
"199 540 OFFCURVE",
"255 564 CURVE",
"244 579 LINE SMOOTH"
);
},
{
closed = 1;
nodes = (
"226 516 OFFCURVE",
"187 493 OFFCURVE",
"187 426 CURVE SMOOTH",
"187 386 OFFCURVE",
"210 351 OFFCURVE",
"259 351 CURVE SMOOTH",
"306 351 OFFCURVE",
"334 382 OFFCURVE",
"334 417 CURVE SMOOTH",
"334 446 OFFCURVE",
"327 466 OFFCURVE",
"306 501 CURVE SMOOTH",
"279 546 LINE"
);
},
{
closed = 1;
nodes = (
"357 623 OFFCURVE",
"388 655 OFFCURVE",
"388 703 CURVE SMOOTH",
"388 725 OFFCURVE",
"374 743 OFFCURVE",
"344 743 CURVE SMOOTH",
"308 743 OFFCURVE",
"279 720 OFFCURVE",
"279 687 CURVE SMOOTH",
"279 661 OFFCURVE",
"289 636 OFFCURVE",
"321 596 CURVE"
);
}
);
width = 396;
},
{
layerId = "5CF0B95A-6341-4D13-90DE-0CF1719C21EC";
paths = (
{
closed = 1;
nodes = (
"223 606 OFFCURVE",
"210 636 OFFCURVE",
"210 665 CURVE SMOOTH",
"210 742 OFFCURVE",
"278 779 OFFCURVE",
"346 779 CURVE SMOOTH",
"414 779 OFFCURVE",
"455 746 OFFCURVE",
"455 697 CURVE SMOOTH",
"455 634 OFFCURVE",
"397 596 OFFCURVE",
"347 574 CURVE",
"366 551 LINE SMOOTH",
"393 518 OFFCURVE",
"404 483 OFFCURVE",
"404 456 CURVE SMOOTH",
"404 359 OFFCURVE",
"328 314 OFFCURVE",
"252 314 CURVE SMOOTH",
"155 314 OFFCURVE",
"112 366 OFFCURVE",
"112 422 CURVE SMOOTH",
"112 502 OFFCURVE",
"199 540 OFFCURVE",
"255 564 CURVE",
"244 579 LINE SMOOTH"
);
},
{
closed = 1;
nodes = (
"226 516 OFFCURVE",
"187 493 OFFCURVE",
"187 426 CURVE SMOOTH",
"187 386 OFFCURVE",
"210 351 OFFCURVE",
"259 351 CURVE SMOOTH",
"306 351 OFFCURVE",
"334 382 OFFCURVE",
"334 417 CURVE SMOOTH",
"334 446 OFFCURVE",
"327 466 OFFCURVE",
"306 501 CURVE SMOOTH",
"279 546 LINE"
);
},
{
closed = 1;
nodes = (
"357 623 OFFCURVE",
"388 655 OFFCURVE",
"388 703 CURVE SMOOTH",
"388 725 OFFCURVE",
"374 743 OFFCURVE",
"344 743 CURVE SMOOTH",
"308 743 OFFCURVE",
"279 720 OFFCURVE",
"279 687 CURVE SMOOTH",
"279 661 OFFCURVE",
"289 636 OFFCURVE",
"321 596 CURVE"
);
}
);
width = 396;
}
);
},
{
glyphname = eight.oldstyle;
lastChange = "2018-10-18 18:01:35 +0000";
layers = (
{
layerId = master01;
paths = (
{
closed = 1;
nodes = (
"497 471 OFFCURVE",
"570 562 OFFCURVE",
"570 645 CURVE SMOOTH",
"570 713 OFFCURVE",
"516 758 OFFCURVE",
"432 758 CURVE SMOOTH",
"293 758 OFFCURVE",
"177 658 OFFCURVE",
"177 542 CURVE SMOOTH",
"177 486 OFFCURVE",
"203 436 OFFCURVE",
"248 389 CURVE",
"103 328 OFFCURVE",
"17 231 OFFCURVE",
"17 129 CURVE SMOOTH",
"17 41 OFFCURVE",
"77 -10 OFFCURVE",
"181 -10 CURVE SMOOTH",
"342 -10 OFFCURVE",
"463 104 OFFCURVE",
"463 255 CURVE SMOOTH",
"463 296 OFFCURVE",
"444 353 OFFCURVE",
"391 419 CURVE"
);
},
{
closed = 1;
nodes = (
"308 487 OFFCURVE",
"280 545 OFFCURVE",
"280 595 CURVE SMOOTH",
"280 661 OFFCURVE",
"338 713 OFFCURVE",
"413 713 CURVE SMOOTH",
"456 713 OFFCURVE",
"482 687 OFFCURVE",
"482 643 CURVE SMOOTH",
"482 580 OFFCURVE",
"437 498 OFFCURVE",
"362 444 CURVE"
);
},
{
closed = 1;
nodes = (
"332 313 OFFCURVE",
"355 255 OFFCURVE",
"355 197 CURVE SMOOTH",
"355 105 OFFCURVE",
"288 35 OFFCURVE",
"198 35 CURVE SMOOTH",
"142 35 OFFCURVE",
"114 63 OFFCURVE",
"114 121 CURVE SMOOTH",
"114 209 OFFCURVE",
"184 315 OFFCURVE",
"276 360 CURVE"
);
}
);
width = 562;
},
{
layerId = "5CF0B95A-6341-4D13-90DE-0CF1719C21EC";
paths = (
{
closed = 1;
nodes = (
"497 471 OFFCURVE",
"570 562 OFFCURVE",
"570 645 CURVE SMOOTH",
"570 713 OFFCURVE",
"516 758 OFFCURVE",
"432 758 CURVE SMOOTH",
"293 758 OFFCURVE",
"177 658 OFFCURVE",
"177 542 CURVE SMOOTH",
"177 486 OFFCURVE",
"203 436 OFFCURVE",
"248 389 CURVE",
"103 328 OFFCURVE",
"17 231 OFFCURVE",
"17 129 CURVE SMOOTH",
"17 41 OFFCURVE",
"77 -10 OFFCURVE",
"181 -10 CURVE SMOOTH",
"342 -10 OFFCURVE",
"463 104 OFFCURVE",
"463 255 CURVE SMOOTH",
"463 296 OFFCURVE",
"444 353 OFFCURVE",
"391 419 CURVE"
);
},
{
closed = 1;
nodes = (
"308 487 OFFCURVE",
"280 545 OFFCURVE",
"280 595 CURVE SMOOTH",
"280 661 OFFCURVE",
"338 713 OFFCURVE",
"413 713 CURVE SMOOTH",
"456 713 OFFCURVE",
"482 687 OFFCURVE",
"482 643 CURVE SMOOTH",
"482 580 OFFCURVE",
"437 498 OFFCURVE",
"362 444 CURVE"
);
},
{
closed = 1;
nodes = (
"332 313 OFFCURVE",
"355 255 OFFCURVE",
"355 197 CURVE SMOOTH",
"355 105 OFFCURVE",
"288 35 OFFCURVE",
"198 35 CURVE SMOOTH",
"142 35 OFFCURVE",
"114 63 OFFCURVE",
"114 121 CURVE SMOOTH",
"114 209 OFFCURVE",
"184 315 OFFCURVE",
"276 360 CURVE"
);
}
);
width = 562;
}
);
},
{
glyphname = eight.tnum;
lastChange = "2018-10-18 18:01:35 +0000";
layers = (
{
layerId = master01;
paths = (
{
closed = 1;
nodes = (
"171 465 OFFCURVE",
"136 520 OFFCURVE",
"136 585 CURVE SMOOTH",
"136 717 OFFCURVE",
"243 780 OFFCURVE",
"353 780 CURVE SMOOTH",
"459 780 OFFCURVE",
"524 723 OFFCURVE",
"524 641 CURVE SMOOTH",
"524 533 OFFCURVE",
"418 477 OFFCURVE",
"334 440 CURVE",
"366 401 LINE SMOOTH",
"402 357 OFFCURVE",
"436 295 OFFCURVE",
"436 230 CURVE SMOOTH",
"436 65 OFFCURVE",
"314 -10 OFFCURVE",
"191 -10 CURVE SMOOTH",
"39 -10 OFFCURVE",
"-30 78 OFFCURVE",
"-30 172 CURVE SMOOTH",
"-30 309 OFFCURVE",
"110 381 OFFCURVE",
"207 421 CURVE",
"186 447 LINE SMOOTH"
);
},
{
closed = 1;
nodes = (
"137 339 OFFCURVE",
"74 294 OFFCURVE",
"74 179 CURVE SMOOTH",
"74 99 OFFCURVE",
"117 32 OFFCURVE",
"203 32 CURVE SMOOTH",
"292 32 OFFCURVE",
"346 90 OFFCURVE",
"346 181 CURVE SMOOTH",
"346 233 OFFCURVE",
"324 274 OFFCURVE",
"292 314 CURVE SMOOTH",
"231 390 LINE"
);
},
{
closed = 1;
nodes = (
"376 513 OFFCURVE",
"431 569 OFFCURVE",
"431 651 CURVE SMOOTH",
"431 702 OFFCURVE",
"406 738 OFFCURVE",
"348 738 CURVE SMOOTH",
"277 738 OFFCURVE",
"222 693 OFFCURVE",
"222 623 CURVE SMOOTH",
"222 559 OFFCURVE",
"271 507 OFFCURVE",
"309 467 CURVE"
);
}
);
width = 600;
},
{
layerId = "5CF0B95A-6341-4D13-90DE-0CF1719C21EC";
paths = (
{
closed = 1;
nodes = (
"171 465 OFFCURVE",
"136 520 OFFCURVE",
"136 585 CURVE SMOOTH",
"136 717 OFFCURVE",
"243 780 OFFCURVE",
"353 780 CURVE SMOOTH",
"459 780 OFFCURVE",
"524 723 OFFCURVE",
"524 641 CURVE SMOOTH",
"524 533 OFFCURVE",
"418 477 OFFCURVE",
"334 440 CURVE",
"366 401 LINE SMOOTH",
"402 357 OFFCURVE",
"436 295 OFFCURVE",
"436 230 CURVE SMOOTH",
"436 65 OFFCURVE",
"314 -10 OFFCURVE",
"191 -10 CURVE SMOOTH",
"39 -10 OFFCURVE",
"-30 78 OFFCURVE",
"-30 172 CURVE SMOOTH",
"-30 309 OFFCURVE",
"110 381 OFFCURVE",
"207 421 CURVE",
"186 447 LINE SMOOTH"
);
},
{
closed = 1;
nodes = (
"137 339 OFFCURVE",
"74 294 OFFCURVE",
"74 179 CURVE SMOOTH",
"74 99 OFFCURVE",
"117 32 OFFCURVE",
"203 32 CURVE SMOOTH",
"292 32 OFFCURVE",
"346 90 OFFCURVE",
"346 181 CURVE SMOOTH",
"346 233 OFFCURVE",
"324 274 OFFCURVE",
"292 314 CURVE SMOOTH",
"231 390 LINE"
);
},
{
closed = 1;
nodes = (
"376 513 OFFCURVE",
"431 569 OFFCURVE",
"431 651 CURVE SMOOTH",
"431 702 OFFCURVE",
"406 738 OFFCURVE",
"348 738 CURVE SMOOTH",
"277 738 OFFCURVE",
"222 693 OFFCURVE",
"222 623 CURVE SMOOTH",
"222 559 OFFCURVE",
"271 507 OFFCURVE",
"309 467 CURVE"
);
}
);
width = 600;
}
);
},
{
glyphname = eightinferior;
lastChange = "2018-10-18 18:01:35 +0000";
layers = (
{
layerId = master01;
paths = (
{
closed = 1;
nodes = (
"37 164 OFFCURVE",
"23 197 OFFCURVE",
"23 229 CURVE SMOOTH",
"23 315 OFFCURVE",
"98 356 OFFCURVE",
"175 356 CURVE SMOOTH",
"250 356 OFFCURVE",
"296 319 OFFCURVE",
"296 265 CURVE SMOOTH",
"296 195 OFFCURVE",
"231 153 OFFCURVE",
"176 129 CURVE",
"197 103 LINE SMOOTH",
"227 65 OFFCURVE",
"239 27 OFFCURVE",
"239 -3 CURVE SMOOTH",
"239 -111 OFFCURVE",
"154 -161 OFFCURVE",
"69 -161 CURVE SMOOTH",
"-38 -161 OFFCURVE",
"-86 -103 OFFCURVE",
"-86 -41 CURVE SMOOTH",
"-86 48 OFFCURVE",
"10 90 OFFCURVE",
"73 117 CURVE",
"60 134 LINE SMOOTH"
);
},
{
closed = 1;
nodes = (
"41 63 OFFCURVE",
"-3 38 OFFCURVE",
"-3 -37 CURVE SMOOTH",
"-3 -81 OFFCURVE",
"23 -120 OFFCURVE",
"77 -120 CURVE SMOOTH",
"129 -120 OFFCURVE",
"160 -86 OFFCURVE",
"160 -47 CURVE SMOOTH",
"160 -15 OFFCURVE",
"152 8 OFFCURVE",
"129 46 CURVE SMOOTH",
"99 96 LINE"
);
},
{
closed = 1;
nodes = (
"187 183 OFFCURVE",
"221 218 OFFCURVE",
"221 272 CURVE SMOOTH",
"221 296 OFFCURVE",
"206 316 OFFCURVE",
"171 316 CURVE SMOOTH",
"131 316 OFFCURVE",
"99 291 OFFCURVE",
"99 254 CURVE SMOOTH",
"99 225 OFFCURVE",
"110 197 OFFCURVE",
"146 153 CURVE"
);
}
);
width = 423;
},
{
layerId = "5CF0B95A-6341-4D13-90DE-0CF1719C21EC";
paths = (
{
closed = 1;
nodes = (
"37 164 OFFCURVE",
"23 197 OFFCURVE",
"23 229 CURVE SMOOTH",
"23 315 OFFCURVE",
"98 356 OFFCURVE",
"175 356 CURVE SMOOTH",
"250 356 OFFCURVE",
"296 319 OFFCURVE",
"296 265 CURVE SMOOTH",
"296 195 OFFCURVE",
"231 153 OFFCURVE",
"176 129 CURVE",
"197 103 LINE SMOOTH",
"227 65 OFFCURVE",
"239 27 OFFCURVE",
"239 -3 CURVE SMOOTH",
"239 -111 OFFCURVE",
"154 -161 OFFCURVE",
"69 -161 CURVE SMOOTH",
"-38 -161 OFFCURVE",
"-86 -103 OFFCURVE",
"-86 -41 CURVE SMOOTH",
"-86 48 OFFCURVE",
"10 90 OFFCURVE",
"73 117 CURVE",
"60 134 LINE SMOOTH"
);
},
{
closed = 1;
nodes = (
"41 63 OFFCURVE",
"-3 38 OFFCURVE",
"-3 -37 CURVE SMOOTH",
"-3 -81 OFFCURVE",
"23 -120 OFFCURVE",
"77 -120 CURVE SMOOTH",
"129 -120 OFFCURVE",
"160 -86 OFFCURVE",
"160 -47 CURVE SMOOTH",
"160 -15 OFFCURVE",
"152 8 OFFCURVE",
"129 46 CURVE SMOOTH",
"99 96 LINE"
);
},
{
closed = 1;
nodes = (
"187 183 OFFCURVE",
"221 218 OFFCURVE",
"221 272 CURVE SMOOTH",
"221 296 OFFCURVE",
"206 316 OFFCURVE",
"171 316 CURVE SMOOTH",
"131 316 OFFCURVE",
"99 291 OFFCURVE",
"99 254 CURVE SMOOTH",
"99 225 OFFCURVE",
"110 197 OFFCURVE",
"146 153 CURVE"
);
}
);
width = 423;
}
);
unicode = 2088;
},
{
glyphname = eightsuperior;
lastChange = "2018-10-18 18:01:35 +0000";
layers = (
{
layerId = master01;
paths = (
{
closed = 1;
nodes = (
"277 736 OFFCURVE",
"265 768 OFFCURVE",
"265 802 CURVE SMOOTH",
"265 875 OFFCURVE",
"328 926 OFFCURVE",
"418 926 CURVE SMOOTH",
"491 926 OFFCURVE",
"538 890 OFFCURVE",
"538 833 CURVE SMOOTH",
"538 780 OFFCURVE",
"494 731 OFFCURVE",
"418 699 CURVE",
"439 673 LINE SMOOTH",
"467 637 OFFCURVE",
"481 601 OFFCURVE",
"481 561 CURVE SMOOTH",
"481 471 OFFCURVE",
"409 409 OFFCURVE",
"306 409 CURVE SMOOTH",
"217 409 OFFCURVE",
"156 458 OFFCURVE",
"156 530 CURVE SMOOTH",
"156 591 OFFCURVE",
"206 640 OFFCURVE",
"315 687 CURVE",
"302 704 LINE SMOOTH"
);
},
{
closed = 1;
nodes = (
"261 619 OFFCURVE",
"239 591 OFFCURVE",
"239 538 CURVE SMOOTH",
"239 482 OFFCURVE",
"269 450 OFFCURVE",
"320 450 CURVE SMOOTH",
"371 450 OFFCURVE",
"402 480 OFFCURVE",
"402 532 CURVE SMOOTH",
"402 560 OFFCURVE",
"391 589 OFFCURVE",
"371 616 CURVE SMOOTH",
"335 662 LINE"
);
},
{
closed = 1;
nodes = (
"436 757 OFFCURVE",
"463 798 OFFCURVE",
"463 837 CURVE SMOOTH",
"463 870 OFFCURVE",
"446 886 OFFCURVE",
"413 886 CURVE SMOOTH",
"370 886 OFFCURVE",
"341 860 OFFCURVE",
"341 821 CURVE SMOOTH",
"341 793 OFFCURVE",
"356 761 OFFCURVE",
"388 723 CURVE"
);
}
);
width = 424;
},
{
layerId = "5CF0B95A-6341-4D13-90DE-0CF1719C21EC";
paths = (
{
closed = 1;
nodes = (
"277 736 OFFCURVE",
"265 768 OFFCURVE",
"265 802 CURVE SMOOTH",
"265 875 OFFCURVE",
"328 926 OFFCURVE",
"418 926 CURVE SMOOTH",
"491 926 OFFCURVE",
"538 890 OFFCURVE",
"538 833 CURVE SMOOTH",
"538 780 OFFCURVE",
"494 731 OFFCURVE",
"418 699 CURVE",
"439 673 LINE SMOOTH",
"467 637 OFFCURVE",
"481 601 OFFCURVE",
"481 561 CURVE SMOOTH",
"481 471 OFFCURVE",
"409 409 OFFCURVE",
"306 409 CURVE SMOOTH",
"217 409 OFFCURVE",
"156 458 OFFCURVE",
"156 530 CURVE SMOOTH",
"156 591 OFFCURVE",
"206 640 OFFCURVE",
"315 687 CURVE",
"302 704 LINE SMOOTH"
);
},
{
closed = 1;
nodes = (
"261 619 OFFCURVE",
"239 591 OFFCURVE",
"239 538 CURVE SMOOTH",
"239 482 OFFCURVE",
"269 450 OFFCURVE",
"320 450 CURVE SMOOTH",
"371 450 OFFCURVE",
"402 480 OFFCURVE",
"402 532 CURVE SMOOTH",
"402 560 OFFCURVE",
"391 589 OFFCURVE",
"371 616 CURVE SMOOTH",
"335 662 LINE"
);
},
{
closed = 1;
nodes = (
"436 757 OFFCURVE",
"463 798 OFFCURVE",
"463 837 CURVE SMOOTH",
"463 870 OFFCURVE",
"446 886 OFFCURVE",
"413 886 CURVE SMOOTH",
"370 886 OFFCURVE",
"341 860 OFFCURVE",
"341 821 CURVE SMOOTH",
"341 793 OFFCURVE",
"356 761 OFFCURVE",
"388 723 CURVE"
);
}
);
width = 424;
}
);
unicode = 2078;
},
{
glyphname = ellipsis;
lastChange = "2018-10-18 18:01:35 +0000";
layers = (
{
layerId = master01;
paths = (
{
closed = 1;
nodes = (
"94 137 OFFCURVE",
"129 109 OFFCURVE",
"129 72 CURVE SMOOTH",
"129 30 OFFCURVE",
"85 -10 OFFCURVE",
"41 -10 CURVE SMOOTH",
"-4 -10 OFFCURVE",
"-32 17 OFFCURVE",
"-32 57 CURVE SMOOTH",
"-32 101 OFFCURVE",
"9 137 OFFCURVE",
"54 137 CURVE SMOOTH"
);
},
{
closed = 1;
nodes = (
"335 137 OFFCURVE",
"370 109 OFFCURVE",
"370 72 CURVE SMOOTH",
"370 30 OFFCURVE",
"326 -10 OFFCURVE",
"282 -10 CURVE SMOOTH",
"237 -10 OFFCURVE",
"209 17 OFFCURVE",
"209 57 CURVE SMOOTH",
"209 101 OFFCURVE",
"250 137 OFFCURVE",
"295 137 CURVE SMOOTH"
);
},
{
closed = 1;
nodes = (
"576 137 OFFCURVE",
"611 109 OFFCURVE",
"611 72 CURVE SMOOTH",
"611 30 OFFCURVE",
"567 -10 OFFCURVE",
"523 -10 CURVE SMOOTH",
"478 -10 OFFCURVE",
"450 17 OFFCURVE",
"450 57 CURVE SMOOTH",
"450 101 OFFCURVE",
"491 137 OFFCURVE",
"536 137 CURVE SMOOTH"
);
}
);
width = 764;
},
{
layerId = "5CF0B95A-6341-4D13-90DE-0CF1719C21EC";
paths = (
{
closed = 1;
nodes = (
"94 137 OFFCURVE",
"129 109 OFFCURVE",
"129 72 CURVE SMOOTH",
"129 30 OFFCURVE",
"85 -10 OFFCURVE",
"41 -10 CURVE SMOOTH",
"-4 -10 OFFCURVE",
"-32 17 OFFCURVE",
"-32 57 CURVE SMOOTH",
"-32 101 OFFCURVE",
"9 137 OFFCURVE",
"54 137 CURVE SMOOTH"
);
},
{
closed = 1;
nodes = (
"335 137 OFFCURVE",
"370 109 OFFCURVE",
"370 72 CURVE SMOOTH",
"370 30 OFFCURVE",
"326 -10 OFFCURVE",
"282 -10 CURVE SMOOTH",
"237 -10 OFFCURVE",
"209 17 OFFCURVE",
"209 57 CURVE SMOOTH",
"209 101 OFFCURVE",
"250 137 OFFCURVE",
"295 137 CURVE SMOOTH"
);
},
{
closed = 1;
nodes = (
"576 137 OFFCURVE",
"611 109 OFFCURVE",
"611 72 CURVE SMOOTH",
"611 30 OFFCURVE",
"567 -10 OFFCURVE",
"523 -10 CURVE SMOOTH",
"478 -10 OFFCURVE",
"450 17 OFFCURVE",
"450 57 CURVE SMOOTH",
"450 101 OFFCURVE",
"491 137 OFFCURVE",
"536 137 CURVE SMOOTH"
);
}
);
width = 764;
}
);
leftKerningGroup = period;
unicode = 2026;
},
{
glyphname = emdash;
lastChange = "2018-10-18 18:01:35 +0000";
layers = (
{
layerId = master01;
paths = (
{
closed = 1;
nodes = (
"993 282 LINE",
"73 282 LINE",
"49 222 LINE",
"968 222 LINE"
);
}
);
width = 1082;
},
{
layerId = "5CF0B95A-6341-4D13-90DE-0CF1719C21EC";
paths = (
{
closed = 1;
nodes = (
"993 282 LINE",
"73 282 LINE",
"49 222 LINE",
"968 222 LINE"
);
}
);
width = 1082;
}
);
leftKerningGroup = hyphen;
rightKerningGroup = hyphen;
unicode = 2014;
},
{
glyphname = endash;
lastChange = "2018-10-18 18:01:35 +0000";
layers = (
{
layerId = master01;
paths = (
{
closed = 1;
nodes = (
"672 282 LINE",
"73 282 LINE",
"49 221 LINE",
"647 221 LINE"
);
}
);
width = 761;
},
{
layerId = "5CF0B95A-6341-4D13-90DE-0CF1719C21EC";
paths = (
{
closed = 1;
nodes = (
"672 282 LINE",
"73 282 LINE",
"49 221 LINE",
"647 221 LINE"
);
}
);
width = 761;
}
);
leftKerningGroup = hyphen;
rightKerningGroup = hyphen;
unicode = 2013;
},
{
glyphname = eng;
lastChange = "2018-10-18 18:01:35 +0000";
layers = (
{
layerId = master01;
paths = (
{
closed = 1;
nodes = (
"211 -174 OFFCURVE",
"183 -221 OFFCURVE",
"140 -221 CURVE SMOOTH",
"80 -221 OFFCURVE",
"111 -132 OFFCURVE",
"42 -132 CURVE SMOOTH {name = hr01;}",
"11 -132 OFFCURVE",
"-4 -150 OFFCURVE",
"-4 -177 CURVE SMOOTH",
"-4 -227 OFFCURVE",
"45 -256 OFFCURVE",
"113 -256 CURVE SMOOTH",
"212 -256 OFFCURVE",
"289 -194 OFFCURVE",
"341 -81 CURVE SMOOTH",
"545 360 LINE SMOOTH",
"561 395 OFFCURVE",
"570 423 OFFCURVE",
"570 453 CURVE SMOOTH",
"570 509 OFFCURVE",
"539 539 OFFCURVE",
"479 539 CURVE SMOOTH",
"405 539 OFFCURVE",
"340 493 OFFCURVE",
"254 380 CURVE",
"250 382 LINE",
"282 441 OFFCURVE",
"294 473 OFFCURVE",
"294 500 CURVE SMOOTH",
"294 528 OFFCURVE",
"280 540 OFFCURVE",
"246 540 CURVE SMOOTH {name = hr02;}",
"182 540 OFFCURVE",
"108 496 OFFCURVE",
"57 426 CURVE",
"77 410 LINE",
"118 461 OFFCURVE",
"160 495 OFFCURVE",
"183 495 CURVE SMOOTH",
"193 495 OFFCURVE",
"197 488 OFFCURVE",
"197 481 CURVE SMOOTH",
"197 473 OFFCURVE",
"193 463 OFFCURVE",
"186 446 CURVE SMOOTH",
"-6 0 LINE",
"91 0 LINE",
"184 194 LINE SMOOTH",
"270 373 OFFCURVE",
"383 505 OFFCURVE",
"451 505 CURVE SMOOTH {name = hr03;}",
"471 505 OFFCURVE",
"483 494 OFFCURVE",
"483 475 CURVE SMOOTH",
"483 460 OFFCURVE",
"476 441 OFFCURVE",
"470 427 CURVE SMOOTH",
"274 -28 LINE SMOOTH"
);
}
);
width = 597;
},
{
layerId = "5CF0B95A-6341-4D13-90DE-0CF1719C21EC";
paths = (
{
closed = 1;
nodes = (
"211 -174 OFFCURVE",
"183 -221 OFFCURVE",
"140 -221 CURVE SMOOTH",
"80 -221 OFFCURVE",
"111 -132 OFFCURVE",
"42 -132 CURVE SMOOTH {name = hr01;}",
"11 -132 OFFCURVE",
"-4 -150 OFFCURVE",
"-4 -177 CURVE SMOOTH",
"-4 -227 OFFCURVE",
"45 -256 OFFCURVE",
"113 -256 CURVE SMOOTH",
"212 -256 OFFCURVE",
"289 -194 OFFCURVE",
"341 -81 CURVE SMOOTH",
"545 360 LINE SMOOTH",
"561 395 OFFCURVE",
"570 423 OFFCURVE",
"570 453 CURVE SMOOTH",
"570 509 OFFCURVE",
"539 539 OFFCURVE",
"479 539 CURVE SMOOTH",
"405 539 OFFCURVE",
"340 493 OFFCURVE",
"254 380 CURVE",
"250 382 LINE",
"282 441 OFFCURVE",
"294 473 OFFCURVE",
"294 500 CURVE SMOOTH",
"294 528 OFFCURVE",
"280 540 OFFCURVE",
"246 540 CURVE SMOOTH {name = hr02;}",
"182 540 OFFCURVE",
"108 496 OFFCURVE",
"57 426 CURVE",
"77 410 LINE",
"118 461 OFFCURVE",
"160 495 OFFCURVE",
"183 495 CURVE SMOOTH",
"193 495 OFFCURVE",
"197 488 OFFCURVE",
"197 481 CURVE SMOOTH",
"197 473 OFFCURVE",
"193 463 OFFCURVE",
"186 446 CURVE SMOOTH",
"-6 0 LINE",
"91 0 LINE",
"184 194 LINE SMOOTH",
"270 373 OFFCURVE",
"383 505 OFFCURVE",
"451 505 CURVE SMOOTH {name = hr03;}",
"471 505 OFFCURVE",
"483 494 OFFCURVE",
"483 475 CURVE SMOOTH",
"483 460 OFFCURVE",
"476 441 OFFCURVE",
"470 427 CURVE SMOOTH",
"274 -28 LINE SMOOTH"
);
}
);
width = 597;
}
);
leftKerningGroup = n;
unicode = 014B;
},
{
glyphname = equal;
lastChange = "2018-10-18 18:01:35 +0000";
layers = (
{
layerId = master01;
paths = (
{
closed = 1;
nodes = (
"505 274 LINE",
"505 232 LINE",
"139 232 LINE",
"139 274 LINE"
);
},
{
closed = 1;
nodes = (
"505 424 LINE",
"505 382 LINE",
"139 382 LINE",
"139 424 LINE"
);
}
);
width = 628;
},
{
layerId = "5CF0B95A-6341-4D13-90DE-0CF1719C21EC";
paths = (
{
closed = 1;
nodes = (
"505 274 LINE",
"505 232 LINE",
"139 232 LINE",
"139 274 LINE"
);
},
{
closed = 1;
nodes = (
"505 424 LINE",
"505 382 LINE",
"139 382 LINE",
"139 424 LINE"
);
}
);
width = 628;
}
);
unicode = 003D;
},
{
glyphname = equal.tnum;
lastChange = "2018-10-18 18:01:35 +0000";
layers = (
{
layerId = master01;
paths = (
{
closed = 1;
nodes = (
"466 274 LINE",
"466 232 LINE",
"100 232 LINE",
"100 274 LINE"
);
},
{
closed = 1;
nodes = (
"466 424 LINE",
"466 382 LINE",
"100 382 LINE",
"100 424 LINE"
);
}
);
width = 518;
},
{
layerId = "5CF0B95A-6341-4D13-90DE-0CF1719C21EC";
paths = (
{
closed = 1;
nodes = (
"466 274 LINE",
"466 232 LINE",
"100 232 LINE",
"100 274 LINE"
);
},
{
closed = 1;
nodes = (
"466 424 LINE",
"466 382 LINE",
"100 382 LINE",
"100 424 LINE"
);
}
);
width = 518;
}
);
},
{
glyphname = eth;
lastChange = "2018-10-18 18:01:35 +0000";
layers = (
{
layerId = master01;
paths = (
{
closed = 1;
nodes = (
"200 540 OFFCURVE",
"13 332 OFFCURVE",
"13 151 CURVE SMOOTH",
"13 50 OFFCURVE",
"70 -10 OFFCURVE",
"164 -10 CURVE SMOOTH",
"343 -10 OFFCURVE",
"515 199 OFFCURVE",
"515 416 CURVE SMOOTH",
"515 512 OFFCURVE",
"482 636 OFFCURVE",
"443 688 CURVE",
"572 770 LINE",
"550 802 LINE",
"420 720 LINE",
"384 758 OFFCURVE",
"339 787 OFFCURVE",
"268 819 CURVE",
"254 793 LINE",
"318 761 OFFCURVE",
"352 734 OFFCURVE",
"379 693 CURVE",
"244 606 LINE",
"265 573 LINE",
"395 657 LINE",
"426 597 OFFCURVE",
"438 557 OFFCURVE",
"441 502 CURVE",
"437 502 LINE",
"424 528 OFFCURVE",
"400 540 OFFCURVE",
"362 540 CURVE SMOOTH {name = hr00;}"
);
},
{
closed = 1;
nodes = (
"406 496 OFFCURVE",
"421 474 OFFCURVE",
"421 429 CURVE SMOOTH",
"421 280 OFFCURVE",
"249 25 OFFCURVE",
"149 25 CURVE SMOOTH",
"119 25 OFFCURVE",
"104 48 OFFCURVE",
"104 97 CURVE SMOOTH",
"104 255 OFFCURVE",
"267 496 OFFCURVE",
"374 496 CURVE SMOOTH"
);
}
);
width = 555;
},
{
layerId = "5CF0B95A-6341-4D13-90DE-0CF1719C21EC";
paths = (
{
closed = 1;
nodes = (
"200 540 OFFCURVE",
"13 332 OFFCURVE",
"13 151 CURVE SMOOTH",
"13 50 OFFCURVE",
"70 -10 OFFCURVE",
"164 -10 CURVE SMOOTH",
"343 -10 OFFCURVE",
"515 199 OFFCURVE",
"515 416 CURVE SMOOTH",
"515 512 OFFCURVE",
"482 636 OFFCURVE",
"443 688 CURVE",
"572 770 LINE",
"550 802 LINE",
"420 720 LINE",
"384 758 OFFCURVE",
"339 787 OFFCURVE",
"268 819 CURVE",
"254 793 LINE",
"318 761 OFFCURVE",
"352 734 OFFCURVE",
"379 693 CURVE",
"244 606 LINE",
"265 573 LINE",
"395 657 LINE",
"426 597 OFFCURVE",
"438 557 OFFCURVE",
"441 502 CURVE",
"437 502 LINE",
"424 528 OFFCURVE",
"400 540 OFFCURVE",
"362 540 CURVE SMOOTH {name = hr00;}"
);
},
{
closed = 1;
nodes = (
"406 496 OFFCURVE",
"421 474 OFFCURVE",
"421 429 CURVE SMOOTH",
"421 280 OFFCURVE",
"249 25 OFFCURVE",
"149 25 CURVE SMOOTH",
"119 25 OFFCURVE",
"104 48 OFFCURVE",
"104 97 CURVE SMOOTH",
"104 255 OFFCURVE",
"267 496 OFFCURVE",
"374 496 CURVE SMOOTH"
);
}
);
width = 555;
}
);
unicode = 00F0;
},
{
glyphname = exclam;
lastChange = "2018-10-18 18:01:35 +0000";
layers = (
{
layerId = master01;
paths = (
{
closed = 1;
nodes = (
"219 374 OFFCURVE",
"258 464 OFFCURVE",
"312 553 CURVE SMOOTH",
"377 659 OFFCURVE",
"391 688 OFFCURVE",
"391 717 CURVE SMOOTH",
"391 754 OFFCURVE",
"365 780 OFFCURVE",
"327 780 CURVE SMOOTH",
"294 780 OFFCURVE",
"269 759 OFFCURVE",
"259 729 CURVE SMOOTH",
"252 709 OFFCURVE",
"236 648 OFFCURVE",
"218 571 CURVE SMOOTH",
"137 230 LINE",
"172 230 LINE"
);
},
{
closed = 1;
nodes = (
"142 115 OFFCURVE",
"170 90 OFFCURVE",
"170 57 CURVE SMOOTH",
"170 21 OFFCURVE",
"135 -10 OFFCURVE",
"95 -10 CURVE SMOOTH",
"60 -10 OFFCURVE",
"36 14 OFFCURVE",
"36 47 CURVE SMOOTH",
"36 84 OFFCURVE",
"68 115 OFFCURVE",
"107 115 CURVE SMOOTH"
);
}
);
width = 336;
},
{
layerId = "5CF0B95A-6341-4D13-90DE-0CF1719C21EC";
paths = (
{
closed = 1;
nodes = (
"219 374 OFFCURVE",
"258 464 OFFCURVE",
"312 553 CURVE SMOOTH",
"377 659 OFFCURVE",
"391 688 OFFCURVE",
"391 717 CURVE SMOOTH",
"391 754 OFFCURVE",
"365 780 OFFCURVE",
"327 780 CURVE SMOOTH",
"294 780 OFFCURVE",
"269 759 OFFCURVE",
"259 729 CURVE SMOOTH",
"252 709 OFFCURVE",
"236 648 OFFCURVE",
"218 571 CURVE SMOOTH",
"137 230 LINE",
"172 230 LINE"
);
},
{
closed = 1;
nodes = (
"142 115 OFFCURVE",
"170 90 OFFCURVE",
"170 57 CURVE SMOOTH",
"170 21 OFFCURVE",
"135 -10 OFFCURVE",
"95 -10 CURVE SMOOTH",
"60 -10 OFFCURVE",
"36 14 OFFCURVE",
"36 47 CURVE SMOOTH",
"36 84 OFFCURVE",
"68 115 OFFCURVE",
"107 115 CURVE SMOOTH"
);
}
);
width = 336;
}
);
unicode = 0021;
},
{
glyphname = exclamdown;
lastChange = "2018-10-18 18:01:35 +0000";
layers = (
{
layerId = master01;
paths = (
{
closed = 1;
nodes = (
"77 156 OFFCURVE",
"37 67 OFFCURVE",
"-16 -23 CURVE SMOOTH",
"-74 -122 OFFCURVE",
"-85 -150 OFFCURVE",
"-85 -177 CURVE SMOOTH",
"-85 -214 OFFCURVE",
"-59 -240 OFFCURVE",
"-21 -240 CURVE SMOOTH",
"12 -240 OFFCURVE",
"32 -219 OFFCURVE",
"42 -189 CURVE SMOOTH",
"48 -170 OFFCURVE",
"61 -114 OFFCURVE",
"78 -41 CURVE SMOOTH",
"159 300 LINE",
"124 300 LINE"
);
},
{
closed = 1;
nodes = (
"154 415 OFFCURVE",
"126 440 OFFCURVE",
"126 473 CURVE SMOOTH",
"126 509 OFFCURVE",
"161 540 OFFCURVE",
"201 540 CURVE SMOOTH",
"236 540 OFFCURVE",
"260 516 OFFCURVE",
"260 483 CURVE SMOOTH",
"260 446 OFFCURVE",
"228 415 OFFCURVE",
"189 415 CURVE SMOOTH"
);
}
);
width = 314;
},
{
layerId = "5CF0B95A-6341-4D13-90DE-0CF1719C21EC";
paths = (
{
closed = 1;
nodes = (
"77 156 OFFCURVE",
"37 67 OFFCURVE",
"-16 -23 CURVE SMOOTH",
"-74 -122 OFFCURVE",
"-85 -150 OFFCURVE",
"-85 -177 CURVE SMOOTH",
"-85 -214 OFFCURVE",
"-59 -240 OFFCURVE",
"-21 -240 CURVE SMOOTH",
"12 -240 OFFCURVE",
"32 -219 OFFCURVE",
"42 -189 CURVE SMOOTH",
"48 -170 OFFCURVE",
"61 -114 OFFCURVE",
"78 -41 CURVE SMOOTH",
"159 300 LINE",
"124 300 LINE"
);
},
{
closed = 1;
nodes = (
"154 415 OFFCURVE",
"126 440 OFFCURVE",
"126 473 CURVE SMOOTH",
"126 509 OFFCURVE",
"161 540 OFFCURVE",
"201 540 CURVE SMOOTH",
"236 540 OFFCURVE",
"260 516 OFFCURVE",
"260 483 CURVE SMOOTH",
"260 446 OFFCURVE",
"228 415 OFFCURVE",
"189 415 CURVE SMOOTH"
);
}
);
width = 314;
}
);
unicode = 00A1;
},
